  0
SECTION
  2
HEADER
  9
$ACADVER
  1
AC1024
  9
$ACADMAINTVER
 70
6
  9
$DWGCODEPAGE
  3
ANSI_1252
  9
$LASTSAVEDBY
  1
ezdxf
  9
$INSBASE
 10
0.0
 20
0.0
 30
0.0
  9
$EXTMIN
 10
1e+20
 20
1e+20
 30
1e+20
  9
$EXTMAX
 10
-1e+20
 20
-1e+20
 30
-1e+20
  9
$LIMMIN
 10
0.0
 20
0.0
  9
$LIMMAX
 10
420.0
 20
297.0
  9
$ORTHOMODE
 70
0
  9
$REGENMODE
 70
1
  9
$FILLMODE
 70
1
  9
$QTEXTMODE
 70
0
  9
$MIRRTEXT
 70
1
  9
$LTSCALE
 40
1.0
  9
$ATTMODE
 70
1
  9
$TEXTSIZE
 40
2.5
  9
$TRACEWID
 40
1.0
  9
$TEXTSTYLE
  7
Standard
  9
$CLAYER
  8
0
  9
$CELTYPE
  6
ByLayer
  9
$CECOLOR
 62
256
  9
$CELTSCALE
 40
1.0
  9
$DISPSILH
 70
0
  9
$DIMSCALE
 40
1.0
  9
$DIMASZ
 40
2.5
  9
$DIMEXO
 40
0.625
  9
$DIMDLI
 40
3.75
  9
$DIMRND
 40
0.0
  9
$DIMDLE
 40
0.0
  9
$DIMEXE
 40
1.25
  9
$DIMTP
 40
0.0
  9
$DIMTM
 40
0.0
  9
$DIMTXT
 40
2.5
  9
$DIMCEN
 40
2.5
  9
$DIMTSZ
 40
0.0
  9
$DIMTOL
 70
0
  9
$DIMLIM
 70
0
  9
$DIMTIH
 70
0
  9
$DIMTOH
 70
0
  9
$DIMSE1
 70
0
  9
$DIMSE2
 70
0
  9
$DIMTAD
 70
1
  9
$DIMZIN
 70
8
  9
$DIMBLK
  1

  9
$DIMASO
 70
1
  9
$DIMSHO
 70
1
  9
$DIMPOST
  1

  9
$DIMAPOST
  1

  9
$DIMALT
 70
0
  9
$DIMALTD
 70
3
  9
$DIMALTF
 40
0.03937007874
  9
$DIMLFAC
 40
1.0
  9
$DIMTOFL
 70
1
  9
$DIMTVP
 40
0.0
  9
$DIMTIX
 70
0
  9
$DIMSOXD
 70
0
  9
$DIMSAH
 70
0
  9
$DIMBLK1
  1

  9
$DIMBLK2
  1

  9
$DIMSTYLE
  2
ISO-25
  9
$DIMCLRD
 70
0
  9
$DIMCLRE
 70
0
  9
$DIMCLRT
 70
0
  9
$DIMTFAC
 40
1.0
  9
$DIMGAP
 40
0.625
  9
$DIMJUST
 70
0
  9
$DIMSD1
 70
0
  9
$DIMSD2
 70
0
  9
$DIMTOLJ
 70
0
  9
$DIMTZIN
 70
8
  9
$DIMALTZ
 70
0
  9
$DIMALTTZ
 70
0
  9
$DIMUPT
 70
0
  9
$DIMDEC
 70
2
  9
$DIMTDEC
 70
2
  9
$DIMALTU
 70
2
  9
$DIMALTTD
 70
3
  9
$DIMTXSTY
  7
Standard
  9
$DIMAUNIT
 70
0
  9
$DIMADEC
 70
0
  9
$DIMALTRND
 40
0.0
  9
$DIMAZIN
 70
0
  9
$DIMDSEP
 70
44
  9
$DIMATFIT
 70
3
  9
$DIMFRAC
 70
0
  9
$DIMLDRBLK
  1

  9
$DIMLUNIT
 70
2
  9
$DIMLWD
 70
-2
  9
$DIMLWE
 70
-2
  9
$DIMTMOVE
 70
0
  9
$DIMFXL
 40
1.0
  9
$DIMFXLON
 70
0
  9
$DIMJOGANG
 40
0.785398163397
  9
$DIMTFILL
 70
0
  9
$DIMTFILLCLR
 70
0
  9
$DIMARCSYM
 70
0
  9
$DIMLTYPE
  6

  9
$DIMLTEX1
  6

  9
$DIMLTEX2
  6

  9
$DIMTXTDIRECTION
 70
0
  9
$LUNITS
 70
2
  9
$LUPREC
 70
4
  9
$SKETCHINC
 40
1.0
  9
$FILLETRAD
 40
10.0
  9
$AUNITS
 70
0
  9
$AUPREC
 70
2
  9
$MENU
  1
.
  9
$ELEVATION
 40
0.0
  9
$PELEVATION
 40
0.0
  9
$THICKNESS
 40
0.0
  9
$LIMCHECK
 70
0
  9
$CHAMFERA
 40
0.0
  9
$CHAMFERB
 40
0.0
  9
$CHAMFERC
 40
0.0
  9
$CHAMFERD
 40
0.0
  9
$SKPOLY
 70
0
  9
$TDCREATE
 40
2461234.524965278
  9
$TDUCREATE
 40
2458532.153996898
  9
$TDUPDATE
 40
2461234.524965278
  9
$TDUUPDATE
 40
2458532.1544311
  9
$TDINDWG
 40
0.0
  9
$TDUSRTIMER
 40
0.0
  9
$USRTIMER
 70
1
  9
$ANGBASE
 50
0.0
  9
$ANGDIR
 70
0
  9
$PDMODE
 70
0
  9
$PDSIZE
 40
0.0
  9
$PLINEWID
 40
0.0
  9
$SPLFRAME
 70
0
  9
$SPLINETYPE
 70
6
  9
$SPLINESEGS
 70
8
  9
$HANDSEED
  5
1AA
  9
$SURFTAB1
 70
6
  9
$SURFTAB2
 70
6
  9
$SURFTYPE
 70
6
  9
$SURFU
 70
6
  9
$SURFV
 70
6
  9
$UCSBASE
  2

  9
$UCSNAME
  2

  9
$UCSORG
 10
0.0
 20
0.0
 30
0.0
  9
$UCSXDIR
 10
1.0
 20
0.0
 30
0.0
  9
$UCSYDIR
 10
0.0
 20
1.0
 30
0.0
  9
$UCSORTHOREF
  2

  9
$UCSORTHOVIEW
 70
0
  9
$UCSORGTOP
 10
0.0
 20
0.0
 30
0.0
  9
$UCSORGBOTTOM
 10
0.0
 20
0.0
 30
0.0
  9
$UCSORGLEFT
 10
0.0
 20
0.0
 30
0.0
  9
$UCSORGRIGHT
 10
0.0
 20
0.0
 30
0.0
  9
$UCSORGFRONT
 10
0.0
 20
0.0
 30
0.0
  9
$UCSORGBACK
 10
0.0
 20
0.0
 30
0.0
  9
$PUCSBASE
  2

  9
$PUCSNAME
  2

  9
$PUCSORG
 10
0.0
 20
0.0
 30
0.0
  9
$PUCSXDIR
 10
1.0
 20
0.0
 30
0.0
  9
$PUCSYDIR
 10
0.0
 20
1.0
 30
0.0
  9
$PUCSORTHOREF
  2

  9
$PUCSORTHOVIEW
 70
0
  9
$PUCSORGTOP
 10
0.0
 20
0.0
 30
0.0
  9
$PUCSORGBOTTOM
 10
0.0
 20
0.0
 30
0.0
  9
$PUCSORGLEFT
 10
0.0
 20
0.0
 30
0.0
  9
$PUCSORGRIGHT
 10
0.0
 20
0.0
 30
0.0
  9
$PUCSORGFRONT
 10
0.0
 20
0.0
 30
0.0
  9
$PUCSORGBACK
 10
0.0
 20
0.0
 30
0.0
  9
$USERI1
 70
0
  9
$USERI2
 70
0
  9
$USERI3
 70
0
  9
$USERI4
 70
0
  9
$USERI5
 70
0
  9
$USERR1
 40
0.0
  9
$USERR2
 40
0.0
  9
$USERR3
 40
0.0
  9
$USERR4
 40
0.0
  9
$USERR5
 40
0.0
  9
$WORLDVIEW
 70
1
  9
$SHADEDGE
 70
3
  9
$SHADEDIF
 70
70
  9
$TILEMODE
 70
1
  9
$MAXACTVP
 70
64
  9
$PINSBASE
 10
0.0
 20
0.0
 30
0.0
  9
$PLIMCHECK
 70
0
  9
$PEXTMIN
 10
1e+20
 20
1e+20
 30
1e+20
  9
$PEXTMAX
 10
-1e+20
 20
-1e+20
 30
-1e+20
  9
$PLIMMIN
 10
0.0
 20
0.0
  9
$PLIMMAX
 10
420.0
 20
297.0
  9
$UNITMODE
 70
0
  9
$VISRETAIN
 70
1
  9
$PLINEGEN
 70
0
  9
$PSLTSCALE
 70
1
  9
$TREEDEPTH
 70
3020
  9
$CMLSTYLE
  2
Standard
  9
$CMLJUST
 70
0
  9
$CMLSCALE
 40
20.0
  9
$PROXYGRAPHICS
 70
1
  9
$MEASUREMENT
 70
1
  9
$CELWEIGHT
370
-1
  9
$ENDCAPS
280
0
  9
$JOINSTYLE
280
0
  9
$LWDISPLAY
290
0
  9
$INSUNITS
 70
1
  9
$HYPERLINKBASE
  1

  9
$STYLESHEET
  1

  9
$XEDIT
290
1
  9
$CEPSNTYPE
380
0
  9
$PSTYLEMODE
290
1
  9
$FINGERPRINTGUID
  2
{903DC0A1-0151-4895-AA72-E15BD9FB6C52}
  9
$VERSIONGUID
  2
{AFDC4C99-2C16-4A5D-BCD1-D9B6ED5533D6}
  9
$EXTNAMES
290
1
  9
$PSVPSCALE
 40
0.0
  9
$OLESTARTUP
290
0
  9
$SORTENTS
280
127
  9
$INDEXCTL
280
0
  9
$HIDETEXT
280
1
  9
$XCLIPFRAME
280
1
  9
$HALOGAP
280
0
  9
$OBSCOLOR
 70
257
  9
$OBSLTYPE
280
0
  9
$INTERSECTIONDISPLAY
280
0
  9
$INTERSECTIONCOLOR
 70
257
  9
$DIMASSOC
280
2
  9
$PROJECTNAME
  1

  9
$CAMERADISPLAY
290
0
  9
$LENSLENGTH
 40
50.0
  9
$CAMERAHEIGHT
 40
0.0
  9
$STEPSPERSEC
 40
24.0
  9
$STEPSIZE
 40
100.0
  9
$3DDWFPREC
 40
2.0
  9
$PSOLWIDTH
 40
0.005
  9
$PSOLHEIGHT
 40
0.08
  9
$LOFTANG1
 40
1.570796326795
  9
$LOFTANG2
 40
1.570796326795
  9
$LOFTMAG1
 40
0.0
  9
$LOFTMAG2
 40
0.0
  9
$LOFTPARAM
 70
7
  9
$LOFTNORMALS
280
1
  9
$LATITUDE
 40
37.795
  9
$LONGITUDE
 40
-122.394
  9
$NORTHDIRECTION
 40
0.0
  9
$TIMEZONE
 70
-8000
  9
$LIGHTGLYPHDISPLAY
280
1
  9
$TILEMODELIGHTSYNCH
280
1
  9
$CMATERIAL
347
20
  9
$SOLIDHIST
280
0
  9
$SHOWHIST
280
1
  9
$DWFFRAME
280
2
  9
$DGNFRAME
280
2
  9
$REALWORLDSCALE
290
1
  9
$INTERFERECOLOR
 62
256
  9
$CSHADOW
280
0
  9
$SHADOWPLANELOCATION
 40
0.0
  0
ENDSEC
  0
SECTION
  2
CLASSES
  0
CLASS
  1
ACDBDICTIONARYWDFLT
  2
AcDbDictionaryWithDefault
  3
ObjectDBX Classes
 90
0
 91
0
280
0
281
0
  0
CLASS
  1
SUN
  2
AcDbSun
  3
SCENEOE
 90
1153
 91
0
280
0
281
0
  0
CLASS
  1
VISUALSTYLE
  2
AcDbVisualStyle
  3
ObjectDBX Classes
 90
4095
 91
0
280
0
281
0
  0
CLASS
  1
MATERIAL
  2
AcDbMaterial
  3
ObjectDBX Classes
 90
1153
 91
0
280
0
281
0
  0
CLASS
  1
SCALE
  2
AcDbScale
  3
ObjectDBX Classes
 90
1153
 91
0
280
0
281
0
  0
CLASS
  1
TABLESTYLE
  2
AcDbTableStyle
  3
ObjectDBX Classes
 90
4095
 91
0
280
0
281
0
  0
CLASS
  1
MLEADERSTYLE
  2
AcDbMLeaderStyle
  3
ACDB_MLEADERSTYLE_CLASS
 90
4095
 91
0
280
0
281
0
  0
CLASS
  1
DICTIONARYVAR
  2
AcDbDictionaryVar
  3
ObjectDBX Classes
 90
0
 91
0
280
0
281
0
  0
CLASS
  1
CELLSTYLEMAP
  2
AcDbCellStyleMap
  3
ObjectDBX Classes
 90
1152
 91
0
280
0
281
0
  0
CLASS
  1
MENTALRAYRENDERSETTINGS
  2
AcDbMentalRayRenderSettings
  3
SCENEOE
 90
1024
 91
0
280
0
281
0
  0
CLASS
  1
ACDBDETAILVIEWSTYLE
  2
AcDbDetailViewStyle
  3
ObjectDBX Classes
 90
1025
 91
0
280
0
281
0
  0
CLASS
  1
ACDBSECTIONVIEWSTYLE
  2
AcDbSectionViewStyle
  3
ObjectDBX Classes
 90
1025
 91
0
280
0
281
0
  0
CLASS
  1
RASTERVARIABLES
  2
AcDbRasterVariables
  3
ISM
 90
0
 91
0
280
0
281
0
  0
CLASS
  1
ACDBPLACEHOLDER
  2
AcDbPlaceHolder
  3
ObjectDBX Classes
 90
0
 91
0
280
0
281
0
  0
CLASS
  1
LAYOUT
  2
AcDbLayout
  3
ObjectDBX Classes
 90
0
 91
0
280
0
281
0
  0
ENDSEC
  0
SECTION
  2
TABLES
  0
TABLE
  2
VPORT
  5
8
330
0
100
AcDbSymbolTable
 70
1
  0
VPORT
  5
23
330
8
100
AcDbSymbolTableRecord
100
AcDbViewportTableRecord
  2
*Active
 70
0
 10
0.0
 20
0.0
 11
1.0
 21
1.0
 12
0.0
 22
0.0
 13
0.0
 23
0.0
 14
0.5
 24
0.5
 15
0.5
 25
0.5
 16
0.0
 26
0.0
 36
1.0
 17
0.0
 27
0.0
 37
0.0
 40
1000.0
 41
1.34
 42
50.0
 43
0.0
 44
0.0
 50
0.0
 51
0.0
 71
0
 72
1000
 73
1
 74
3
 75
0
 76
0
 77
0
 78
0
281
0
 65
0
146
0.0
  0
ENDTAB
  0
TABLE
  2
LTYPE
  5
2
330
0
100
AcDbSymbolTable
 70
3
  0
LTYPE
  5
24
330
2
100
AcDbSymbolTableRecord
100
AcDbLinetypeTableRecord
  2
ByBlock
 70
0
  3

 72
65
 73
0
 40
0.0
  0
LTYPE
  5
25
330
2
100
AcDbSymbolTableRecord
100
AcDbLinetypeTableRecord
  2
ByLayer
 70
0
  3

 72
65
 73
0
 40
0.0
  0
LTYPE
  5
26
330
2
100
AcDbSymbolTableRecord
100
AcDbLinetypeTableRecord
  2
Continuous
 70
0
  3

 72
65
 73
0
 40
0.0
  0
ENDTAB
  0
TABLE
  2
LAYER
  5
1
330
0
100
AcDbSymbolTable
 70
6
  0
LAYER
  5
27
330
1
100
AcDbSymbolTableRecord
100
AcDbLayerTableRecord
  2
0
 70
0
 62
7
  6
Continuous
370
-3
390
13
347
21
  0
LAYER
  5
28
330
1
100
AcDbSymbolTableRecord
100
AcDbLayerTableRecord
  2
Defpoints
 70
0
 62
7
  6
Continuous
290
0
370
-3
390
13
347
21
  0
LAYER
  5
2F
330
1
100
AcDbSymbolTableRecord
100
AcDbLayerTableRecord
  2
A-WALL
 70
0
 62
7
  6
Continuous
370
-3
390
13
347
21
  0
LAYER
  5
30
330
1
100
AcDbSymbolTableRecord
100
AcDbLayerTableRecord
  2
A-DOOR
 70
0
 62
1
  6
Continuous
370
-3
390
13
347
21
  0
LAYER
  5
31
330
1
100
AcDbSymbolTableRecord
100
AcDbLayerTableRecord
  2
A-GLAZ
 70
0
 62
5
  6
Continuous
370
-3
390
13
347
21
  0
LAYER
  5
32
330
1
100
AcDbSymbolTableRecord
100
AcDbLayerTableRecord
  2
A-STRS
 70
0
 62
3
  6
Continuous
370
-3
390
13
347
21
  0
ENDTAB
  0
TABLE
  2
STYLE
  5
5
330
0
100
AcDbSymbolTable
 70
1
  0
STYLE
  5
29
330
5
100
AcDbSymbolTableRecord
100
AcDbTextStyleTableRecord
  2
Standard
 70
0
 40
0.0
 41
1.0
 50
0.0
 71
0
 42
2.5
  3
txt
  4

  0
ENDTAB
  0
TABLE
  2
VIEW
  5
7
330
0
100
AcDbSymbolTable
 70
0
  0
ENDTAB
  0
TABLE
  2
UCS
  5
6
330
0
100
AcDbSymbolTable
 70
0
  0
ENDTAB
  0
TABLE
  2
APPID
  5
3
330
0
100
AcDbSymbolTable
 70
3
  0
APPID
  5
2A
330
3
100
AcDbSymbolTableRecord
100
AcDbRegAppTableRecord
  2
ACAD
 70
0
  0
APPID
  5
1A7
330
3
100
AcDbSymbolTableRecord
100
AcDbRegAppTableRecord
  2
HATCHBACKGROUNDCOLOR
 70
0
  0
APPID
  5
1A8
330
3
100
AcDbSymbolTableRecord
100
AcDbRegAppTableRecord
  2
EZDXF
 70
0
  0
ENDTAB
  0
TABLE
  2
DIMSTYLE
  5
4
330
0
100
AcDbSymbolTable
 70
1
100
AcDbDimStyleTable
  0
DIMSTYLE
105
2B
330
4
100
AcDbSymbolTableRecord
100
AcDbDimStyleTableRecord
  2
Standard
 70
0
 40
1.0
 41
2.5
 42
0.625
 43
3.75
 44
1.25
 45
0.0
 46
0.0
 47
0.0
 48
0.0
 49
2.5
140
2.5
141
2.5
142
0.0
143
0.03937007874
144
1.0
145
0.0
146
1.0
147
0.625
148
0.0
 69
0
 70
0
 71
0
 72
0
 73
0
 74
0
 75
0
 76
0
 77
1
 78
8
 79
3
170
0
171
3
172
1
173
0
174
0
175
0
176
0
177
0
178
0
179
2
271
2
272
2
273
2
274
3
275
0
276
0
277
2
278
44
279
0
280
0
281
0
282
0
283
0
284
8
285
0
286
0
288
0
289
3
290
0
371
-2
372
-2
  0
ENDTAB
  0
TABLE
  2
BLOCK_RECORD
  5
9
330
0
100
AcDbSymbolTable
 70
2
  0
BLOCK_RECORD
  5
17
330
9
100
AcDbSymbolTableRecord
100
AcDbBlockTableRecord
  2
*Model_Space
340
1A
 70
0
280
1
281
0
  0
BLOCK_RECORD
  5
1B
330
9
100
AcDbSymbolTableRecord
100
AcDbBlockTableRecord
  2
*Paper_Space
340
1E
 70
0
280
1
281
0
  0
ENDTAB
  0
ENDSEC
  0
SECTION
  2
BLOCKS
  0
BLOCK
  5
18
330
17
100
AcDbEntity
  8
0
100
AcDbBlockBegin
  2
*Model_Space
 70
0
 10
0.0
 20
0.0
 30
0.0
  3
*Model_Space
  1

  0
ENDBLK
  5
19
330
17
100
AcDbEntity
  8
0
100
AcDbBlockEnd
  0
BLOCK
  5
1C
330
1B
100
AcDbEntity
  8
0
100
AcDbBlockBegin
  2
*Paper_Space
 70
0
 10
0.0
 20
0.0
 30
0.0
  3
*Paper_Space
  1

  0
ENDBLK
  5
1D
330
1B
100
AcDbEntity
  8
0
100
AcDbBlockEnd
  0
ENDSEC
  0
SECTION
  2
ENTITIES
  0
LINE
  5
33
330
17
100
AcDbEntity
  8
A-WALL
100
AcDbLine
 10
841.599935
 20
426.399984
 30
0.0
 11
845.279948
 21
426.399984
 31
0.0
  0
LINE
  5
34
330
17
100
AcDbEntity
  8
A-WALL
100
AcDbLine
 10
766.079915
 20
422.559977
 30
0.0
 11
766.079915
 21
427.200033
 31
0.0
  0
LINE
  5
35
330
17
100
AcDbEntity
  8
A-WALL
100
AcDbLine
 10
830.559977
 20
422.559977
 30
0.0
 11
830.559977
 21
427.200033
 31
0.0
  0
LINE
  5
36
330
17
100
AcDbEntity
  8
A-WALL
100
AcDbLine
 10
695.999919
 20
444.639974
 30
0.0
 11
689.279948
 21
444.639974
 31
0.0
  0
LINE
  5
37
330
17
100
AcDbEntity
  8
A-WALL
100
AcDbLine
 10
695.999919
 20
484.159993
 30
0.0
 11
689.279948
 21
484.159993
 31
0.0
  0
LINE
  5
38
330
17
100
AcDbEntity
  8
A-WALL
100
AcDbLine
 10
695.999919
 20
297.76001
 30
0.0
 11
695.999919
 21
422.559977
 31
0.0
  0
LINE
  5
39
330
17
100
AcDbEntity
  8
A-WALL
100
AcDbLine
 10
751.039958
 20
397.599935
 30
0.0
 11
845.599935
 21
397.599935
 31
0.0
  0
LINE
  5
3A
330
17
100
AcDbEntity
  8
A-WALL
100
AcDbLine
 10
755.679932
 20
402.23999
 30
0.0
 11
841.119954
 21
402.23999
 31
0.0
  0
LINE
  5
3B
330
17
100
AcDbEntity
  8
A-WALL
100
AcDbLine
 10
1107.839925
 20
821.920003
 30
0.0
 11
1107.839925
 21
803.200033
 31
0.0
  0
LINE
  5
3C
330
17
100
AcDbEntity
  8
A-WALL
100
AcDbLine
 10
1107.839925
 20
691.840007
 30
0.0
 11
1107.839925
 21
664.320028
 31
0.0
  0
LINE
  5
3D
330
17
100
AcDbEntity
  8
A-WALL
100
AcDbLine
 10
1102.719971
 20
821.920003
 30
0.0
 11
1107.839925
 21
821.920003
 31
0.0
  0
LINE
  5
3E
330
17
100
AcDbEntity
  8
A-WALL
100
AcDbLine
 10
695.999919
 20
821.920003
 30
0.0
 11
702.559977
 21
821.920003
 31
0.0
  0
LINE
  5
3F
330
17
100
AcDbEntity
  8
A-WALL
100
AcDbLine
 10
777.599935
 20
821.920003
 30
0.0
 11
880.47998
 21
821.920003
 31
0.0
  0
LINE
  5
40
330
17
100
AcDbEntity
  8
A-WALL
100
AcDbLine
 10
885.119954
 20
821.920003
 30
0.0
 11
919.839925
 21
821.920003
 31
0.0
  0
LINE
  5
41
330
17
100
AcDbEntity
  8
A-WALL
100
AcDbLine
 10
1157.759928
 20
659.680013
 30
0.0
 11
1157.759928
 21
624.159993
 31
0.0
  0
LINE
  5
42
330
17
100
AcDbEntity
  8
A-WALL
100
AcDbLine
 10
1157.759928
 20
570.399984
 30
0.0
 11
1157.759928
 21
507.040039
 31
0.0
  0
LINE
  5
43
330
17
100
AcDbEntity
  8
A-WALL
100
AcDbLine
 10
895.519938
 20
297.76001
 30
0.0
 11
872.319987
 21
297.76001
 31
0.0
  0
LINE
  5
44
330
17
100
AcDbEntity
  8
A-WALL
100
AcDbLine
 10
926.399984
 20
297.76001
 30
0.0
 11
900.159993
 21
297.76001
 31
0.0
  0
LINE
  5
45
330
17
100
AcDbEntity
  8
A-WALL
100
AcDbLine
 10
926.399984
 20
291.040039
 30
0.0
 11
872.319987
 21
291.040039
 31
0.0
  0
LINE
  5
46
330
17
100
AcDbEntity
  8
A-WALL
100
AcDbLine
 10
1157.759928
 20
297.76001
 30
0.0
 11
1145.759928
 21
297.76001
 31
0.0
  0
LINE
  5
47
330
17
100
AcDbEntity
  8
A-WALL
100
AcDbLine
 10
1164.47998
 20
291.040039
 30
0.0
 11
1145.759928
 21
291.040039
 31
0.0
  0
LINE
  5
48
330
17
100
AcDbEntity
  8
A-WALL
100
AcDbLine
 10
841.119954
 20
499.200033
 30
0.0
 11
807.839925
 21
499.200033
 31
0.0
  0
LINE
  5
49
330
17
100
AcDbEntity
  8
A-WALL
100
AcDbLine
 10
803.199951
 20
499.200033
 30
0.0
 11
763.039958
 21
499.200033
 31
0.0
  0
LINE
  5
4A
330
17
100
AcDbEntity
  8
A-WALL
100
AcDbLine
 10
695.999919
 20
499.200033
 30
0.0
 11
695.999919
 21
620.47998
 31
0.0
  0
LINE
  5
4B
330
17
100
AcDbEntity
  8
A-WALL
100
AcDbLine
 10
695.999919
 20
625.119995
 30
0.0
 11
695.999919
 21
627.840007
 31
0.0
  0
LINE
  5
4C
330
17
100
AcDbEntity
  8
A-WALL
100
AcDbLine
 10
972.639974
 20
659.680013
 30
0.0
 11
900.159993
 21
659.680013
 31
0.0
  0
LINE
  5
4D
330
17
100
AcDbEntity
  8
A-WALL
100
AcDbLine
 10
924.639974
 20
821.920003
 30
0.0
 11
939.359945
 21
821.920003
 31
0.0
  0
LINE
  5
4E
330
17
100
AcDbEntity
  8
A-WALL
100
AcDbLine
 10
977.919922
 20
821.920003
 30
0.0
 11
1064.159993
 21
821.920003
 31
0.0
  0
LINE
  5
4F
330
17
100
AcDbEntity
  8
A-WALL
100
AcDbLine
 10
695.999919
 20
663.039998
 30
0.0
 11
695.999919
 21
740.320068
 31
0.0
  0
LINE
  5
50
330
17
100
AcDbEntity
  8
A-WALL
100
AcDbLine
 10
695.999919
 20
814.880046
 30
0.0
 11
695.999919
 21
821.920003
 31
0.0
  0
LINE
  5
51
330
17
100
AcDbEntity
  8
A-WALL
100
AcDbLine
 10
1157.759928
 20
507.040039
 30
0.0
 11
1137.919922
 21
507.040039
 31
0.0
  0
LINE
  5
52
330
17
100
AcDbEntity
  8
A-WALL
100
AcDbLine
 10
1133.279948
 20
507.040039
 30
0.0
 11
1130.079915
 21
507.040039
 31
0.0
  0
LINE
  5
53
330
17
100
AcDbEntity
  8
A-WALL
100
AcDbLine
 10
1157.759928
 20
502.399984
 30
0.0
 11
1157.759928
 21
485.76001
 31
0.0
  0
LINE
  5
54
330
17
100
AcDbEntity
  8
A-WALL
100
AcDbLine
 10
1164.47998
 20
589.119995
 30
0.0
 11
1164.47998
 21
485.76001
 31
0.0
  0
LINE
  5
55
330
17
100
AcDbEntity
  8
A-WALL
100
AcDbLine
 10
919.839925
 20
664.320028
 30
0.0
 11
895.519938
 21
664.320028
 31
0.0
  0
LINE
  5
56
330
17
100
AcDbEntity
  8
A-WALL
100
AcDbLine
 10
1157.759928
 20
448.47998
 30
0.0
 11
1157.759928
 21
346.399984
 31
0.0
  0
LINE
  5
57
330
17
100
AcDbEntity
  8
A-WALL
100
AcDbLine
 10
1157.759928
 20
309.119954
 30
0.0
 11
1157.759928
 21
297.76001
 31
0.0
  0
LINE
  5
58
330
17
100
AcDbEntity
  8
A-WALL
100
AcDbLine
 10
1164.47998
 20
448.47998
 30
0.0
 11
1164.47998
 21
346.399984
 31
0.0
  0
LINE
  5
59
330
17
100
AcDbEntity
  8
A-WALL
100
AcDbLine
 10
1164.47998
 20
309.119954
 30
0.0
 11
1164.47998
 21
291.040039
 31
0.0
  0
LINE
  5
5A
330
17
100
AcDbEntity
  8
A-WALL
100
AcDbLine
 10
991.199951
 20
659.680013
 30
0.0
 11
991.199951
 21
507.040039
 31
0.0
  0
LINE
  5
5B
330
17
100
AcDbEntity
  8
A-WALL
100
AcDbLine
 10
995.999919
 20
659.680013
 30
0.0
 11
995.999919
 21
507.040039
 31
0.0
  0
LINE
  5
5C
330
17
100
AcDbEntity
  8
A-WALL
100
AcDbLine
 10
991.199951
 20
507.040039
 30
0.0
 11
963.199951
 21
507.040039
 31
0.0
  0
LINE
  5
5D
330
17
100
AcDbEntity
  8
A-WALL
100
AcDbLine
 10
927.839925
 20
507.040039
 30
0.0
 11
900.159993
 21
507.040039
 31
0.0
  0
LINE
  5
5E
330
17
100
AcDbEntity
  8
A-WALL
100
AcDbLine
 10
927.839925
 20
502.399984
 30
0.0
 11
900.159993
 21
502.399984
 31
0.0
  0
LINE
  5
5F
330
17
100
AcDbEntity
  8
A-WALL
100
AcDbLine
 10
1157.759928
 20
659.680013
 30
0.0
 11
1034.879964
 21
659.680013
 31
0.0
  0
LINE
  5
60
330
17
100
AcDbEntity
  8
A-WALL
100
AcDbLine
 10
1030.23999
 20
659.680013
 30
0.0
 11
995.999919
 21
659.680013
 31
0.0
  0
LINE
  5
61
330
17
100
AcDbEntity
  8
A-WALL
100
AcDbLine
 10
991.199951
 20
659.680013
 30
0.0
 11
973.759928
 21
659.680013
 31
0.0
  0
LINE
  5
62
330
17
100
AcDbEntity
  8
A-WALL
100
AcDbLine
 10
1157.759928
 20
507.040039
 30
0.0
 11
1137.919922
 21
507.040039
 31
0.0
  0
LINE
  5
63
330
17
100
AcDbEntity
  8
A-WALL
100
AcDbLine
 10
1133.279948
 20
507.040039
 30
0.0
 11
1130.079915
 21
507.040039
 31
0.0
  0
LINE
  5
64
330
17
100
AcDbEntity
  8
A-WALL
100
AcDbLine
 10
1094.719971
 20
507.040039
 30
0.0
 11
995.999919
 21
507.040039
 31
0.0
  0
LINE
  5
65
330
17
100
AcDbEntity
  8
A-WALL
100
AcDbLine
 10
1157.759928
 20
502.399984
 30
0.0
 11
1130.079915
 21
502.399984
 31
0.0
  0
LINE
  5
66
330
17
100
AcDbEntity
  8
A-WALL
100
AcDbLine
 10
1094.719971
 20
502.399984
 30
0.0
 11
963.199951
 21
502.399984
 31
0.0
  0
LINE
  5
67
330
17
100
AcDbEntity
  8
A-WALL
100
AcDbLine
 10
751.039958
 20
397.599935
 30
0.0
 11
751.039958
 21
422.559977
 31
0.0
  0
LINE
  5
68
330
17
100
AcDbEntity
  8
A-WALL
100
AcDbLine
 10
755.679932
 20
402.23999
 30
0.0
 11
755.679932
 21
422.559977
 31
0.0
  0
LINE
  5
69
330
17
100
AcDbEntity
  8
A-WALL
100
AcDbLine
 10
751.039958
 20
422.559977
 30
0.0
 11
695.999919
 21
422.559977
 31
0.0
  0
LINE
  5
6A
330
17
100
AcDbEntity
  8
A-WALL
100
AcDbLine
 10
755.679932
 20
427.200033
 30
0.0
 11
695.999919
 21
427.200033
 31
0.0
  0
LINE
  5
6B
330
17
100
AcDbEntity
  8
A-WALL
100
AcDbLine
 10
845.759928
 20
427.200033
 30
0.0
 11
845.599935
 21
397.599935
 31
0.0
  0
LINE
  5
6C
330
17
100
AcDbEntity
  8
A-WALL
100
AcDbLine
 10
841.119954
 20
422.559977
 30
0.0
 11
841.119954
 21
402.23999
 31
0.0
  0
LINE
  5
6D
330
17
100
AcDbEntity
  8
A-WALL
100
AcDbLine
 10
809.919922
 20
297.76001
 30
0.0
 11
746.399984
 21
297.76001
 31
0.0
  0
LINE
  5
6E
330
17
100
AcDbEntity
  8
A-WALL
100
AcDbLine
 10
706.879964
 20
297.76001
 30
0.0
 11
695.999919
 21
297.76001
 31
0.0
  0
LINE
  5
6F
330
17
100
AcDbEntity
  8
A-WALL
100
AcDbLine
 10
809.919922
 20
291.040039
 30
0.0
 11
746.399984
 21
291.040039
 31
0.0
  0
LINE
  5
70
330
17
100
AcDbEntity
  8
A-WALL
100
AcDbLine
 10
706.879964
 20
291.040039
 30
0.0
 11
689.279948
 21
291.040039
 31
0.0
  0
LINE
  5
71
330
17
100
AcDbEntity
  8
A-WALL
100
AcDbLine
 10
841.119954
 20
620.47998
 30
0.0
 11
841.119954
 21
580.800008
 31
0.0
  0
LINE
  5
72
330
17
100
AcDbEntity
  8
A-WALL
100
AcDbLine
 10
841.119954
 20
545.439982
 30
0.0
 11
841.119954
 21
532.640015
 31
0.0
  0
LINE
  5
73
330
17
100
AcDbEntity
  8
A-WALL
100
AcDbLine
 10
841.119954
 20
528.0
 30
0.0
 11
841.119954
 21
499.200033
 31
0.0
  0
LINE
  5
74
330
17
100
AcDbEntity
  8
A-WALL
100
AcDbLine
 10
845.759928
 20
675.839966
 30
0.0
 11
845.759928
 21
580.800008
 31
0.0
  0
LINE
  5
75
330
17
100
AcDbEntity
  8
A-WALL
100
AcDbLine
 10
845.759928
 20
545.439982
 30
0.0
 11
845.759928
 21
494.559977
 31
0.0
  0
LINE
  5
76
330
17
100
AcDbEntity
  8
A-WALL
100
AcDbLine
 10
895.519938
 20
297.76001
 30
0.0
 11
895.519938
 21
458.720052
 31
0.0
  0
LINE
  5
77
330
17
100
AcDbEntity
  8
A-WALL
100
AcDbLine
 10
895.519938
 20
494.079997
 30
0.0
 11
895.519938
 21
610.720011
 31
0.0
  0
LINE
  5
78
330
17
100
AcDbEntity
  8
A-WALL
100
AcDbLine
 10
900.159993
 20
297.76001
 30
0.0
 11
900.159993
 21
458.720052
 31
0.0
  0
LINE
  5
79
330
17
100
AcDbEntity
  8
A-WALL
100
AcDbLine
 10
900.159993
 20
494.079997
 30
0.0
 11
900.159993
 21
502.399984
 31
0.0
  0
LINE
  5
7A
330
17
100
AcDbEntity
  8
A-WALL
100
AcDbLine
 10
845.759928
 20
718.880046
 30
0.0
 11
845.759928
 21
735.840007
 31
0.0
  0
LINE
  5
7B
330
17
100
AcDbEntity
  8
A-WALL
100
AcDbLine
 10
845.759928
 20
800.320068
 30
0.0
 11
845.759928
 21
821.920003
 31
0.0
  0
LINE
  5
7C
330
17
100
AcDbEntity
  8
A-WALL
100
AcDbLine
 10
895.519938
 20
610.720011
 30
0.0
 11
895.519938
 21
664.320028
 31
0.0
  0
LINE
  5
7D
330
17
100
AcDbEntity
  8
A-WALL
100
AcDbLine
 10
919.839925
 20
703.680013
 30
0.0
 11
919.839925
 21
714.240072
 31
0.0
  0
LINE
  5
7E
330
17
100
AcDbEntity
  8
A-WALL
100
AcDbLine
 10
900.159993
 20
507.040039
 30
0.0
 11
900.159993
 21
659.680013
 31
0.0
  0
LINE
  5
7F
330
17
100
AcDbEntity
  8
A-WALL
100
AcDbLine
 10
924.639974
 20
664.320028
 30
0.0
 11
924.639974
 21
668.320028
 31
0.0
  0
LINE
  5
80
330
17
100
AcDbEntity
  8
A-WALL
100
AcDbLine
 10
924.639974
 20
703.680013
 30
0.0
 11
924.639974
 21
718.880046
 31
0.0
  0
LINE
  5
81
330
17
100
AcDbEntity
  8
A-WALL
100
AcDbLine
 10
924.639974
 20
821.920003
 30
0.0
 11
924.639974
 21
800.320068
 31
0.0
  0
LINE
  5
82
330
17
100
AcDbEntity
  8
A-WALL
100
AcDbLine
 10
924.639974
 20
735.840007
 30
0.0
 11
924.639974
 21
718.880046
 31
0.0
  0
LINE
  5
83
330
17
100
AcDbEntity
  8
A-WALL
100
AcDbLine
 10
919.839925
 20
821.920003
 30
0.0
 11
919.839925
 21
800.320068
 31
0.0
  0
LINE
  5
84
330
17
100
AcDbEntity
  8
A-WALL
100
AcDbLine
 10
919.839925
 20
735.840007
 30
0.0
 11
919.839925
 21
718.880046
 31
0.0
  0
LINE
  5
85
330
17
100
AcDbEntity
  8
A-WALL
100
AcDbLine
 10
919.839925
 20
714.240072
 30
0.0
 11
845.759928
 21
714.240072
 31
0.0
  0
LINE
  5
86
330
17
100
AcDbEntity
  8
A-WALL
100
AcDbLine
 10
924.639974
 20
718.880046
 30
0.0
 11
924.639974
 21
718.880046
 31
0.0
  0
LINE
  5
87
330
17
100
AcDbEntity
  8
A-WALL
100
AcDbLine
 10
919.839925
 20
718.880046
 30
0.0
 11
885.119954
 21
718.880046
 31
0.0
  0
LINE
  5
88
330
17
100
AcDbEntity
  8
A-WALL
100
AcDbLine
 10
880.47998
 20
718.880046
 30
0.0
 11
845.759928
 21
718.880046
 31
0.0
  0
LINE
  5
89
330
17
100
AcDbEntity
  8
A-WALL
100
AcDbLine
 10
755.679932
 20
427.200033
 30
0.0
 11
766.079915
 21
427.200033
 31
0.0
  0
LINE
  5
8A
330
17
100
AcDbEntity
  8
A-WALL
100
AcDbLine
 10
755.679932
 20
422.559977
 30
0.0
 11
766.079915
 21
422.559977
 31
0.0
  0
LINE
  5
8B
330
17
100
AcDbEntity
  8
A-WALL
100
AcDbLine
 10
830.559977
 20
427.200033
 30
0.0
 11
845.759928
 21
427.200033
 31
0.0
  0
LINE
  5
8C
330
17
100
AcDbEntity
  8
A-WALL
100
AcDbLine
 10
830.559977
 20
422.559977
 30
0.0
 11
841.119954
 21
422.559977
 31
0.0
  0
LINE
  5
8D
330
17
100
AcDbEntity
  8
A-WALL
100
AcDbLine
 10
695.999919
 20
625.119995
 30
0.0
 11
841.119954
 21
625.119995
 31
0.0
  0
LINE
  5
8E
330
17
100
AcDbEntity
  8
A-WALL
100
AcDbLine
 10
695.999919
 20
620.47998
 30
0.0
 11
758.399984
 21
620.47998
 31
0.0
  0
LINE
  5
8F
330
17
100
AcDbEntity
  8
A-WALL
100
AcDbLine
 10
763.039958
 20
620.47998
 30
0.0
 11
841.119954
 21
620.47998
 31
0.0
  0
LINE
  5
90
330
17
100
AcDbEntity
  8
A-WALL
100
AcDbLine
 10
845.759928
 20
675.839966
 30
0.0
 11
845.759928
 21
675.839966
 31
0.0
  0
LINE
  5
91
330
17
100
AcDbEntity
  8
A-WALL
100
AcDbLine
 10
845.759928
 20
711.200033
 30
0.0
 11
845.759928
 21
714.240072
 31
0.0
  0
LINE
  5
92
330
17
100
AcDbEntity
  8
A-WALL
100
AcDbLine
 10
841.119954
 20
625.119995
 30
0.0
 11
841.119954
 21
675.839966
 31
0.0
  0
LINE
  5
93
330
17
100
AcDbEntity
  8
A-WALL
100
AcDbLine
 10
841.119954
 20
711.200033
 30
0.0
 11
841.119954
 21
735.840007
 31
0.0
  0
LINE
  5
94
330
17
100
AcDbEntity
  8
A-WALL
100
AcDbLine
 10
841.119954
 20
800.320068
 30
0.0
 11
841.119954
 21
821.920003
 31
0.0
  0
LINE
  5
95
330
17
100
AcDbEntity
  8
A-WALL
100
AcDbLine
 10
803.199951
 20
499.200033
 30
0.0
 11
803.199951
 21
532.640015
 31
0.0
  0
LINE
  5
96
330
17
100
AcDbEntity
  8
A-WALL
100
AcDbLine
 10
807.839925
 20
499.200033
 30
0.0
 11
807.839925
 21
528.0
 31
0.0
  0
LINE
  5
97
330
17
100
AcDbEntity
  8
A-WALL
100
AcDbLine
 10
803.199951
 20
532.640015
 30
0.0
 11
811.519938
 21
532.640015
 31
0.0
  0
LINE
  5
98
330
17
100
AcDbEntity
  8
A-WALL
100
AcDbLine
 10
838.559977
 20
532.640015
 30
0.0
 11
841.119954
 21
532.640015
 31
0.0
  0
LINE
  5
99
330
17
100
AcDbEntity
  8
A-WALL
100
AcDbLine
 10
807.839925
 20
528.0
 30
0.0
 11
811.519938
 21
528.0
 31
0.0
  0
LINE
  5
9A
330
17
100
AcDbEntity
  8
A-WALL
100
AcDbLine
 10
838.559977
 20
528.0
 30
0.0
 11
841.119954
 21
528.0
 31
0.0
  0
LINE
  5
9B
330
17
100
AcDbEntity
  8
A-WALL
100
AcDbLine
 10
695.999919
 20
427.200033
 30
0.0
 11
695.999919
 21
444.639974
 31
0.0
  0
LINE
  5
9C
330
17
100
AcDbEntity
  8
A-WALL
100
AcDbLine
 10
695.999919
 20
484.159993
 30
0.0
 11
695.999919
 21
494.559977
 31
0.0
  0
LINE
  5
9D
330
17
100
AcDbEntity
  8
A-WALL
100
AcDbLine
 10
924.639974
 20
664.320028
 30
0.0
 11
1107.839925
 21
664.320028
 31
0.0
  0
LINE
  5
9E
330
17
100
AcDbEntity
  8
A-WALL
100
AcDbLine
 10
885.119954
 20
821.920003
 30
0.0
 11
885.119954
 21
718.880046
 31
0.0
  0
LINE
  5
9F
330
17
100
AcDbEntity
  8
A-WALL
100
AcDbLine
 10
880.47998
 20
821.920003
 30
0.0
 11
880.47998
 21
718.880046
 31
0.0
  0
LINE
  5
A0
330
17
100
AcDbEntity
  8
A-WALL
100
AcDbLine
 10
1030.23999
 20
659.680013
 30
0.0
 11
1030.23999
 21
605.599976
 31
0.0
  0
LINE
  5
A1
330
17
100
AcDbEntity
  8
A-WALL
100
AcDbLine
 10
1034.879964
 20
659.680013
 30
0.0
 11
1034.879964
 21
605.599976
 31
0.0
  0
LINE
  5
A2
330
17
100
AcDbEntity
  8
A-WALL
100
AcDbLine
 10
1157.759928
 20
575.039998
 30
0.0
 11
1133.279948
 21
575.039998
 31
0.0
  0
LINE
  5
A3
330
17
100
AcDbEntity
  8
A-WALL
100
AcDbLine
 10
1157.759928
 20
570.399984
 30
0.0
 11
1137.919922
 21
570.399984
 31
0.0
  0
LINE
  5
A4
330
17
100
AcDbEntity
  8
A-WALL
100
AcDbLine
 10
1133.279948
 20
575.039998
 30
0.0
 11
1133.279948
 21
563.840007
 31
0.0
  0
LINE
  5
A5
330
17
100
AcDbEntity
  8
A-WALL
100
AcDbLine
 10
1133.279948
 20
511.840007
 30
0.0
 11
1133.279948
 21
507.040039
 31
0.0
  0
LINE
  5
A6
330
17
100
AcDbEntity
  8
A-WALL
100
AcDbLine
 10
1137.919922
 20
570.399984
 30
0.0
 11
1137.919922
 21
563.840007
 31
0.0
  0
LINE
  5
A7
330
17
100
AcDbEntity
  8
A-WALL
100
AcDbLine
 10
1137.919922
 20
511.840007
 30
0.0
 11
1137.919922
 21
507.040039
 31
0.0
  0
LINE
  5
A8
330
17
100
AcDbEntity
  8
A-WALL
100
AcDbLine
 10
1034.879964
 20
605.599976
 30
0.0
 11
1030.23999
 21
605.599976
 31
0.0
  0
LINE
  5
A9
330
17
100
AcDbEntity
  8
A-WALL
100
AcDbLine
 10
758.399984
 20
499.200033
 30
0.0
 11
744.959961
 21
499.200033
 31
0.0
  0
LINE
  5
AA
330
17
100
AcDbEntity
  8
A-WALL
100
AcDbLine
 10
709.599935
 20
499.200033
 30
0.0
 11
695.999919
 21
499.200033
 31
0.0
  0
LINE
  5
AB
330
17
100
AcDbEntity
  8
A-WALL
100
AcDbLine
 10
845.759928
 20
494.559977
 30
0.0
 11
744.959961
 21
494.559977
 31
0.0
  0
LINE
  5
AC
330
17
100
AcDbEntity
  8
A-WALL
100
AcDbLine
 10
709.599935
 20
494.559977
 30
0.0
 11
695.999919
 21
494.559977
 31
0.0
  0
LINE
  5
AD
330
17
100
AcDbEntity
  8
A-WALL
100
AcDbLine
 10
758.399984
 20
499.52002
 30
0.0
 11
758.399984
 21
545.439982
 31
0.0
  0
LINE
  5
AE
330
17
100
AcDbEntity
  8
A-WALL
100
AcDbLine
 10
758.399984
 20
580.800008
 30
0.0
 11
758.399984
 21
620.47998
 31
0.0
  0
LINE
  5
AF
330
17
100
AcDbEntity
  8
A-WALL
100
AcDbLine
 10
763.039958
 20
499.200033
 30
0.0
 11
763.039958
 21
545.439982
 31
0.0
  0
LINE
  5
B0
330
17
100
AcDbEntity
  8
A-WALL
100
AcDbLine
 10
763.039958
 20
580.800008
 30
0.0
 11
763.039958
 21
620.47998
 31
0.0
  0
LINE
  5
B1
330
17
100
AcDbEntity
  8
A-WALL
100
AcDbLine
 10
1114.559977
 20
666.400024
 30
0.0
 11
1164.47998
 21
666.400024
 31
0.0
  0
LINE
  5
B2
330
17
100
AcDbEntity
  8
A-WALL
100
AcDbLine
 10
1114.559977
 20
828.640055
 30
0.0
 11
1114.559977
 21
803.200033
 31
0.0
  0
LINE
  5
B3
330
17
100
AcDbEntity
  8
A-WALL
100
AcDbLine
 10
1114.559977
 20
691.840007
 30
0.0
 11
1114.559977
 21
666.400024
 31
0.0
  0
LINE
  5
B4
330
17
100
AcDbEntity
  8
A-WALL
100
AcDbLine
 10
1102.719971
 20
828.640055
 30
0.0
 11
1114.559977
 21
828.640055
 31
0.0
  0
LINE
  5
B5
330
17
100
AcDbEntity
  8
A-WALL
100
AcDbLine
 10
689.279948
 20
828.640055
 30
0.0
 11
702.559977
 21
828.640055
 31
0.0
  0
LINE
  5
B6
330
17
100
AcDbEntity
  8
A-WALL
100
AcDbLine
 10
1164.47998
 20
666.400024
 30
0.0
 11
1164.47998
 21
624.159993
 31
0.0
  0
LINE
  5
B7
330
17
100
AcDbEntity
  8
A-WALL
100
AcDbLine
 10
777.599935
 20
828.640055
 30
0.0
 11
939.359945
 21
828.640055
 31
0.0
  0
LINE
  5
B8
330
17
100
AcDbEntity
  8
A-WALL
100
AcDbLine
 10
977.919922
 20
828.640055
 30
0.0
 11
1064.159993
 21
828.640055
 31
0.0
  0
LINE
  5
B9
330
17
100
AcDbEntity
  8
A-WALL
100
AcDbLine
 10
689.279948
 20
814.880046
 30
0.0
 11
689.279948
 21
828.640055
 31
0.0
  0
LINE
  5
BA
330
17
100
AcDbEntity
  8
A-WALL
100
AcDbLine
 10
689.279948
 20
814.880046
 30
0.0
 11
689.279948
 21
828.640055
 31
0.0
  0
LINE
  5
BB
330
17
100
AcDbEntity
  8
A-WALL
100
AcDbLine
 10
689.279948
 20
663.039998
 30
0.0
 11
689.279948
 21
740.320068
 31
0.0
  0
LINE
  5
BC
330
17
100
AcDbEntity
  8
A-WALL
100
AcDbLine
 10
689.279948
 20
291.040039
 30
0.0
 11
689.279948
 21
444.639974
 31
0.0
  0
LINE
  5
BD
330
17
100
AcDbEntity
  8
A-WALL
100
AcDbLine
 10
689.279948
 20
484.159993
 30
0.0
 11
689.279948
 21
627.840007
 31
0.0
  0
LINE
  5
BE
330
17
100
AcDbEntity
  8
A-WALL
100
AcDbLine
 10
923.999919
 20
822.400065
 30
0.0
 11
923.999919
 21
714.720052
 31
0.0
  0
LINE
  5
BF
330
17
100
AcDbEntity
  8
A-WALL
100
AcDbLine
 10
923.999919
 20
714.720052
 30
0.0
 11
923.999919
 21
663.839966
 31
0.0
  0
LINE
  5
C0
330
17
100
AcDbEntity
  8
A-WALL
100
AcDbLine
 10
923.999919
 20
663.839966
 30
0.0
 11
923.999919
 21
822.400065
 31
0.0
  0
LINE
  5
C1
330
17
100
AcDbEntity
  8
A-WALL
100
AcDbLine
 10
845.279948
 20
671.519979
 30
0.0
 11
695.519938
 21
675.519979
 31
0.0
  0
LINE
  5
C2
330
17
100
AcDbEntity
  8
A-WALL
100
AcDbLine
 10
695.519938
 20
675.519979
 30
0.0
 11
841.599935
 21
671.519979
 31
0.0
  0
LINE
  5
C3
330
17
100
AcDbEntity
  8
A-WALL
100
AcDbLine
 10
1088.959961
 20
506.559977
 30
0.0
 11
1137.439941
 21
506.559977
 31
0.0
  0
LINE
  5
C4
330
17
100
AcDbEntity
  8
A-WALL
100
AcDbLine
 10
1158.239909
 20
589.119995
 30
0.0
 11
1158.239909
 21
574.559977
 31
0.0
  0
LINE
  5
C5
330
17
100
AcDbEntity
  8
A-WALL
100
AcDbLine
 10
689.759928
 20
444.639974
 30
0.0
 11
689.759928
 21
484.159993
 31
0.0
  0
LINE
  5
C6
330
17
100
AcDbEntity
  8
A-WALL
100
AcDbLine
 10
750.559977
 20
495.040039
 30
0.0
 11
704.639974
 21
495.040039
 31
0.0
  0
LINE
  5
C7
330
17
100
AcDbEntity
  8
A-WALL
100
AcDbLine
 10
845.279948
 20
718.400065
 30
0.0
 11
845.279948
 21
821.920003
 31
0.0
  0
LINE
  5
C8
330
17
100
AcDbEntity
  8
A-WALL
100
AcDbLine
 10
845.279948
 20
800.320068
 30
0.0
 11
845.279948
 21
735.840007
 31
0.0
  0
LINE
  5
C9
330
17
100
AcDbEntity
  8
A-WALL
100
AcDbLine
 10
1084.959961
 20
606.079997
 30
0.0
 11
1034.399984
 21
606.079997
 31
0.0
  0
LINE
  5
CA
330
17
100
AcDbEntity
  8
A-WALL
100
AcDbLine
 10
1084.959961
 20
610.720011
 30
0.0
 11
1034.399984
 21
610.720011
 31
0.0
  0
LINE
  5
CB
330
17
100
AcDbEntity
  8
A-WALL
100
AcDbLine
 10
780.319987
 20
821.280029
 30
0.0
 11
700.159993
 21
821.280029
 31
0.0
  0
LINE
  5
CC
330
17
100
AcDbEntity
  8
A-WALL
100
AcDbLine
 10
780.319987
 20
829.76001
 30
0.0
 11
700.159993
 21
829.76001
 31
0.0
  0
LINE
  5
CD
330
17
100
AcDbEntity
  8
A-WALL
100
AcDbLine
 10
751.007213
 20
404.495621
 30
0.0
 11
697.470172
 21
394.514108
 31
0.0
  0
LINE
  5
CE
330
17
100
AcDbEntity
  8
A-WALL
100
AcDbLine
 10
749.53696
 20
412.381497
 30
0.0
 11
695.999919
 21
402.399984
 31
0.0
  0
LINE
  5
CF
330
17
100
AcDbEntity
  8
A-WALL
100
AcDbLine
 10
1084.959961
 20
606.079997
 30
0.0
 11
1084.959961
 21
659.680013
 31
0.0
  0
LINE
  5
D0
330
17
100
AcDbEntity
  8
A-WALL
100
AcDbLine
 10
1089.599935
 20
606.079997
 30
0.0
 11
1089.599935
 21
659.680013
 31
0.0
  0
LINE
  5
D1
330
17
100
AcDbEntity
  8
A-WALL
100
AcDbLine
 10
1083.359945
 20
297.76001
 30
0.0
 11
988.799967
 21
297.76001
 31
0.0
  0
LINE
  5
D2
330
17
100
AcDbEntity
  8
A-WALL
100
AcDbLine
 10
1083.359945
 20
291.040039
 30
0.0
 11
988.799967
 21
291.040039
 31
0.0
  0
ARC
  5
D3
330
17
100
AcDbEntity
  8
A-DOOR
100
AcDbCircle
 10
840.8309783143445
 20
676.7298192494649
 30
0.0
 40
33.58919127399999
100
AcDbArc
 50
80.25268612650937
 51
179.88042252593937
  0
ARC
  5
D4
330
17
100
AcDbEntity
  8
A-DOOR
100
AcDbCircle
 10
892.444235365042
 20
497.3057112971816
 30
0.0
 40
42.14840208100891
100
AcDbArc
 50
-79.49881449705732
 51
-5.74082339806261
  0
ARC
  5
D5
330
17
100
AcDbEntity
  8
A-DOOR
100
AcDbCircle
 10
966.5086802219228
 20
499.25131151836956
 30
0.0
 40
42.23160374976555
100
AcDbArc
 50
95.8436089588243
 51
169.4223603662085
  0
ARC
  5
D6
330
17
100
AcDbEntity
  8
A-DOOR
100
AcDbCircle
 10
916.7756869322403
 20
665.0298977623528
 30
0.0
 40
42.23356708618283
100
AcDbArc
 50
5.830037942648822
 51
79.31745039989299
  0
ARC
  5
D7
330
17
100
AcDbEntity
  8
A-DOOR
100
AcDbCircle
 10
696.9136281262572
 20
441.36295517452993
 30
0.0
 40
46.23990549755195
100
AcDbArc
 50
99.4552283342684
 51
174.70466022352232
  0
ARC
  5
D8
330
17
100
AcDbEntity
  8
A-DOOR
100
AcDbCircle
 10
706.276971833308
 20
491.3531649662146
 30
0.0
 40
42.27685960984745
100
AcDbArc
 50
10.651244453896998
 51
84.14503429377167
  0
ARC
  5
D9
330
17
100
AcDbEntity
  8
A-DOOR
100
AcDbCircle
 10
766.1876348360956
 20
584.0338879071002
 30
0.0
 40
42.15668420138947
100
AcDbArc
 50
-174.23600475412584
 51
-100.59478450579914
  0
ARC
  5
DA
330
17
100
AcDbEntity
  8
A-DOOR
100
AcDbCircle
 10
769.5901180938831
 20
517.3330495219559
 30
0.0
 40
21.156533561080384
100
AcDbArc
 50
-23.20641778296225
 51
34.64369915509661
  0
LINE
  5
DB
330
17
100
AcDbEntity
  8
A-GLAZ
100
AcDbLine
 10
1114.079915
 20
665.919963
 30
0.0
 11
1164.0
 21
665.919963
 31
0.0
  0
LINE
  5
DC
330
17
100
AcDbEntity
  8
A-GLAZ
100
AcDbLine
 10
1108.319987
 20
660.159993
 30
0.0
 11
1158.239909
 21
660.159993
 31
0.0
  0
LINE
  5
DD
330
17
100
AcDbEntity
  8
A-GLAZ
100
AcDbLine
 10
695.519938
 20
297.279948
 30
0.0
 11
695.519938
 21
322.23999
 31
0.0
  0
LINE
  5
DE
330
17
100
AcDbEntity
  8
A-GLAZ
100
AcDbLine
 10
695.519938
 20
322.23999
 30
0.0
 11
695.519938
 21
423.040039
 31
0.0
  0
LINE
  5
DF
330
17
100
AcDbEntity
  8
A-GLAZ
100
AcDbLine
 10
751.519938
 20
398.079997
 30
0.0
 11
845.119954
 21
398.079997
 31
0.0
  0
LINE
  5
E0
330
17
100
AcDbEntity
  8
A-GLAZ
100
AcDbLine
 10
755.199951
 20
401.76001
 30
0.0
 11
841.599935
 21
401.76001
 31
0.0
  0
LINE
  5
E1
330
17
100
AcDbEntity
  8
A-GLAZ
100
AcDbLine
 10
1114.079915
 20
828.160075
 30
0.0
 11
1114.079915
 21
803.200033
 31
0.0
  0
LINE
  5
E2
330
17
100
AcDbEntity
  8
A-GLAZ
100
AcDbLine
 10
1114.079915
 20
691.840007
 30
0.0
 11
1114.079915
 21
665.919963
 31
0.0
  0
LINE
  5
E3
330
17
100
AcDbEntity
  8
A-GLAZ
100
AcDbLine
 10
1108.319987
 20
822.400065
 30
0.0
 11
1108.319987
 21
803.200033
 31
0.0
  0
LINE
  5
E4
330
17
100
AcDbEntity
  8
A-GLAZ
100
AcDbLine
 10
1108.319987
 20
691.840007
 30
0.0
 11
1108.319987
 21
663.839966
 31
0.0
  0
LINE
  5
E5
330
17
100
AcDbEntity
  8
A-GLAZ
100
AcDbLine
 10
777.599935
 20
822.400065
 30
0.0
 11
880.959961
 21
822.400065
 31
0.0
  0
LINE
  5
E6
330
17
100
AcDbEntity
  8
A-GLAZ
100
AcDbLine
 10
884.639974
 20
822.400065
 30
0.0
 11
920.47998
 21
822.400065
 31
0.0
  0
LINE
  5
E7
330
17
100
AcDbEntity
  8
A-GLAZ
100
AcDbLine
 10
1164.0
 20
665.919963
 30
0.0
 11
1164.0
 21
624.159993
 31
0.0
  0
LINE
  5
E8
330
17
100
AcDbEntity
  8
A-GLAZ
100
AcDbLine
 10
1164.0
 20
589.119995
 30
0.0
 11
1164.0
 21
485.76001
 31
0.0
  0
LINE
  5
E9
330
17
100
AcDbEntity
  8
A-GLAZ
100
AcDbLine
 10
1158.239909
 20
660.159993
 30
0.0
 11
1158.239909
 21
624.159993
 31
0.0
  0
LINE
  5
EA
330
17
100
AcDbEntity
  8
A-GLAZ
100
AcDbLine
 10
1158.239909
 20
570.880005
 30
0.0
 11
1158.239909
 21
506.559977
 31
0.0
  0
LINE
  5
EB
330
17
100
AcDbEntity
  8
A-GLAZ
100
AcDbLine
 10
895.999919
 20
297.279948
 30
0.0
 11
872.319987
 21
297.279948
 31
0.0
  0
LINE
  5
EC
330
17
100
AcDbEntity
  8
A-GLAZ
100
AcDbLine
 10
926.399984
 20
297.279948
 30
0.0
 11
899.679932
 21
297.279948
 31
0.0
  0
LINE
  5
ED
330
17
100
AcDbEntity
  8
A-GLAZ
100
AcDbLine
 10
926.399984
 20
291.52002
 30
0.0
 11
872.319987
 21
291.52002
 31
0.0
  0
LINE
  5
EE
330
17
100
AcDbEntity
  8
A-GLAZ
100
AcDbLine
 10
1083.359945
 20
297.279948
 30
0.0
 11
988.799967
 21
297.279948
 31
0.0
  0
LINE
  5
EF
330
17
100
AcDbEntity
  8
A-GLAZ
100
AcDbLine
 10
1164.0
 20
291.52002
 30
0.0
 11
1145.759928
 21
291.52002
 31
0.0
  0
LINE
  5
F0
330
17
100
AcDbEntity
  8
A-GLAZ
100
AcDbLine
 10
1083.359945
 20
291.52002
 30
0.0
 11
988.799967
 21
291.52002
 31
0.0
  0
LINE
  5
F1
330
17
100
AcDbEntity
  8
A-GLAZ
100
AcDbLine
 10
695.519938
 20
498.720052
 30
0.0
 11
695.519938
 21
627.840007
 31
0.0
  0
LINE
  5
F2
330
17
100
AcDbEntity
  8
A-GLAZ
100
AcDbLine
 10
1108.319987
 20
660.159993
 30
0.0
 11
1034.399984
 21
660.159993
 31
0.0
  0
LINE
  5
F3
330
17
100
AcDbEntity
  8
A-GLAZ
100
AcDbLine
 10
1030.719971
 20
660.159993
 30
0.0
 11
995.359945
 21
660.159993
 31
0.0
  0
LINE
  5
F4
330
17
100
AcDbEntity
  8
A-GLAZ
100
AcDbLine
 10
991.839925
 20
660.159993
 30
0.0
 11
899.679932
 21
660.159993
 31
0.0
  0
LINE
  5
F5
330
17
100
AcDbEntity
  8
A-GLAZ
100
AcDbLine
 10
977.919922
 20
822.400065
 30
0.0
 11
1064.159993
 21
822.400065
 31
0.0
  0
LINE
  5
F6
330
17
100
AcDbEntity
  8
A-GLAZ
100
AcDbLine
 10
977.919922
 20
828.160075
 30
0.0
 11
1064.159993
 21
828.160075
 31
0.0
  0
LINE
  5
F7
330
17
100
AcDbEntity
  8
A-GLAZ
100
AcDbLine
 10
695.519938
 20
663.039998
 30
0.0
 11
695.519938
 21
740.320068
 31
0.0
  0
LINE
  5
F8
330
17
100
AcDbEntity
  8
A-GLAZ
100
AcDbLine
 10
1158.239909
 20
502.880046
 30
0.0
 11
1158.239909
 21
485.76001
 31
0.0
  0
LINE
  5
F9
330
17
100
AcDbEntity
  8
A-GLAZ
100
AcDbLine
 10
920.47998
 20
714.720052
 30
0.0
 11
845.279948
 21
714.720052
 31
0.0
  0
LINE
  5
FA
330
17
100
AcDbEntity
  8
A-GLAZ
100
AcDbLine
 10
920.47998
 20
718.400065
 30
0.0
 11
884.639974
 21
718.400065
 31
0.0
  0
LINE
  5
FB
330
17
100
AcDbEntity
  8
A-GLAZ
100
AcDbLine
 10
880.959961
 20
718.400065
 30
0.0
 11
845.279948
 21
718.400065
 31
0.0
  0
LINE
  5
FC
330
17
100
AcDbEntity
  8
A-GLAZ
100
AcDbLine
 10
689.759928
 20
663.039998
 30
0.0
 11
689.759928
 21
740.320068
 31
0.0
  0
LINE
  5
FD
330
17
100
AcDbEntity
  8
A-GLAZ
100
AcDbLine
 10
1158.239909
 20
448.47998
 30
0.0
 11
1158.239909
 21
346.399984
 31
0.0
  0
LINE
  5
FE
330
17
100
AcDbEntity
  8
A-GLAZ
100
AcDbLine
 10
1164.0
 20
448.47998
 30
0.0
 11
1164.0
 21
346.399984
 31
0.0
  0
LINE
  5
FF
330
17
100
AcDbEntity
  8
A-GLAZ
100
AcDbLine
 10
1164.0
 20
309.119954
 30
0.0
 11
1164.0
 21
291.52002
 31
0.0
  0
LINE
  5
100
330
17
100
AcDbEntity
  8
A-GLAZ
100
AcDbLine
 10
991.839925
 20
506.559977
 30
0.0
 11
963.199951
 21
506.559977
 31
0.0
  0
LINE
  5
101
330
17
100
AcDbEntity
  8
A-GLAZ
100
AcDbLine
 10
927.839925
 20
506.559977
 30
0.0
 11
899.679932
 21
506.559977
 31
0.0
  0
LINE
  5
102
330
17
100
AcDbEntity
  8
A-GLAZ
100
AcDbLine
 10
927.839925
 20
502.880046
 30
0.0
 11
899.679932
 21
502.880046
 31
0.0
  0
LINE
  5
103
330
17
100
AcDbEntity
  8
A-GLAZ
100
AcDbLine
 10
1158.239909
 20
506.559977
 30
0.0
 11
1137.439941
 21
506.559977
 31
0.0
  0
LINE
  5
104
330
17
100
AcDbEntity
  8
A-GLAZ
100
AcDbLine
 10
1094.719971
 20
506.559977
 30
0.0
 11
995.359945
 21
506.559977
 31
0.0
  0
LINE
  5
105
330
17
100
AcDbEntity
  8
A-GLAZ
100
AcDbLine
 10
1158.239909
 20
502.880046
 30
0.0
 11
1130.079915
 21
502.880046
 31
0.0
  0
LINE
  5
106
330
17
100
AcDbEntity
  8
A-GLAZ
100
AcDbLine
 10
751.519938
 20
398.079997
 30
0.0
 11
751.519938
 21
423.040039
 31
0.0
  0
LINE
  5
107
330
17
100
AcDbEntity
  8
A-GLAZ
100
AcDbLine
 10
755.199951
 20
401.76001
 30
0.0
 11
755.199951
 21
426.720052
 31
0.0
  0
LINE
  5
108
330
17
100
AcDbEntity
  8
A-GLAZ
100
AcDbLine
 10
751.519938
 20
423.040039
 30
0.0
 11
695.519938
 21
423.040039
 31
0.0
  0
LINE
  5
109
330
17
100
AcDbEntity
  8
A-GLAZ
100
AcDbLine
 10
755.199951
 20
426.720052
 30
0.0
 11
695.519938
 21
426.720052
 31
0.0
  0
LINE
  5
10A
330
17
100
AcDbEntity
  8
A-GLAZ
100
AcDbLine
 10
845.279948
 20
426.720052
 30
0.0
 11
845.119954
 21
398.079997
 31
0.0
  0
LINE
  5
10B
330
17
100
AcDbEntity
  8
A-GLAZ
100
AcDbLine
 10
841.599935
 20
426.399984
 30
0.0
 11
841.599935
 21
401.76001
 31
0.0
  0
LINE
  5
10C
330
17
100
AcDbEntity
  8
A-GLAZ
100
AcDbLine
 10
809.919922
 20
297.279948
 30
0.0
 11
746.399984
 21
297.279948
 31
0.0
  0
LINE
  5
10D
330
17
100
AcDbEntity
  8
A-GLAZ
100
AcDbLine
 10
809.919922
 20
291.52002
 30
0.0
 11
746.399984
 21
291.52002
 31
0.0
  0
LINE
  5
10E
330
17
100
AcDbEntity
  8
A-GLAZ
100
AcDbLine
 10
706.879964
 20
291.52002
 30
0.0
 11
689.759928
 21
291.52002
 31
0.0
  0
LINE
  5
10F
330
17
100
AcDbEntity
  8
A-GLAZ
100
AcDbLine
 10
845.279948
 20
545.439982
 30
0.0
 11
845.279948
 21
495.040039
 31
0.0
  0
LINE
  5
110
330
17
100
AcDbEntity
  8
A-GLAZ
100
AcDbLine
 10
845.279948
 20
718.400065
 30
0.0
 11
845.279948
 21
735.840007
 31
0.0
  0
LINE
  5
111
330
17
100
AcDbEntity
  8
A-GLAZ
100
AcDbLine
 10
845.279948
 20
800.320068
 30
0.0
 11
845.279948
 21
821.920003
 31
0.0
  0
LINE
  5
112
330
17
100
AcDbEntity
  8
A-GLAZ
100
AcDbLine
 10
841.599935
 20
498.720052
 30
0.0
 11
841.599935
 21
545.439982
 31
0.0
  0
LINE
  5
113
330
17
100
AcDbEntity
  8
A-GLAZ
100
AcDbLine
 10
923.999919
 20
822.400065
 30
0.0
 11
923.999919
 21
800.320068
 31
0.0
  0
LINE
  5
114
330
17
100
AcDbEntity
  8
A-GLAZ
100
AcDbLine
 10
923.999919
 20
735.840007
 30
0.0
 11
923.999919
 21
718.400065
 31
0.0
  0
LINE
  5
115
330
17
100
AcDbEntity
  8
A-GLAZ
100
AcDbLine
 10
920.47998
 20
822.400065
 30
0.0
 11
920.47998
 21
800.320068
 31
0.0
  0
LINE
  5
116
330
17
100
AcDbEntity
  8
A-GLAZ
100
AcDbLine
 10
920.47998
 20
735.840007
 30
0.0
 11
920.47998
 21
718.400065
 31
0.0
  0
LINE
  5
117
330
17
100
AcDbEntity
  8
A-GLAZ
100
AcDbLine
 10
973.759928
 20
610.23999
 30
0.0
 11
991.839925
 21
610.23999
 31
0.0
  0
LINE
  5
118
330
17
100
AcDbEntity
  8
A-GLAZ
100
AcDbLine
 10
1126.879964
 20
610.399984
 30
0.0
 11
1126.879964
 21
640.47998
 31
0.0
  0
LINE
  5
119
330
17
100
AcDbEntity
  8
A-GLAZ
100
AcDbLine
 10
1143.680013
 20
610.399984
 30
0.0
 11
1143.680013
 21
640.47998
 31
0.0
  0
LINE
  5
11A
330
17
100
AcDbEntity
  8
A-GLAZ
100
AcDbLine
 10
695.519938
 20
620.960002
 30
0.0
 11
758.879964
 21
620.960002
 31
0.0
  0
LINE
  5
11B
330
17
100
AcDbEntity
  8
A-GLAZ
100
AcDbLine
 10
762.559977
 20
620.960002
 30
0.0
 11
841.599935
 21
620.960002
 31
0.0
  0
LINE
  5
11C
330
17
100
AcDbEntity
  8
A-GLAZ
100
AcDbLine
 10
845.279948
 20
675.839966
 30
0.0
 11
845.279948
 21
580.800008
 31
0.0
  0
LINE
  5
11D
330
17
100
AcDbEntity
  8
A-GLAZ
100
AcDbLine
 10
841.599935
 20
580.800008
 30
0.0
 11
841.599935
 21
675.839966
 31
0.0
  0
LINE
  5
11E
330
17
100
AcDbEntity
  8
A-GLAZ
100
AcDbLine
 10
841.599935
 20
711.200033
 30
0.0
 11
841.599935
 21
735.840007
 31
0.0
  0
LINE
  5
11F
330
17
100
AcDbEntity
  8
A-GLAZ
100
AcDbLine
 10
841.599935
 20
800.320068
 30
0.0
 11
841.599935
 21
821.920003
 31
0.0
  0
LINE
  5
120
330
17
100
AcDbEntity
  8
A-GLAZ
100
AcDbLine
 10
838.719971
 20
662.079997
 30
0.0
 11
906.879964
 21
662.079997
 31
0.0
  0
LINE
  5
121
330
17
100
AcDbEntity
  8
A-GLAZ
100
AcDbLine
 10
803.679932
 20
498.720052
 30
0.0
 11
803.679932
 21
532.159993
 31
0.0
  0
LINE
  5
122
330
17
100
AcDbEntity
  8
A-GLAZ
100
AcDbLine
 10
807.359945
 20
498.720052
 30
0.0
 11
807.359945
 21
528.47998
 31
0.0
  0
LINE
  5
123
330
17
100
AcDbEntity
  8
A-GLAZ
100
AcDbLine
 10
695.519938
 20
426.720052
 30
0.0
 11
695.519938
 21
444.639974
 31
0.0
  0
LINE
  5
124
330
17
100
AcDbEntity
  8
A-GLAZ
100
AcDbLine
 10
895.999919
 20
663.839966
 30
0.0
 11
920.47998
 21
663.839966
 31
0.0
  0
LINE
  5
125
330
17
100
AcDbEntity
  8
A-GLAZ
100
AcDbLine
 10
884.639974
 20
822.400065
 30
0.0
 11
884.639974
 21
718.400065
 31
0.0
  0
LINE
  5
126
330
17
100
AcDbEntity
  8
A-GLAZ
100
AcDbLine
 10
880.959961
 20
822.400065
 30
0.0
 11
880.959961
 21
718.400065
 31
0.0
  0
LINE
  5
127
330
17
100
AcDbEntity
  8
A-GLAZ
100
AcDbLine
 10
1030.719971
 20
660.159993
 30
0.0
 11
1030.719971
 21
606.079997
 31
0.0
  0
LINE
  5
128
330
17
100
AcDbEntity
  8
A-GLAZ
100
AcDbLine
 10
1034.399984
 20
660.159993
 30
0.0
 11
1034.399984
 21
606.079997
 31
0.0
  0
LINE
  5
129
330
17
100
AcDbEntity
  8
A-GLAZ
100
AcDbLine
 10
1158.239909
 20
574.559977
 30
0.0
 11
1133.759928
 21
574.559977
 31
0.0
  0
LINE
  5
12A
330
17
100
AcDbEntity
  8
A-GLAZ
100
AcDbLine
 10
1158.239909
 20
570.880005
 30
0.0
 11
1137.439941
 21
570.880005
 31
0.0
  0
LINE
  5
12B
330
17
100
AcDbEntity
  8
A-GLAZ
100
AcDbLine
 10
841.599935
 20
498.720052
 30
0.0
 11
744.959961
 21
498.720052
 31
0.0
  0
LINE
  5
12C
330
17
100
AcDbEntity
  8
A-GLAZ
100
AcDbLine
 10
845.279948
 20
495.040039
 30
0.0
 11
744.959961
 21
495.040039
 31
0.0
  0
LINE
  5
12D
330
17
100
AcDbEntity
  8
A-GLAZ
100
AcDbLine
 10
758.879964
 20
498.720052
 30
0.0
 11
758.879964
 21
545.439982
 31
0.0
  0
LINE
  5
12E
330
17
100
AcDbEntity
  8
A-GLAZ
100
AcDbLine
 10
758.879964
 20
580.800008
 30
0.0
 11
758.879964
 21
620.960002
 31
0.0
  0
LINE
  5
12F
330
17
100
AcDbEntity
  8
A-GLAZ
100
AcDbLine
 10
762.559977
 20
498.720052
 30
0.0
 11
762.559977
 21
545.439982
 31
0.0
  0
LINE
  5
130
330
17
100
AcDbEntity
  8
A-GLAZ
100
AcDbLine
 10
762.559977
 20
580.800008
 30
0.0
 11
762.559977
 21
620.960002
 31
0.0
  0
LINE
  5
131
330
17
100
AcDbEntity
  8
A-GLAZ
100
AcDbLine
 10
738.719971
 20
821.280029
 30
0.0
 11
703.839925
 21
821.280029
 31
0.0
  0
LINE
  5
132
330
17
100
AcDbEntity
  8
A-GLAZ
100
AcDbLine
 10
741.279948
 20
821.280029
 30
0.0
 11
776.639974
 21
821.280029
 31
0.0
  0
LINE
  5
133
330
17
100
AcDbEntity
  8
A-GLAZ
100
AcDbLine
 10
699.839925
 20
829.76001
 30
0.0
 11
780.639974
 21
829.76001
 31
0.0
  0
LINE
  5
134
330
17
100
AcDbEntity
  8
A-GLAZ
100
AcDbLine
 10
1107.199951
 20
727.840007
 30
0.0
 11
1107.199951
 21
692.960042
 31
0.0
  0
LINE
  5
135
330
17
100
AcDbEntity
  8
A-GLAZ
100
AcDbLine
 10
1107.199951
 20
730.400065
 30
0.0
 11
1107.199951
 21
802.079997
 31
0.0
  0
LINE
  5
136
330
17
100
AcDbEntity
  8
A-GLAZ
100
AcDbLine
 10
1115.679932
 20
688.800049
 30
0.0
 11
1115.679932
 21
806.079997
 31
0.0
  0
LINE
  5
137
330
17
100
AcDbEntity
  8
A-GLAZ
100
AcDbLine
 10
1101.919922
 20
821.280029
 30
0.0
 11
1065.279948
 21
821.280029
 31
0.0
  0
LINE
  5
138
330
17
100
AcDbEntity
  8
A-GLAZ
100
AcDbLine
 10
1106.23999
 20
829.76001
 30
0.0
 11
1060.799967
 21
829.76001
 31
0.0
  0
LINE
  5
139
330
17
100
AcDbEntity
  8
A-GLAZ
100
AcDbLine
 10
940.159993
 20
821.280029
 30
0.0
 11
976.799967
 21
821.280029
 31
0.0
  0
LINE
  5
13A
330
17
100
AcDbEntity
  8
A-GLAZ
100
AcDbLine
 10
935.839925
 20
829.76001
 30
0.0
 11
981.279948
 21
829.76001
 31
0.0
  0
LINE
  5
13B
330
17
100
AcDbEntity
  8
A-GLAZ
100
AcDbLine
 10
955.999919
 20
298.399984
 30
0.0
 11
927.359945
 21
298.399984
 31
0.0
  0
LINE
  5
13C
330
17
100
AcDbEntity
  8
A-GLAZ
100
AcDbLine
 10
958.559977
 20
298.399984
 30
0.0
 11
987.679932
 21
298.399984
 31
0.0
  0
LINE
  5
13D
330
17
100
AcDbEntity
  8
A-GLAZ
100
AcDbLine
 10
923.359945
 20
289.920003
 30
0.0
 11
991.679932
 21
289.920003
 31
0.0
  0
LINE
  5
13E
330
17
100
AcDbEntity
  8
A-GLAZ
100
AcDbLine
 10
1116.319987
 20
298.399984
 30
0.0
 11
1144.799967
 21
298.399984
 31
0.0
  0
LINE
  5
13F
330
17
100
AcDbEntity
  8
A-GLAZ
100
AcDbLine
 10
1113.599935
 20
298.399984
 30
0.0
 11
1084.47998
 21
298.399984
 31
0.0
  0
LINE
  5
140
330
17
100
AcDbEntity
  8
A-GLAZ
100
AcDbLine
 10
1148.959961
 20
289.920003
 30
0.0
 11
1080.47998
 21
289.920003
 31
0.0
  0
LINE
  5
141
330
17
100
AcDbEntity
  8
A-GLAZ
100
AcDbLine
 10
696.639974
 20
779.200033
 30
0.0
 11
696.639974
 21
814.079997
 31
0.0
  0
LINE
  5
142
330
17
100
AcDbEntity
  8
A-GLAZ
100
AcDbLine
 10
696.639974
 20
776.640055
 30
0.0
 11
696.639974
 21
741.280029
 31
0.0
  0
LINE
  5
143
330
17
100
AcDbEntity
  8
A-GLAZ
100
AcDbLine
 10
688.159993
 20
818.240072
 30
0.0
 11
688.159993
 21
737.280029
 31
0.0
  0
LINE
  5
144
330
17
100
AcDbEntity
  8
A-GLAZ
100
AcDbLine
 10
842.719971
 20
298.399984
 30
0.0
 11
871.359945
 21
298.399984
 31
0.0
  0
LINE
  5
145
330
17
100
AcDbEntity
  8
A-GLAZ
100
AcDbLine
 10
839.999919
 20
298.399984
 30
0.0
 11
810.879964
 21
298.399984
 31
0.0
  0
LINE
  5
146
330
17
100
AcDbEntity
  8
A-GLAZ
100
AcDbLine
 10
875.359945
 20
289.920003
 30
0.0
 11
806.879964
 21
289.920003
 31
0.0
  0
LINE
  5
147
330
17
100
AcDbEntity
  8
A-GLAZ
100
AcDbLine
 10
1157.119954
 20
590.079997
 30
0.0
 11
1157.119954
 21
623.199992
 31
0.0
  0
LINE
  5
148
330
17
100
AcDbEntity
  8
A-GLAZ
100
AcDbLine
 10
1165.599935
 20
585.920003
 30
0.0
 11
1165.599935
 21
627.199992
 31
0.0
  0
LINE
  5
149
330
17
100
AcDbEntity
  8
A-GLAZ
100
AcDbLine
 10
1157.119954
 20
449.599935
 30
0.0
 11
1157.119954
 21
484.959961
 31
0.0
  0
LINE
  5
14A
330
17
100
AcDbEntity
  8
A-GLAZ
100
AcDbLine
 10
1165.599935
 20
445.439941
 30
0.0
 11
1165.599935
 21
488.959961
 31
0.0
  0
LINE
  5
14B
330
17
100
AcDbEntity
  8
A-GLAZ
100
AcDbLine
 10
1157.119954
 20
310.23999
 30
0.0
 11
1157.119954
 21
345.599935
 31
0.0
  0
LINE
  5
14C
330
17
100
AcDbEntity
  8
A-GLAZ
100
AcDbLine
 10
1165.599935
 20
306.079997
 30
0.0
 11
1165.599935
 21
349.599935
 31
0.0
  0
LINE
  5
14D
330
17
100
AcDbEntity
  8
A-GLAZ
100
AcDbLine
 10
707.839925
 20
298.399984
 30
0.0
 11
745.439941
 21
298.399984
 31
0.0
  0
LINE
  5
14E
330
17
100
AcDbEntity
  8
A-GLAZ
100
AcDbLine
 10
703.519938
 20
289.920003
 30
0.0
 11
749.919922
 21
289.920003
 31
0.0
  0
LINE
  5
14F
330
17
100
AcDbEntity
  8
A-GLAZ
100
AcDbLine
 10
697.279948
 20
662.079997
 30
0.0
 11
697.279948
 21
628.800008
 31
0.0
  0
LINE
  5
150
330
17
100
AcDbEntity
  8
A-GLAZ
100
AcDbLine
 10
688.799967
 20
666.560018
 30
0.0
 11
688.799967
 21
624.47998
 31
0.0
  0
LINE
  5
151
330
17
100
AcDbEntity
  8
A-GLAZ
100
AcDbLine
 10
689.919922
 20
660.0
 30
0.0
 11
689.919922
 21
630.880005
 31
0.0
  0
LINE
  5
152
330
17
100
AcDbEntity
  8
A-GLAZ
100
AcDbLine
 10
691.679932
 20
660.0
 30
0.0
 11
691.679932
 21
630.880005
 31
0.0
  0
LINE
  5
153
330
17
100
AcDbEntity
  8
A-GLAZ
100
AcDbLine
 10
1034.879964
 20
606.079997
 30
0.0
 11
1089.599935
 21
606.079997
 31
0.0
  0
LINE
  5
154
330
17
100
AcDbEntity
  8
A-GLAZ
100
AcDbLine
 10
1084.959961
 20
610.720011
 30
0.0
 11
1034.399984
 21
610.720011
 31
0.0
  0
LINE
  5
155
330
17
100
AcDbEntity
  8
A-GLAZ
100
AcDbLine
 10
1087.359945
 20
659.359985
 30
0.0
 11
1087.359945
 21
607.359985
 31
0.0
  0
LINE
  5
156
330
17
100
AcDbEntity
  8
A-GLAZ
100
AcDbLine
 10
1086.719971
 20
659.359985
 30
0.0
 11
1086.719971
 21
607.359985
 31
0.0
  0
LINE
  5
157
330
17
100
AcDbEntity
  8
A-GLAZ
100
AcDbLine
 10
1034.719971
 20
608.47998
 30
0.0
 11
1064.319987
 21
608.47998
 31
0.0
  0
LINE
  5
158
330
17
100
AcDbEntity
  8
A-GLAZ
100
AcDbLine
 10
1034.719971
 20
608.0
 30
0.0
 11
1064.319987
 21
608.0
 31
0.0
  0
LINE
  5
159
330
17
100
AcDbEntity
  8
A-GLAZ
100
AcDbLine
 10
1035.679932
 20
653.279989
 30
0.0
 11
1035.679932
 21
616.800008
 31
0.0
  0
LINE
  5
15A
330
17
100
AcDbEntity
  8
A-GLAZ
100
AcDbLine
 10
1037.759928
 20
653.279989
 30
0.0
 11
1037.759928
 21
616.800008
 31
0.0
  0
LINE
  5
15B
330
17
100
AcDbEntity
  8
A-GLAZ
100
AcDbLine
 10
802.23999
 20
300.799967
 30
0.0
 11
740.319987
 21
300.799967
 31
0.0
  0
LINE
  5
15C
330
17
100
AcDbEntity
  8
A-GLAZ
100
AcDbLine
 10
800.639974
 20
299.360026
 30
0.0
 11
741.919922
 21
299.360026
 31
0.0
  0
LINE
  5
15D
330
17
100
AcDbEntity
  8
A-GLAZ
100
AcDbLine
 10
900.159993
 20
609.76001
 30
0.0
 11
900.159993
 21
507.040039
 31
0.0
  0
LINE
  5
15E
330
17
100
AcDbEntity
  8
A-GLAZ
100
AcDbLine
 10
900.159993
 20
507.040039
 30
0.0
 11
923.679932
 21
507.040039
 31
0.0
  0
LINE
  5
15F
330
17
100
AcDbEntity
  8
A-GLAZ
100
AcDbLine
 10
973.759928
 20
659.680013
 30
0.0
 11
989.759928
 21
659.680013
 31
0.0
  0
LINE
  5
160
330
17
100
AcDbEntity
  8
A-GLAZ
100
AcDbLine
 10
841.119954
 20
517.920003
 30
0.0
 11
841.119954
 21
499.200033
 31
0.0
  0
LINE
  5
161
330
17
100
AcDbEntity
  8
A-GLAZ
100
AcDbLine
 10
841.119954
 20
499.200033
 30
0.0
 11
808.319987
 21
499.200033
 31
0.0
  0
LINE
  5
162
330
17
100
AcDbEntity
  8
A-GLAZ
100
AcDbLine
 10
808.319987
 20
499.200033
 30
0.0
 11
808.319987
 21
517.920003
 31
0.0
  0
LINE
  5
163
330
17
100
AcDbEntity
  8
A-GLAZ
100
AcDbLine
 10
841.119954
 20
517.920003
 30
0.0
 11
841.119954
 21
499.200033
 31
0.0
  0
LINE
  5
164
330
17
100
AcDbEntity
  8
A-GLAZ
100
AcDbLine
 10
841.119954
 20
499.200033
 30
0.0
 11
808.319987
 21
499.200033
 31
0.0
  0
LINE
  5
165
330
17
100
AcDbEntity
  8
A-GLAZ
100
AcDbLine
 10
808.319987
 20
499.200033
 30
0.0
 11
808.319987
 21
517.920003
 31
0.0
  0
LINE
  5
166
330
17
100
AcDbEntity
  8
A-GLAZ
100
AcDbLine
 10
724.319987
 20
407.680013
 30
0.0
 11
695.999919
 21
402.399984
 31
0.0
  0
LINE
  5
167
330
17
100
AcDbEntity
  8
A-GLAZ
100
AcDbLine
 10
751.039958
 20
412.47998
 30
0.0
 11
727.359945
 21
408.159993
 31
0.0
  0
LINE
  5
168
330
17
100
AcDbEntity
  8
A-GLAZ
100
AcDbLine
 10
724.319987
 20
399.52002
 30
0.0
 11
695.999919
 21
394.23999
 31
0.0
  0
LINE
  5
169
330
17
100
AcDbEntity
  8
A-GLAZ
100
AcDbLine
 10
751.039958
 20
404.319987
 30
0.0
 11
727.359945
 21
400.0
 31
0.0
  0
LINE
  5
16A
330
17
100
AcDbEntity
  8
A-GLAZ
100
AcDbLine
 10
900.799967
 20
493.119954
 30
0.0
 11
934.079915
 21
493.119954
 31
0.0
  0
LINE
  5
16B
330
17
100
AcDbEntity
  8
A-GLAZ
100
AcDbLine
 10
900.799967
 20
491.200033
 30
0.0
 11
934.079915
 21
491.200033
 31
0.0
  0
LINE
  5
16C
330
17
100
AcDbEntity
  8
A-GLAZ
100
AcDbLine
 10
1120.799967
 20
605.76001
 30
0.0
 11
1120.799967
 21
645.439982
 31
0.0
  0
LINE
  5
16D
330
17
100
AcDbEntity
  8
A-GLAZ
100
AcDbLine
 10
1149.759928
 20
605.76001
 30
0.0
 11
1149.759928
 21
645.439982
 31
0.0
  0
LINE
  5
16E
330
17
100
AcDbEntity
  8
A-GLAZ
100
AcDbLine
 10
1089.599935
 20
606.079997
 30
0.0
 11
1089.599935
 21
659.680013
 31
0.0
  0
LINE
  5
16F
330
17
100
AcDbEntity
  8
A-GLAZ
100
AcDbLine
 10
1084.959961
 20
659.680013
 30
0.0
 11
1084.959961
 21
610.720011
 31
0.0
  0
LINE
  5
170
330
17
100
AcDbEntity
  8
A-GLAZ
100
AcDbLine
 10
1133.279948
 20
562.559977
 30
0.0
 11
1133.279948
 21
537.599976
 31
0.0
  0
LINE
  5
171
330
17
100
AcDbEntity
  8
A-GLAZ
100
AcDbLine
 10
1135.199951
 20
562.559977
 30
0.0
 11
1135.199951
 21
537.599976
 31
0.0
  0
LINE
  5
172
330
17
100
AcDbEntity
  8
A-GLAZ
100
AcDbLine
 10
1135.840007
 20
538.399984
 30
0.0
 11
1135.840007
 21
513.279948
 31
0.0
  0
LINE
  5
173
330
17
100
AcDbEntity
  8
A-GLAZ
100
AcDbLine
 10
1137.599935
 20
538.399984
 30
0.0
 11
1137.599935
 21
513.279948
 31
0.0
  0
LINE
  5
174
330
17
100
AcDbEntity
  8
A-GLAZ
100
AcDbLine
 10
736.639974
 20
824.960042
 30
0.0
 11
705.919922
 21
824.960042
 31
0.0
  0
LINE
  5
175
330
17
100
AcDbEntity
  8
A-GLAZ
100
AcDbLine
 10
743.359945
 20
824.960042
 30
0.0
 11
774.559977
 21
824.960042
 31
0.0
  0
LINE
  5
176
330
17
100
AcDbEntity
  8
A-GLAZ
100
AcDbLine
 10
1099.839925
 20
825.76001
 30
0.0
 11
1067.359945
 21
825.76001
 31
0.0
  0
LINE
  5
177
330
17
100
AcDbEntity
  8
A-GLAZ
100
AcDbLine
 10
942.23999
 20
825.76001
 30
0.0
 11
974.719971
 21
825.76001
 31
0.0
  0
LINE
  5
178
330
17
100
AcDbEntity
  8
A-GLAZ
100
AcDbLine
 10
763.199951
 20
300.799967
 30
0.0
 11
763.199951
 21
345.279948
 31
0.0
  0
LINE
  5
179
330
17
100
AcDbEntity
  8
A-GLAZ
100
AcDbLine
 10
692.959961
 20
781.280029
 30
0.0
 11
692.959961
 21
812.0
 31
0.0
  0
LINE
  5
17A
330
17
100
AcDbEntity
  8
A-GLAZ
100
AcDbLine
 10
692.959961
 20
774.560059
 30
0.0
 11
692.959961
 21
743.360026
 31
0.0
  0
LINE
  5
17B
330
17
100
AcDbEntity
  8
A-GLAZ
100
AcDbLine
 10
1162.719971
 20
621.119995
 30
0.0
 11
1162.719971
 21
592.159993
 31
0.0
  0
LINE
  5
17C
330
17
100
AcDbEntity
  8
A-GLAZ
100
AcDbLine
 10
1162.719971
 20
482.880046
 30
0.0
 11
1162.719971
 21
451.680013
 31
0.0
  0
LINE
  5
17D
330
17
100
AcDbEntity
  8
A-GLAZ
100
AcDbLine
 10
1162.719971
 20
343.52002
 30
0.0
 11
1162.719971
 21
312.319987
 31
0.0
  0
LINE
  5
17E
330
17
100
AcDbEntity
  8
A-GLAZ
100
AcDbLine
 10
711.839925
 20
293.119954
 30
0.0
 11
741.439941
 21
293.119954
 31
0.0
  0
LINE
  5
17F
330
17
100
AcDbEntity
  8
A-GLAZ
100
AcDbLine
 10
752.159993
 20
216.639974
 30
0.0
 11
752.159993
 21
291.52002
 31
0.0
  0
LINE
  5
180
330
17
100
AcDbEntity
  8
A-GLAZ
100
AcDbLine
 10
716.47998
 20
397.920003
 30
0.0
 11
751.039958
 21
397.920003
 31
0.0
  0
LINE
  5
181
330
17
100
AcDbEntity
  8
A-GLAZ
100
AcDbLine
 10
700.159993
 20
422.23999
 30
0.0
 11
700.159993
 21
403.200033
 31
0.0
  0
LINE
  5
182
330
17
100
AcDbEntity
  8
A-GLAZ
100
AcDbLine
 10
700.159993
 20
413.119954
 30
0.0
 11
751.039958
 21
413.119954
 31
0.0
  0
LINE
  5
183
330
17
100
AcDbEntity
  8
A-GLAZ
100
AcDbLine
 10
925.279948
 20
669.279989
 30
0.0
 11
958.559977
 21
669.279989
 31
0.0
  0
LINE
  5
184
330
17
100
AcDbEntity
  8
A-GLAZ
100
AcDbLine
 10
925.279948
 20
671.199992
 30
0.0
 11
958.559977
 21
671.199992
 31
0.0
  0
LINE
  5
185
330
17
100
AcDbEntity
  8
A-GLAZ
100
AcDbLine
 10
752.799967
 20
300.799967
 30
0.0
 11
752.799967
 21
345.279948
 31
0.0
  0
LINE
  5
186
330
17
100
AcDbEntity
  8
A-GLAZ
100
AcDbLine
 10
840.47998
 20
676.800008
 30
0.0
 11
807.199951
 21
676.800008
 31
0.0
  0
LINE
  5
187
330
17
100
AcDbEntity
  8
A-GLAZ
100
AcDbLine
 10
840.47998
 20
678.560018
 30
0.0
 11
807.199951
 21
678.560018
 31
0.0
  0
LINE
  5
188
330
17
100
AcDbEntity
  8
A-GLAZ
100
AcDbLine
 10
758.399984
 20
620.47998
 30
0.0
 11
758.399984
 21
590.399984
 31
0.0
  0
LINE
  5
189
330
17
100
AcDbEntity
  8
A-GLAZ
100
AcDbLine
 10
758.399984
 20
620.47998
 30
0.0
 11
695.999919
 21
620.47998
 31
0.0
  0
LINE
  5
18A
330
17
100
AcDbEntity
  8
A-GLAZ
100
AcDbLine
 10
695.999919
 20
590.399984
 30
0.0
 11
695.999919
 21
620.47998
 31
0.0
  0
LINE
  5
18B
330
17
100
AcDbEntity
  8
A-GLAZ
100
AcDbLine
 10
757.439941
 20
590.399984
 30
0.0
 11
757.439941
 21
619.519979
 31
0.0
  0
LINE
  5
18C
330
17
100
AcDbEntity
  8
A-GLAZ
100
AcDbLine
 10
757.439941
 20
619.519979
 30
0.0
 11
697.119954
 21
619.519979
 31
0.0
  0
LINE
  5
18D
330
17
100
AcDbEntity
  8
A-GLAZ
100
AcDbLine
 10
697.119954
 20
619.519979
 30
0.0
 11
697.119954
 21
590.399984
 31
0.0
  0
LINE
  5
18E
330
17
100
AcDbEntity
  8
A-GLAZ
100
AcDbLine
 10
752.159993
 20
615.359985
 30
0.0
 11
735.519938
 21
616.319987
 31
0.0
  0
LINE
  5
18F
330
17
100
AcDbEntity
  8
A-GLAZ
100
AcDbLine
 10
841.599935
 20
527.200033
 30
0.0
 11
808.319987
 21
527.200033
 31
0.0
  0
LINE
  5
190
330
17
100
AcDbEntity
  8
A-GLAZ
100
AcDbLine
 10
688.639974
 20
445.599935
 30
0.0
 11
651.199951
 21
445.599935
 31
0.0
  0
LINE
  5
191
330
17
100
AcDbEntity
  8
A-GLAZ
100
AcDbLine
 10
688.639974
 20
447.360026
 30
0.0
 11
651.199951
 21
447.360026
 31
0.0
  0
LINE
  5
192
330
17
100
AcDbEntity
  8
A-GLAZ
100
AcDbLine
 10
804.799967
 20
348.959961
 30
0.0
 11
804.799967
 21
397.599935
 31
0.0
  0
LINE
  5
193
330
17
100
AcDbEntity
  8
A-GLAZ
100
AcDbLine
 10
794.399984
 20
348.959961
 30
0.0
 11
794.399984
 21
397.599935
 31
0.0
  0
LINE
  5
194
330
17
100
AcDbEntity
  8
A-GLAZ
100
AcDbLine
 10
763.199951
 20
348.959961
 30
0.0
 11
763.199951
 21
397.599935
 31
0.0
  0
LINE
  5
195
330
17
100
AcDbEntity
  8
A-GLAZ
100
AcDbLine
 10
752.799967
 20
348.959961
 30
0.0
 11
752.799967
 21
397.599935
 31
0.0
  0
LINE
  5
196
330
17
100
AcDbEntity
  8
A-GLAZ
100
AcDbLine
 10
690.879964
 20
660.0
 30
0.0
 11
690.879964
 21
630.880005
 31
0.0
  0
LINE
  5
197
330
17
100
AcDbEntity
  8
A-GLAZ
100
AcDbLine
 10
1086.079915
 20
531.519979
 30
0.0
 11
1086.079915
 21
507.040039
 31
0.0
  0
LINE
  5
198
330
17
100
AcDbEntity
  8
A-GLAZ
100
AcDbLine
 10
841.119954
 20
620.47998
 30
0.0
 11
841.119954
 21
594.559977
 31
0.0
  0
LINE
  5
199
330
17
100
AcDbEntity
  8
A-GLAZ
100
AcDbLine
 10
846.559977
 20
546.559977
 30
0.0
 11
846.559977
 21
579.680013
 31
0.0
  0
LWPOLYLINE
  5
19A
330
17
100
AcDbEntity
  8
A-STRS
100
AcDbPolyline
 90
5
 70
0
 10
752.8
 20
297.76
 10
804.8
 20
297.76
 10
804.8
 20
397.6
 10
752.8
 20
397.6
 10
752.8
 20
297.76
  0
LINE
  5
19B
330
17
100
AcDbEntity
  8
A-STRS
100
AcDbLine
 10
752.8
 20
300.8
 30
0.0
 11
752.8
 21
345.28
 31
0.0
  0
LINE
  5
19C
330
17
100
AcDbEntity
  8
A-STRS
100
AcDbLine
 10
763.2
 20
300.8
 30
0.0
 11
763.2
 21
345.28
 31
0.0
  0
LINE
  5
19D
330
17
100
AcDbEntity
  8
A-STRS
100
AcDbLine
 10
773.6
 20
300.8
 30
0.0
 11
773.6
 21
345.28
 31
0.0
  0
LINE
  5
19E
330
17
100
AcDbEntity
  8
A-STRS
100
AcDbLine
 10
784.0
 20
300.8
 30
0.0
 11
784.0
 21
345.28
 31
0.0
  0
LINE
  5
19F
330
17
100
AcDbEntity
  8
A-STRS
100
AcDbLine
 10
794.4
 20
300.8
 30
0.0
 11
794.4
 21
345.28
 31
0.0
  0
LINE
  5
1A0
330
17
100
AcDbEntity
  8
A-STRS
100
AcDbLine
 10
804.8
 20
297.76
 30
0.0
 11
804.8
 21
345.28
 31
0.0
  0
LINE
  5
1A1
330
17
100
AcDbEntity
  8
A-STRS
100
AcDbLine
 10
752.8
 20
348.96
 30
0.0
 11
752.8
 21
397.6
 31
0.0
  0
LINE
  5
1A2
330
17
100
AcDbEntity
  8
A-STRS
100
AcDbLine
 10
763.2
 20
348.96
 30
0.0
 11
763.2
 21
397.6
 31
0.0
  0
LINE
  5
1A3
330
17
100
AcDbEntity
  8
A-STRS
100
AcDbLine
 10
773.6
 20
348.96
 30
0.0
 11
773.6
 21
397.6
 31
0.0
  0
LINE
  5
1A4
330
17
100
AcDbEntity
  8
A-STRS
100
AcDbLine
 10
784.0
 20
348.96
 30
0.0
 11
784.0
 21
397.6
 31
0.0
  0
LINE
  5
1A5
330
17
100
AcDbEntity
  8
A-STRS
100
AcDbLine
 10
794.4
 20
348.96
 30
0.0
 11
794.4
 21
397.6
 31
0.0
  0
LINE
  5
1A6
330
17
100
AcDbEntity
  8
A-STRS
100
AcDbLine
 10
804.8
 20
348.96
 30
0.0
 11
804.8
 21
397.6
 31
0.0
  0
ENDSEC
  0
SECTION
  2
OBJECTS
  0
DICTIONARY
  5
A
330
0
100
AcDbDictionary
281
1
  3
ACAD_COLOR
350
B
  3
ACAD_GROUP
350
C
  3
ACAD_LAYOUT
350
D
  3
ACAD_MATERIAL
350
E
  3
ACAD_MLEADERSTYLE
350
F
  3
ACAD_MLINESTYLE
350
10
  3
ACAD_PLOTSETTINGS
350
11
  3
ACAD_PLOTSTYLENAME
350
12
  3
ACAD_SCALELIST
350
14
  3
ACAD_TABLESTYLE
350
15
  3
ACAD_VISUALSTYLE
350
16
  3
EZDXF_META
350
2D
  0
DICTIONARY
  5
B
330
A
100
AcDbDictionary
281
1
  0
DICTIONARY
  5
C
330
A
100
AcDbDictionary
281
1
  0
DICTIONARY
  5
D
330
A
100
AcDbDictionary
281
1
  3
Model
350
1A
  3
Layout1
350
1E
  0
DICTIONARY
  5
E
330
A
100
AcDbDictionary
281
1
  3
ByBlock
350
1F
  3
ByLayer
350
20
  3
Global
350
21
  0
DICTIONARY
  5
F
330
A
100
AcDbDictionary
281
1
  3
Standard
350
2C
  0
DICTIONARY
  5
10
330
A
100
AcDbDictionary
281
1
  3
Standard
350
22
  0
DICTIONARY
  5
11
330
A
100
AcDbDictionary
281
1
  0
ACDBDICTIONARYWDFLT
  5
12
330
A
100
AcDbDictionary
281
1
  3
Normal
350
13
100
AcDbDictionaryWithDefault
340
13
  0
ACDBPLACEHOLDER
  5
13
330
12
  0
DICTIONARY
  5
14
330
A
100
AcDbDictionary
281
1
  0
DICTIONARY
  5
15
330
A
100
AcDbDictionary
281
1
  0
DICTIONARY
  5
16
330
A
100
AcDbDictionary
281
1
  0
LAYOUT
  5
1A
330
D
100
AcDbPlotSettings
  1

  4
A3
  6

 40
7.5
 41
20.0
 42
7.5
 43
20.0
 44
420.0
 45
297.0
 46
0.0
 47
0.0
 48
0.0
 49
0.0
140
0.0
141
0.0
142
1.0
143
1.0
 70
1024
 72
1
 73
0
 74
5
  7

 75
16
 76
0
 77
2
 78
300
147
1.0
148
0.0
149
0.0
100
AcDbLayout
  1
Model
 70
1
 71
0
 10
0.0
 20
0.0
 11
420.0
 21
297.0
 12
0.0
 22
0.0
 32
0.0
 14
1e+20
 24
1e+20
 34
1e+20
 15
-1e+20
 25
-1e+20
 35
-1e+20
146
0.0
 13
0.0
 23
0.0
 33
0.0
 16
1.0
 26
0.0
 36
0.0
 17
0.0
 27
1.0
 37
0.0
 76
1
330
17
  0
LAYOUT
  5
1E
330
D
100
AcDbPlotSettings
  1

  4
A3
  6

 40
7.5
 41
20.0
 42
7.5
 43
20.0
 44
420.0
 45
297.0
 46
0.0
 47
0.0
 48
0.0
 49
0.0
140
0.0
141
0.0
142
1.0
143
1.0
 70
0
 72
1
 73
0
 74
5
  7

 75
16
 76
0
 77
2
 78
300
147
1.0
148
0.0
149
0.0
100
AcDbLayout
  1
Layout1
 70
1
 71
1
 10
0.0
 20
0.0
 11
420.0
 21
297.0
 12
0.0
 22
0.0
 32
0.0
 14
1e+20
 24
1e+20
 34
1e+20
 15
-1e+20
 25
-1e+20
 35
-1e+20
146
0.0
 13
0.0
 23
0.0
 33
0.0
 16
1.0
 26
0.0
 36
0.0
 17
0.0
 27
1.0
 37
0.0
 76
1
330
1B
  0
MATERIAL
  5
1F
102
{ACAD_REACTORS
330
E
102
}
330
E
100
AcDbMaterial
  1
ByBlock
  2

 70
0
 40
1.0
 71
1
 41
1.0
 91
-1023410177
 42
1.0
 72
1
  3

 73
1
 74
1
 75
1
 44
0.5
 73
0
 45
1.0
 46
1.0
 77
1
  4

 78
1
 79
1
170
1
 48
1.0
171
1
  6

172
1
173
1
174
1
140
1.0
141
1.0
175
1
  7

176
1
177
1
178
1
143
1.0
179
1
  8

270
1
271
1
272
1
145
1.0
146
1.0
273
1
  9

274
1
275
1
276
1
 42
1.0
 72
1
  3

 73
1
 74
1
 75
1
 94
63
  0
MATERIAL
  5
20
102
{ACAD_REACTORS
330
E
102
}
330
E
100
AcDbMaterial
  1
ByLayer
  2

 70
0
 40
1.0
 71
1
 41
1.0
 91
-1023410177
 42
1.0
 72
1
  3

 73
1
 74
1
 75
1
 44
0.5
 73
0
 45
1.0
 46
1.0
 77
1
  4

 78
1
 79
1
170
1
 48
1.0
171
1
  6

172
1
173
1
174
1
140
1.0
141
1.0
175
1
  7

176
1
177
1
178
1
143
1.0
179
1
  8

270
1
271
1
272
1
145
1.0
146
1.0
273
1
  9

274
1
275
1
276
1
 42
1.0
 72
1
  3

 73
1
 74
1
 75
1
 94
63
  0
MATERIAL
  5
21
102
{ACAD_REACTORS
330
E
102
}
330
E
100
AcDbMaterial
  1
Global
  2

 70
0
 40
1.0
 71
1
 41
1.0
 91
-1023410177
 42
1.0
 72
1
  3

 73
1
 74
1
 75
1
 44
0.5
 73
0
 45
1.0
 46
1.0
 77
1
  4

 78
1
 79
1
170
1
 48
1.0
171
1
  6

172
1
173
1
174
1
140
1.0
141
1.0
175
1
  7

176
1
177
1
178
1
143
1.0
179
1
  8

270
1
271
1
272
1
145
1.0
146
1.0
273
1
  9

274
1
275
1
276
1
 42
1.0
 72
1
  3

 73
1
 74
1
 75
1
 94
63
  0
MLINESTYLE
  5
22
102
{ACAD_REACTORS
330
10
102
}
330
10
100
AcDbMlineStyle
  2
Standard
 70
0
  3

 62
256
 51
90.0
 52
90.0
 71
2
 49
0.5
 62
256
  6
BYLAYER
 49
-0.5
 62
256
  6
BYLAYER
  0
MLEADERSTYLE
  5
2C
102
{ACAD_REACTORS
330
F
102
}
330
F
100
AcDbMLeaderStyle
179
2
170
2
171
1
172
0
 90
2
 40
0.0
 41
0.0
173
1
 91
-1056964608
 92
-2
290
1
 42
2.0
291
1
 43
8.0
  3
Standard
 44
4.0
300

342
29
174
1
175
1
176
0
178
1
 93
-1056964608
 45
4.0
292
0
297
0
 46
4.0
 94
-1056964608
 47
1.0
 49
1.0
140
1.0
294
1
141
0.0
177
0
142
1.0
295
0
296
0
143
3.75
271
0
272
9
273
9
  0
DICTIONARY
  5
2D
330
A
100
AcDbDictionary
280
1
281
1
  3
CREATED_BY_EZDXF
350
2E
  3
WRITTEN_BY_EZDXF
350
1A9
  0
DICTIONARYVAR
  5
2E
330
2D
100
DictionaryVariables
280
0
  1
1.4.4 @ 2026-07-12T12:35:57.896679+00:00
  0
DICTIONARYVAR
  5
1A9
330
2D
100
DictionaryVariables
280
0
  1
1.4.4 @ 2026-07-12T12:35:57.903834+00:00
  0
ENDSEC
  0
EOF
