  0
SECTION
  2
HEADER
  9
$ACADVER
  1
AC1024
  9
$ACADMAINTVER
 70
6
  9
$DWGCODEPAGE
  3
ANSI_1252
  9
$LASTSAVEDBY
  1
ezdxf
  9
$INSBASE
 10
0.0
 20
0.0
 30
0.0
  9
$EXTMIN
 10
1e+20
 20
1e+20
 30
1e+20
  9
$EXTMAX
 10
-1e+20
 20
-1e+20
 30
-1e+20
  9
$LIMMIN
 10
0.0
 20
0.0
  9
$LIMMAX
 10
420.0
 20
297.0
  9
$ORTHOMODE
 70
0
  9
$REGENMODE
 70
1
  9
$FILLMODE
 70
1
  9
$QTEXTMODE
 70
0
  9
$MIRRTEXT
 70
1
  9
$LTSCALE
 40
1.0
  9
$ATTMODE
 70
1
  9
$TEXTSIZE
 40
2.5
  9
$TRACEWID
 40
1.0
  9
$TEXTSTYLE
  7
Standard
  9
$CLAYER
  8
0
  9
$CELTYPE
  6
ByLayer
  9
$CECOLOR
 62
256
  9
$CELTSCALE
 40
1.0
  9
$DISPSILH
 70
0
  9
$DIMSCALE
 40
1.0
  9
$DIMASZ
 40
2.5
  9
$DIMEXO
 40
0.625
  9
$DIMDLI
 40
3.75
  9
$DIMRND
 40
0.0
  9
$DIMDLE
 40
0.0
  9
$DIMEXE
 40
1.25
  9
$DIMTP
 40
0.0
  9
$DIMTM
 40
0.0
  9
$DIMTXT
 40
2.5
  9
$DIMCEN
 40
2.5
  9
$DIMTSZ
 40
0.0
  9
$DIMTOL
 70
0
  9
$DIMLIM
 70
0
  9
$DIMTIH
 70
0
  9
$DIMTOH
 70
0
  9
$DIMSE1
 70
0
  9
$DIMSE2
 70
0
  9
$DIMTAD
 70
1
  9
$DIMZIN
 70
8
  9
$DIMBLK
  1

  9
$DIMASO
 70
1
  9
$DIMSHO
 70
1
  9
$DIMPOST
  1

  9
$DIMAPOST
  1

  9
$DIMALT
 70
0
  9
$DIMALTD
 70
3
  9
$DIMALTF
 40
0.03937007874
  9
$DIMLFAC
 40
1.0
  9
$DIMTOFL
 70
1
  9
$DIMTVP
 40
0.0
  9
$DIMTIX
 70
0
  9
$DIMSOXD
 70
0
  9
$DIMSAH
 70
0
  9
$DIMBLK1
  1

  9
$DIMBLK2
  1

  9
$DIMSTYLE
  2
ISO-25
  9
$DIMCLRD
 70
0
  9
$DIMCLRE
 70
0
  9
$DIMCLRT
 70
0
  9
$DIMTFAC
 40
1.0
  9
$DIMGAP
 40
0.625
  9
$DIMJUST
 70
0
  9
$DIMSD1
 70
0
  9
$DIMSD2
 70
0
  9
$DIMTOLJ
 70
0
  9
$DIMTZIN
 70
8
  9
$DIMALTZ
 70
0
  9
$DIMALTTZ
 70
0
  9
$DIMUPT
 70
0
  9
$DIMDEC
 70
2
  9
$DIMTDEC
 70
2
  9
$DIMALTU
 70
2
  9
$DIMALTTD
 70
3
  9
$DIMTXSTY
  7
Standard
  9
$DIMAUNIT
 70
0
  9
$DIMADEC
 70
0
  9
$DIMALTRND
 40
0.0
  9
$DIMAZIN
 70
0
  9
$DIMDSEP
 70
44
  9
$DIMATFIT
 70
3
  9
$DIMFRAC
 70
0
  9
$DIMLDRBLK
  1

  9
$DIMLUNIT
 70
2
  9
$DIMLWD
 70
-2
  9
$DIMLWE
 70
-2
  9
$DIMTMOVE
 70
0
  9
$DIMFXL
 40
1.0
  9
$DIMFXLON
 70
0
  9
$DIMJOGANG
 40
0.785398163397
  9
$DIMTFILL
 70
0
  9
$DIMTFILLCLR
 70
0
  9
$DIMARCSYM
 70
0
  9
$DIMLTYPE
  6

  9
$DIMLTEX1
  6

  9
$DIMLTEX2
  6

  9
$DIMTXTDIRECTION
 70
0
  9
$LUNITS
 70
2
  9
$LUPREC
 70
4
  9
$SKETCHINC
 40
1.0
  9
$FILLETRAD
 40
10.0
  9
$AUNITS
 70
0
  9
$AUPREC
 70
2
  9
$MENU
  1
.
  9
$ELEVATION
 40
0.0
  9
$PELEVATION
 40
0.0
  9
$THICKNESS
 40
0.0
  9
$LIMCHECK
 70
0
  9
$CHAMFERA
 40
0.0
  9
$CHAMFERB
 40
0.0
  9
$CHAMFERC
 40
0.0
  9
$CHAMFERD
 40
0.0
  9
$SKPOLY
 70
0
  9
$TDCREATE
 40
2461234.711238426
  9
$TDUCREATE
 40
2458532.153996898
  9
$TDUPDATE
 40
2461234.711238426
  9
$TDUUPDATE
 40
2458532.1544311
  9
$TDINDWG
 40
0.0
  9
$TDUSRTIMER
 40
0.0
  9
$USRTIMER
 70
1
  9
$ANGBASE
 50
0.0
  9
$ANGDIR
 70
0
  9
$PDMODE
 70
0
  9
$PDSIZE
 40
0.0
  9
$PLINEWID
 40
0.0
  9
$SPLFRAME
 70
0
  9
$SPLINETYPE
 70
6
  9
$SPLINESEGS
 70
8
  9
$HANDSEED
  5
2B8
  9
$SURFTAB1
 70
6
  9
$SURFTAB2
 70
6
  9
$SURFTYPE
 70
6
  9
$SURFU
 70
6
  9
$SURFV
 70
6
  9
$UCSBASE
  2

  9
$UCSNAME
  2

  9
$UCSORG
 10
0.0
 20
0.0
 30
0.0
  9
$UCSXDIR
 10
1.0
 20
0.0
 30
0.0
  9
$UCSYDIR
 10
0.0
 20
1.0
 30
0.0
  9
$UCSORTHOREF
  2

  9
$UCSORTHOVIEW
 70
0
  9
$UCSORGTOP
 10
0.0
 20
0.0
 30
0.0
  9
$UCSORGBOTTOM
 10
0.0
 20
0.0
 30
0.0
  9
$UCSORGLEFT
 10
0.0
 20
0.0
 30
0.0
  9
$UCSORGRIGHT
 10
0.0
 20
0.0
 30
0.0
  9
$UCSORGFRONT
 10
0.0
 20
0.0
 30
0.0
  9
$UCSORGBACK
 10
0.0
 20
0.0
 30
0.0
  9
$PUCSBASE
  2

  9
$PUCSNAME
  2

  9
$PUCSORG
 10
0.0
 20
0.0
 30
0.0
  9
$PUCSXDIR
 10
1.0
 20
0.0
 30
0.0
  9
$PUCSYDIR
 10
0.0
 20
1.0
 30
0.0
  9
$PUCSORTHOREF
  2

  9
$PUCSORTHOVIEW
 70
0
  9
$PUCSORGTOP
 10
0.0
 20
0.0
 30
0.0
  9
$PUCSORGBOTTOM
 10
0.0
 20
0.0
 30
0.0
  9
$PUCSORGLEFT
 10
0.0
 20
0.0
 30
0.0
  9
$PUCSORGRIGHT
 10
0.0
 20
0.0
 30
0.0
  9
$PUCSORGFRONT
 10
0.0
 20
0.0
 30
0.0
  9
$PUCSORGBACK
 10
0.0
 20
0.0
 30
0.0
  9
$USERI1
 70
0
  9
$USERI2
 70
0
  9
$USERI3
 70
0
  9
$USERI4
 70
0
  9
$USERI5
 70
0
  9
$USERR1
 40
0.0
  9
$USERR2
 40
0.0
  9
$USERR3
 40
0.0
  9
$USERR4
 40
0.0
  9
$USERR5
 40
0.0
  9
$WORLDVIEW
 70
1
  9
$SHADEDGE
 70
3
  9
$SHADEDIF
 70
70
  9
$TILEMODE
 70
1
  9
$MAXACTVP
 70
64
  9
$PINSBASE
 10
0.0
 20
0.0
 30
0.0
  9
$PLIMCHECK
 70
0
  9
$PEXTMIN
 10
1e+20
 20
1e+20
 30
1e+20
  9
$PEXTMAX
 10
-1e+20
 20
-1e+20
 30
-1e+20
  9
$PLIMMIN
 10
0.0
 20
0.0
  9
$PLIMMAX
 10
420.0
 20
297.0
  9
$UNITMODE
 70
0
  9
$VISRETAIN
 70
1
  9
$PLINEGEN
 70
0
  9
$PSLTSCALE
 70
1
  9
$TREEDEPTH
 70
3020
  9
$CMLSTYLE
  2
Standard
  9
$CMLJUST
 70
0
  9
$CMLSCALE
 40
20.0
  9
$PROXYGRAPHICS
 70
1
  9
$MEASUREMENT
 70
1
  9
$CELWEIGHT
370
-1
  9
$ENDCAPS
280
0
  9
$JOINSTYLE
280
0
  9
$LWDISPLAY
290
0
  9
$INSUNITS
 70
1
  9
$HYPERLINKBASE
  1

  9
$STYLESHEET
  1

  9
$XEDIT
290
1
  9
$CEPSNTYPE
380
0
  9
$PSTYLEMODE
290
1
  9
$FINGERPRINTGUID
  2
{69DADF57-72C8-4673-9545-F870BF25439A}
  9
$VERSIONGUID
  2
{B562C7E8-2947-4220-B469-4A298C5EC53A}
  9
$EXTNAMES
290
1
  9
$PSVPSCALE
 40
0.0
  9
$OLESTARTUP
290
0
  9
$SORTENTS
280
127
  9
$INDEXCTL
280
0
  9
$HIDETEXT
280
1
  9
$XCLIPFRAME
280
1
  9
$HALOGAP
280
0
  9
$OBSCOLOR
 70
257
  9
$OBSLTYPE
280
0
  9
$INTERSECTIONDISPLAY
280
0
  9
$INTERSECTIONCOLOR
 70
257
  9
$DIMASSOC
280
2
  9
$PROJECTNAME
  1

  9
$CAMERADISPLAY
290
0
  9
$LENSLENGTH
 40
50.0
  9
$CAMERAHEIGHT
 40
0.0
  9
$STEPSPERSEC
 40
24.0
  9
$STEPSIZE
 40
100.0
  9
$3DDWFPREC
 40
2.0
  9
$PSOLWIDTH
 40
0.005
  9
$PSOLHEIGHT
 40
0.08
  9
$LOFTANG1
 40
1.570796326795
  9
$LOFTANG2
 40
1.570796326795
  9
$LOFTMAG1
 40
0.0
  9
$LOFTMAG2
 40
0.0
  9
$LOFTPARAM
 70
7
  9
$LOFTNORMALS
280
1
  9
$LATITUDE
 40
37.795
  9
$LONGITUDE
 40
-122.394
  9
$NORTHDIRECTION
 40
0.0
  9
$TIMEZONE
 70
-8000
  9
$LIGHTGLYPHDISPLAY
280
1
  9
$TILEMODELIGHTSYNCH
280
1
  9
$CMATERIAL
347
20
  9
$SOLIDHIST
280
0
  9
$SHOWHIST
280
1
  9
$DWFFRAME
280
2
  9
$DGNFRAME
280
2
  9
$REALWORLDSCALE
290
1
  9
$INTERFERECOLOR
 62
256
  9
$CSHADOW
280
0
  9
$SHADOWPLANELOCATION
 40
0.0
  0
ENDSEC
  0
SECTION
  2
CLASSES
  0
CLASS
  1
ACDBDICTIONARYWDFLT
  2
AcDbDictionaryWithDefault
  3
ObjectDBX Classes
 90
0
 91
0
280
0
281
0
  0
CLASS
  1
SUN
  2
AcDbSun
  3
SCENEOE
 90
1153
 91
0
280
0
281
0
  0
CLASS
  1
VISUALSTYLE
  2
AcDbVisualStyle
  3
ObjectDBX Classes
 90
4095
 91
0
280
0
281
0
  0
CLASS
  1
MATERIAL
  2
AcDbMaterial
  3
ObjectDBX Classes
 90
1153
 91
0
280
0
281
0
  0
CLASS
  1
SCALE
  2
AcDbScale
  3
ObjectDBX Classes
 90
1153
 91
0
280
0
281
0
  0
CLASS
  1
TABLESTYLE
  2
AcDbTableStyle
  3
ObjectDBX Classes
 90
4095
 91
0
280
0
281
0
  0
CLASS
  1
MLEADERSTYLE
  2
AcDbMLeaderStyle
  3
ACDB_MLEADERSTYLE_CLASS
 90
4095
 91
0
280
0
281
0
  0
CLASS
  1
DICTIONARYVAR
  2
AcDbDictionaryVar
  3
ObjectDBX Classes
 90
0
 91
0
280
0
281
0
  0
CLASS
  1
CELLSTYLEMAP
  2
AcDbCellStyleMap
  3
ObjectDBX Classes
 90
1152
 91
0
280
0
281
0
  0
CLASS
  1
MENTALRAYRENDERSETTINGS
  2
AcDbMentalRayRenderSettings
  3
SCENEOE
 90
1024
 91
0
280
0
281
0
  0
CLASS
  1
ACDBDETAILVIEWSTYLE
  2
AcDbDetailViewStyle
  3
ObjectDBX Classes
 90
1025
 91
0
280
0
281
0
  0
CLASS
  1
ACDBSECTIONVIEWSTYLE
  2
AcDbSectionViewStyle
  3
ObjectDBX Classes
 90
1025
 91
0
280
0
281
0
  0
CLASS
  1
RASTERVARIABLES
  2
AcDbRasterVariables
  3
ISM
 90
0
 91
0
280
0
281
0
  0
CLASS
  1
LAYOUT
  2
AcDbLayout
  3
ObjectDBX Classes
 90
0
 91
0
280
0
281
0
  0
CLASS
  1
ACDBPLACEHOLDER
  2
AcDbPlaceHolder
  3
ObjectDBX Classes
 90
0
 91
0
280
0
281
0
  0
ENDSEC
  0
SECTION
  2
TABLES
  0
TABLE
  2
VPORT
  5
8
330
0
100
AcDbSymbolTable
 70
1
  0
VPORT
  5
23
330
8
100
AcDbSymbolTableRecord
100
AcDbViewportTableRecord
  2
*Active
 70
0
 10
0.0
 20
0.0
 11
1.0
 21
1.0
 12
0.0
 22
0.0
 13
0.0
 23
0.0
 14
0.5
 24
0.5
 15
0.5
 25
0.5
 16
0.0
 26
0.0
 36
1.0
 17
0.0
 27
0.0
 37
0.0
 40
1000.0
 41
1.34
 42
50.0
 43
0.0
 44
0.0
 50
0.0
 51
0.0
 71
0
 72
1000
 73
1
 74
3
 75
0
 76
0
 77
0
 78
0
281
0
 65
0
146
0.0
  0
ENDTAB
  0
TABLE
  2
LTYPE
  5
2
330
0
100
AcDbSymbolTable
 70
3
  0
LTYPE
  5
24
330
2
100
AcDbSymbolTableRecord
100
AcDbLinetypeTableRecord
  2
ByBlock
 70
0
  3

 72
65
 73
0
 40
0.0
  0
LTYPE
  5
25
330
2
100
AcDbSymbolTableRecord
100
AcDbLinetypeTableRecord
  2
ByLayer
 70
0
  3

 72
65
 73
0
 40
0.0
  0
LTYPE
  5
26
330
2
100
AcDbSymbolTableRecord
100
AcDbLinetypeTableRecord
  2
Continuous
 70
0
  3

 72
65
 73
0
 40
0.0
  0
ENDTAB
  0
TABLE
  2
LAYER
  5
1
330
0
100
AcDbSymbolTable
 70
6
  0
LAYER
  5
27
330
1
100
AcDbSymbolTableRecord
100
AcDbLayerTableRecord
  2
0
 70
0
 62
7
  6
Continuous
370
-3
390
13
347
21
  0
LAYER
  5
28
330
1
100
AcDbSymbolTableRecord
100
AcDbLayerTableRecord
  2
Defpoints
 70
0
 62
7
  6
Continuous
290
0
370
-3
390
13
347
21
  0
LAYER
  5
2F
330
1
100
AcDbSymbolTableRecord
100
AcDbLayerTableRecord
  2
A-WALL
 70
0
 62
7
  6
Continuous
370
-3
390
13
347
21
  0
LAYER
  5
30
330
1
100
AcDbSymbolTableRecord
100
AcDbLayerTableRecord
  2
A-DOOR
 70
0
 62
1
  6
Continuous
370
-3
390
13
347
21
  0
LAYER
  5
31
330
1
100
AcDbSymbolTableRecord
100
AcDbLayerTableRecord
  2
A-GLAZ
 70
0
 62
5
  6
Continuous
370
-3
390
13
347
21
  0
LAYER
  5
32
330
1
100
AcDbSymbolTableRecord
100
AcDbLayerTableRecord
  2
A-STRS
 70
0
 62
3
  6
Continuous
370
-3
390
13
347
21
  0
ENDTAB
  0
TABLE
  2
STYLE
  5
5
330
0
100
AcDbSymbolTable
 70
1
  0
STYLE
  5
29
330
5
100
AcDbSymbolTableRecord
100
AcDbTextStyleTableRecord
  2
Standard
 70
0
 40
0.0
 41
1.0
 50
0.0
 71
0
 42
2.5
  3
txt
  4

  0
ENDTAB
  0
TABLE
  2
VIEW
  5
7
330
0
100
AcDbSymbolTable
 70
0
  0
ENDTAB
  0
TABLE
  2
UCS
  5
6
330
0
100
AcDbSymbolTable
 70
0
  0
ENDTAB
  0
TABLE
  2
APPID
  5
3
330
0
100
AcDbSymbolTable
 70
3
  0
APPID
  5
2A
330
3
100
AcDbSymbolTableRecord
100
AcDbRegAppTableRecord
  2
ACAD
 70
0
  0
APPID
  5
2B5
330
3
100
AcDbSymbolTableRecord
100
AcDbRegAppTableRecord
  2
HATCHBACKGROUNDCOLOR
 70
0
  0
APPID
  5
2B6
330
3
100
AcDbSymbolTableRecord
100
AcDbRegAppTableRecord
  2
EZDXF
 70
0
  0
ENDTAB
  0
TABLE
  2
DIMSTYLE
  5
4
330
0
100
AcDbSymbolTable
 70
1
100
AcDbDimStyleTable
  0
DIMSTYLE
105
2B
330
4
100
AcDbSymbolTableRecord
100
AcDbDimStyleTableRecord
  2
Standard
 70
0
 40
1.0
 41
2.5
 42
0.625
 43
3.75
 44
1.25
 45
0.0
 46
0.0
 47
0.0
 48
0.0
 49
2.5
140
2.5
141
2.5
142
0.0
143
0.03937007874
144
1.0
145
0.0
146
1.0
147
0.625
148
0.0
 69
0
 70
0
 71
0
 72
0
 73
0
 74
0
 75
0
 76
0
 77
1
 78
8
 79
3
170
0
171
3
172
1
173
0
174
0
175
0
176
0
177
0
178
0
179
2
271
2
272
2
273
2
274
3
275
0
276
0
277
2
278
44
279
0
280
0
281
0
282
0
283
0
284
8
285
0
286
0
288
0
289
3
290
0
371
-2
372
-2
  0
ENDTAB
  0
TABLE
  2
BLOCK_RECORD
  5
9
330
0
100
AcDbSymbolTable
 70
2
  0
BLOCK_RECORD
  5
17
330
9
100
AcDbSymbolTableRecord
100
AcDbBlockTableRecord
  2
*Model_Space
340
1A
 70
0
280
1
281
0
  0
BLOCK_RECORD
  5
1B
330
9
100
AcDbSymbolTableRecord
100
AcDbBlockTableRecord
  2
*Paper_Space
340
1E
 70
0
280
1
281
0
  0
ENDTAB
  0
ENDSEC
  0
SECTION
  2
BLOCKS
  0
BLOCK
  5
18
330
17
100
AcDbEntity
  8
0
100
AcDbBlockBegin
  2
*Model_Space
 70
0
 10
0.0
 20
0.0
 30
0.0
  3
*Model_Space
  1

  0
ENDBLK
  5
19
330
17
100
AcDbEntity
  8
0
100
AcDbBlockEnd
  0
BLOCK
  5
1C
330
1B
100
AcDbEntity
  8
0
100
AcDbBlockBegin
  2
*Paper_Space
 70
0
 10
0.0
 20
0.0
 30
0.0
  3
*Paper_Space
  1

  0
ENDBLK
  5
1D
330
1B
100
AcDbEntity
  8
0
100
AcDbBlockEnd
  0
ENDSEC
  0
SECTION
  2
ENTITIES
  0
LINE
  5
33
330
17
100
AcDbEntity
  8
A-WALL
100
AcDbLine
 10
695.999919
 20
635.680013
 30
0.0
 11
695.999919
 21
646.720011
 31
0.0
  0
LINE
  5
34
330
17
100
AcDbEntity
  8
A-WALL
100
AcDbLine
 10
695.999919
 20
651.359985
 30
0.0
 11
695.999919
 21
675.199992
 31
0.0
  0
LINE
  5
35
330
17
100
AcDbEntity
  8
A-WALL
100
AcDbLine
 10
121.919922
 20
322.720052
 30
0.0
 11
121.919922
 21
634.720011
 31
0.0
  0
LINE
  5
36
330
17
100
AcDbEntity
  8
A-WALL
100
AcDbLine
 10
695.999919
 20
297.76001
 30
0.0
 11
695.999919
 21
397.599935
 31
0.0
  0
LINE
  5
37
330
17
100
AcDbEntity
  8
A-WALL
100
AcDbLine
 10
695.999919
 20
402.23999
 30
0.0
 11
695.999919
 21
484.639974
 31
0.0
  0
LINE
  5
38
330
17
100
AcDbEntity
  8
A-WALL
100
AcDbLine
 10
695.999919
 20
651.359985
 30
0.0
 11
758.399984
 21
651.359985
 31
0.0
  0
LINE
  5
39
330
17
100
AcDbEntity
  8
A-WALL
100
AcDbLine
 10
695.999919
 20
646.720011
 30
0.0
 11
763.679932
 21
646.720011
 31
0.0
  0
LINE
  5
3A
330
17
100
AcDbEntity
  8
A-WALL
100
AcDbLine
 10
768.319987
 20
646.720011
 30
0.0
 11
799.199951
 21
646.720011
 31
0.0
  0
LINE
  5
3B
330
17
100
AcDbEntity
  8
A-WALL
100
AcDbLine
 10
803.999919
 20
646.720011
 30
0.0
 11
888.159993
 21
646.720011
 31
0.0
  0
LINE
  5
3C
330
17
100
AcDbEntity
  8
A-WALL
100
AcDbLine
 10
763.039958
 20
651.359985
 30
0.0
 11
763.039958
 21
679.999959
 31
0.0
  0
LINE
  5
3D
330
17
100
AcDbEntity
  8
A-WALL
100
AcDbLine
 10
758.399984
 20
651.359985
 30
0.0
 11
758.399984
 21
675.199992
 31
0.0
  0
LINE
  5
3E
330
17
100
AcDbEntity
  8
A-WALL
100
AcDbLine
 10
695.999919
 20
402.23999
 30
0.0
 11
831.039958
 21
402.23999
 31
0.0
  0
LINE
  5
3F
330
17
100
AcDbEntity
  8
A-WALL
100
AcDbLine
 10
695.999919
 20
397.599935
 30
0.0
 11
804.639974
 21
397.599935
 31
0.0
  0
LINE
  5
40
330
17
100
AcDbEntity
  8
A-WALL
100
AcDbLine
 10
831.039958
 20
402.23999
 30
0.0
 11
831.039958
 21
484.639974
 31
0.0
  0
LINE
  5
41
330
17
100
AcDbEntity
  8
A-WALL
100
AcDbLine
 10
835.839925
 20
452.639974
 30
0.0
 11
835.839925
 21
489.279948
 31
0.0
  0
LINE
  5
42
330
17
100
AcDbEntity
  8
A-WALL
100
AcDbLine
 10
804.639974
 20
397.599935
 30
0.0
 11
835.839925
 21
397.599935
 31
0.0
  0
LINE
  5
43
330
17
100
AcDbEntity
  8
A-WALL
100
AcDbLine
 10
1107.839925
 20
821.920003
 30
0.0
 11
1107.839925
 21
803.200033
 31
0.0
  0
LINE
  5
44
330
17
100
AcDbEntity
  8
A-WALL
100
AcDbLine
 10
1102.719971
 20
821.920003
 30
0.0
 11
1107.839925
 21
821.920003
 31
0.0
  0
LINE
  5
45
330
17
100
AcDbEntity
  8
A-WALL
100
AcDbLine
 10
871.039958
 20
821.920003
 30
0.0
 11
875.679932
 21
821.920003
 31
0.0
  0
LINE
  5
46
330
17
100
AcDbEntity
  8
A-WALL
100
AcDbLine
 10
915.199951
 20
821.920003
 30
0.0
 11
939.359945
 21
821.920003
 31
0.0
  0
LINE
  5
47
330
17
100
AcDbEntity
  8
A-WALL
100
AcDbLine
 10
695.999919
 20
821.920003
 30
0.0
 11
705.439941
 21
821.920003
 31
0.0
  0
LINE
  5
48
330
17
100
AcDbEntity
  8
A-WALL
100
AcDbLine
 10
743.839925
 20
821.920003
 30
0.0
 11
866.399984
 21
821.920003
 31
0.0
  0
LINE
  5
49
330
17
100
AcDbEntity
  8
A-WALL
100
AcDbLine
 10
571.679932
 20
634.720011
 30
0.0
 11
582.079915
 21
634.720011
 31
0.0
  0
LINE
  5
4A
330
17
100
AcDbEntity
  8
A-WALL
100
AcDbLine
 10
588.959961
 20
634.720011
 30
0.0
 11
689.279948
 21
634.720011
 31
0.0
  0
LINE
  5
4B
330
17
100
AcDbEntity
  8
A-WALL
100
AcDbLine
 10
588.959961
 20
634.720011
 30
0.0
 11
689.279948
 21
634.720011
 31
0.0
  0
LINE
  5
4C
330
17
100
AcDbEntity
  8
A-WALL
100
AcDbLine
 10
421.439941
 20
634.720011
 30
0.0
 11
532.159993
 21
634.720011
 31
0.0
  0
LINE
  5
4D
330
17
100
AcDbEntity
  8
A-WALL
100
AcDbLine
 10
121.919922
 20
634.720011
 30
0.0
 11
233.279948
 21
634.720011
 31
0.0
  0
LINE
  5
4E
330
17
100
AcDbEntity
  8
A-WALL
100
AcDbLine
 10
271.680013
 20
634.720011
 30
0.0
 11
383.039876
 21
634.720011
 31
0.0
  0
LINE
  5
4F
330
17
100
AcDbEntity
  8
A-WALL
100
AcDbLine
 10
149.439941
 20
322.720052
 30
0.0
 11
121.919922
 21
322.720052
 31
0.0
  0
LINE
  5
50
330
17
100
AcDbEntity
  8
A-WALL
100
AcDbLine
 10
689.279948
 20
322.720052
 30
0.0
 11
671.519938
 21
322.720052
 31
0.0
  0
LINE
  5
51
330
17
100
AcDbEntity
  8
A-WALL
100
AcDbLine
 10
631.999919
 20
322.720052
 30
0.0
 11
596.639974
 21
322.720052
 31
0.0
  0
LINE
  5
52
330
17
100
AcDbEntity
  8
A-WALL
100
AcDbLine
 10
836.959961
 20
297.76001
 30
0.0
 11
808.959961
 21
297.76001
 31
0.0
  0
LINE
  5
53
330
17
100
AcDbEntity
  8
A-WALL
100
AcDbLine
 10
804.319987
 20
297.76001
 30
0.0
 11
695.999919
 21
297.76001
 31
0.0
  0
LINE
  5
54
330
17
100
AcDbEntity
  8
A-WALL
100
AcDbLine
 10
836.959961
 20
291.040039
 30
0.0
 11
689.279948
 21
291.040039
 31
0.0
  0
LINE
  5
55
330
17
100
AcDbEntity
  8
A-WALL
100
AcDbLine
 10
906.399984
 20
445.439941
 30
0.0
 11
906.399984
 21
421.279948
 31
0.0
  0
LINE
  5
56
330
17
100
AcDbEntity
  8
A-WALL
100
AcDbLine
 10
911.039958
 20
442.880046
 30
0.0
 11
911.039958
 21
421.279948
 31
0.0
  0
LINE
  5
57
330
17
100
AcDbEntity
  8
A-WALL
100
AcDbLine
 10
835.839925
 20
397.599935
 30
0.0
 11
835.839925
 21
452.639974
 31
0.0
  0
LINE
  5
58
330
17
100
AcDbEntity
  8
A-WALL
100
AcDbLine
 10
763.039958
 20
679.999959
 30
0.0
 11
747.199951
 21
679.999959
 31
0.0
  0
LINE
  5
59
330
17
100
AcDbEntity
  8
A-WALL
100
AcDbLine
 10
711.839925
 20
679.999959
 30
0.0
 11
695.999919
 21
679.999959
 31
0.0
  0
LINE
  5
5A
330
17
100
AcDbEntity
  8
A-WALL
100
AcDbLine
 10
758.399984
 20
675.199992
 30
0.0
 11
747.199951
 21
675.199992
 31
0.0
  0
LINE
  5
5B
330
17
100
AcDbEntity
  8
A-WALL
100
AcDbLine
 10
711.839925
 20
675.199992
 30
0.0
 11
695.999919
 21
675.199992
 31
0.0
  0
LINE
  5
5C
330
17
100
AcDbEntity
  8
A-WALL
100
AcDbLine
 10
695.999919
 20
534.23999
 30
0.0
 11
695.999919
 21
539.199992
 31
0.0
  0
LINE
  5
5D
330
17
100
AcDbEntity
  8
A-WALL
100
AcDbLine
 10
695.999919
 20
544.0
 30
0.0
 11
695.999919
 21
635.680013
 31
0.0
  0
LINE
  5
5E
330
17
100
AcDbEntity
  8
A-WALL
100
AcDbLine
 10
689.279948
 20
322.720052
 30
0.0
 11
689.279948
 21
484.47998
 31
0.0
  0
LINE
  5
5F
330
17
100
AcDbEntity
  8
A-WALL
100
AcDbLine
 10
689.279948
 20
491.360026
 30
0.0
 11
689.279948
 21
494.720052
 31
0.0
  0
LINE
  5
60
330
17
100
AcDbEntity
  8
A-WALL
100
AcDbLine
 10
689.279948
 20
534.23999
 30
0.0
 11
689.279948
 21
578.079997
 31
0.0
  0
LINE
  5
61
330
17
100
AcDbEntity
  8
A-WALL
100
AcDbLine
 10
689.279948
 20
584.800008
 30
0.0
 11
689.279948
 21
634.720011
 31
0.0
  0
LINE
  5
62
330
17
100
AcDbEntity
  8
A-WALL
100
AcDbLine
 10
930.079915
 20
659.680013
 30
0.0
 11
892.639974
 21
659.680013
 31
0.0
  0
LINE
  5
63
330
17
100
AcDbEntity
  8
A-WALL
100
AcDbLine
 10
930.079915
 20
666.400024
 30
0.0
 11
871.039958
 21
666.400024
 31
0.0
  0
LINE
  5
64
330
17
100
AcDbEntity
  8
A-WALL
100
AcDbLine
 10
866.399984
 20
821.920003
 30
0.0
 11
866.399984
 21
709.120036
 31
0.0
  0
LINE
  5
65
330
17
100
AcDbEntity
  8
A-WALL
100
AcDbLine
 10
871.039958
 20
821.920003
 30
0.0
 11
871.039958
 21
709.120036
 31
0.0
  0
LINE
  5
66
330
17
100
AcDbEntity
  8
A-WALL
100
AcDbLine
 10
977.919922
 20
821.920003
 30
0.0
 11
1064.159993
 21
821.920003
 31
0.0
  0
LINE
  5
67
330
17
100
AcDbEntity
  8
A-WALL
100
AcDbLine
 10
695.999919
 20
679.999959
 30
0.0
 11
695.999919
 21
740.320068
 31
0.0
  0
LINE
  5
68
330
17
100
AcDbEntity
  8
A-WALL
100
AcDbLine
 10
695.999919
 20
814.880046
 30
0.0
 11
695.999919
 21
821.920003
 31
0.0
  0
LINE
  5
69
330
17
100
AcDbEntity
  8
A-WALL
100
AcDbLine
 10
689.279948
 20
584.800008
 30
0.0
 11
588.959961
 21
584.800008
 31
0.0
  0
LINE
  5
6A
330
17
100
AcDbEntity
  8
A-WALL
100
AcDbLine
 10
689.279948
 20
578.079997
 30
0.0
 11
588.959961
 21
578.079997
 31
0.0
  0
LINE
  5
6B
330
17
100
AcDbEntity
  8
A-WALL
100
AcDbLine
 10
582.079915
 20
578.079997
 30
0.0
 11
582.079915
 21
578.079997
 31
0.0
  0
LINE
  5
6C
330
17
100
AcDbEntity
  8
A-WALL
100
AcDbLine
 10
588.959961
 20
584.800008
 30
0.0
 11
588.959961
 21
586.559977
 31
0.0
  0
LINE
  5
6D
330
17
100
AcDbEntity
  8
A-WALL
100
AcDbLine
 10
588.959961
 20
626.079997
 30
0.0
 11
588.959961
 21
634.720011
 31
0.0
  0
LINE
  5
6E
330
17
100
AcDbEntity
  8
A-WALL
100
AcDbLine
 10
582.079915
 20
578.079997
 30
0.0
 11
582.079915
 21
586.559977
 31
0.0
  0
LINE
  5
6F
330
17
100
AcDbEntity
  8
A-WALL
100
AcDbLine
 10
582.079915
 20
626.079997
 30
0.0
 11
582.079915
 21
634.720011
 31
0.0
  0
LINE
  5
70
330
17
100
AcDbEntity
  8
A-WALL
100
AcDbLine
 10
774.879964
 20
235.040039
 30
0.0
 11
774.399984
 21
236.959961
 31
0.0
  0
LINE
  5
71
330
17
100
AcDbEntity
  8
A-WALL
100
AcDbLine
 10
774.399984
 20
236.959961
 30
0.0
 11
773.119954
 21
238.399984
 31
0.0
  0
LINE
  5
72
330
17
100
AcDbEntity
  8
A-WALL
100
AcDbLine
 10
773.119954
 20
238.399984
 30
0.0
 11
771.199951
 21
239.200033
 31
0.0
  0
LINE
  5
73
330
17
100
AcDbEntity
  8
A-WALL
100
AcDbLine
 10
771.199951
 20
239.200033
 30
0.0
 11
769.279948
 21
239.040039
 31
0.0
  0
LINE
  5
74
330
17
100
AcDbEntity
  8
A-WALL
100
AcDbLine
 10
769.279948
 20
239.040039
 30
0.0
 11
767.679932
 21
237.920003
 31
0.0
  0
LINE
  5
75
330
17
100
AcDbEntity
  8
A-WALL
100
AcDbLine
 10
767.679932
 20
237.920003
 30
0.0
 11
766.719971
 21
236.319987
 31
0.0
  0
LINE
  5
76
330
17
100
AcDbEntity
  8
A-WALL
100
AcDbLine
 10
766.719971
 20
236.319987
 30
0.0
 11
766.559977
 21
234.23999
 31
0.0
  0
LINE
  5
77
330
17
100
AcDbEntity
  8
A-WALL
100
AcDbLine
 10
766.559977
 20
234.23999
 30
0.0
 11
767.359945
 21
232.47998
 31
0.0
  0
LINE
  5
78
330
17
100
AcDbEntity
  8
A-WALL
100
AcDbLine
 10
767.359945
 20
232.47998
 30
0.0
 11
768.959961
 21
231.360026
 31
0.0
  0
LINE
  5
79
330
17
100
AcDbEntity
  8
A-WALL
100
AcDbLine
 10
768.959961
 20
231.360026
 30
0.0
 11
770.879964
 21
230.880046
 31
0.0
  0
LINE
  5
7A
330
17
100
AcDbEntity
  8
A-WALL
100
AcDbLine
 10
770.879964
 20
230.880046
 30
0.0
 11
772.639974
 21
231.52002
 31
0.0
  0
LINE
  5
7B
330
17
100
AcDbEntity
  8
A-WALL
100
AcDbLine
 10
772.639974
 20
231.52002
 30
0.0
 11
774.079915
 21
232.799967
 31
0.0
  0
LINE
  5
7C
330
17
100
AcDbEntity
  8
A-WALL
100
AcDbLine
 10
774.079915
 20
232.799967
 30
0.0
 11
774.719971
 21
234.559977
 31
0.0
  0
LINE
  5
7D
330
17
100
AcDbEntity
  8
A-WALL
100
AcDbLine
 10
774.719971
 20
234.559977
 30
0.0
 11
774.879964
 21
235.040039
 31
0.0
  0
LINE
  5
7E
330
17
100
AcDbEntity
  8
A-WALL
100
AcDbLine
 10
829.919922
 20
235.040039
 30
0.0
 11
829.439941
 21
236.959961
 31
0.0
  0
LINE
  5
7F
330
17
100
AcDbEntity
  8
A-WALL
100
AcDbLine
 10
829.439941
 20
236.959961
 30
0.0
 11
828.159993
 21
238.399984
 31
0.0
  0
LINE
  5
80
330
17
100
AcDbEntity
  8
A-WALL
100
AcDbLine
 10
828.159993
 20
238.399984
 30
0.0
 11
826.399984
 21
239.200033
 31
0.0
  0
LINE
  5
81
330
17
100
AcDbEntity
  8
A-WALL
100
AcDbLine
 10
826.399984
 20
239.200033
 30
0.0
 11
824.47998
 21
239.040039
 31
0.0
  0
LINE
  5
82
330
17
100
AcDbEntity
  8
A-WALL
100
AcDbLine
 10
824.47998
 20
239.040039
 30
0.0
 11
822.719971
 21
237.920003
 31
0.0
  0
LINE
  5
83
330
17
100
AcDbEntity
  8
A-WALL
100
AcDbLine
 10
822.719971
 20
237.920003
 30
0.0
 11
821.759928
 21
236.319987
 31
0.0
  0
LINE
  5
84
330
17
100
AcDbEntity
  8
A-WALL
100
AcDbLine
 10
821.759928
 20
236.319987
 30
0.0
 11
821.599935
 21
234.23999
 31
0.0
  0
LINE
  5
85
330
17
100
AcDbEntity
  8
A-WALL
100
AcDbLine
 10
821.599935
 20
234.23999
 30
0.0
 11
822.399984
 21
232.47998
 31
0.0
  0
LINE
  5
86
330
17
100
AcDbEntity
  8
A-WALL
100
AcDbLine
 10
822.399984
 20
232.47998
 30
0.0
 11
823.999919
 21
231.360026
 31
0.0
  0
LINE
  5
87
330
17
100
AcDbEntity
  8
A-WALL
100
AcDbLine
 10
823.999919
 20
231.360026
 30
0.0
 11
825.919922
 21
230.880046
 31
0.0
  0
LINE
  5
88
330
17
100
AcDbEntity
  8
A-WALL
100
AcDbLine
 10
825.919922
 20
230.880046
 30
0.0
 11
827.839925
 21
231.52002
 31
0.0
  0
LINE
  5
89
330
17
100
AcDbEntity
  8
A-WALL
100
AcDbLine
 10
827.839925
 20
231.52002
 30
0.0
 11
829.279948
 21
232.799967
 31
0.0
  0
LINE
  5
8A
330
17
100
AcDbEntity
  8
A-WALL
100
AcDbLine
 10
829.279948
 20
232.799967
 30
0.0
 11
829.919922
 21
234.559977
 31
0.0
  0
LINE
  5
8B
330
17
100
AcDbEntity
  8
A-WALL
100
AcDbLine
 10
829.919922
 20
234.559977
 30
0.0
 11
829.919922
 21
235.040039
 31
0.0
  0
LINE
  5
8C
330
17
100
AcDbEntity
  8
A-WALL
100
AcDbLine
 10
743.519938
 20
345.279948
 30
0.0
 11
804.319987
 21
345.279948
 31
0.0
  0
LINE
  5
8D
330
17
100
AcDbEntity
  8
A-WALL
100
AcDbLine
 10
743.519938
 20
349.920003
 30
0.0
 11
808.959961
 21
349.920003
 31
0.0
  0
LINE
  5
8E
330
17
100
AcDbEntity
  8
A-WALL
100
AcDbLine
 10
804.319987
 20
297.76001
 30
0.0
 11
804.319987
 21
305.76001
 31
0.0
  0
LINE
  5
8F
330
17
100
AcDbEntity
  8
A-WALL
100
AcDbLine
 10
804.319987
 20
340.959961
 30
0.0
 11
804.319987
 21
345.279948
 31
0.0
  0
LINE
  5
90
330
17
100
AcDbEntity
  8
A-WALL
100
AcDbLine
 10
808.959961
 20
297.76001
 30
0.0
 11
808.959961
 21
305.600016
 31
0.0
  0
LINE
  5
91
330
17
100
AcDbEntity
  8
A-WALL
100
AcDbLine
 10
808.959961
 20
340.959961
 30
0.0
 11
808.959961
 21
349.920003
 31
0.0
  0
LINE
  5
92
330
17
100
AcDbEntity
  8
A-WALL
100
AcDbLine
 10
743.519938
 20
345.279948
 30
0.0
 11
743.519938
 21
349.920003
 31
0.0
  0
LINE
  5
93
330
17
100
AcDbEntity
  8
A-WALL
100
AcDbLine
 10
956.319987
 20
489.279948
 30
0.0
 11
950.23999
 21
489.279948
 31
0.0
  0
LINE
  5
94
330
17
100
AcDbEntity
  8
A-WALL
100
AcDbLine
 10
956.319987
 20
484.639974
 30
0.0
 11
952.799967
 21
484.639974
 31
0.0
  0
LINE
  5
95
330
17
100
AcDbEntity
  8
A-WALL
100
AcDbLine
 10
956.319987
 20
489.279948
 30
0.0
 11
956.319987
 21
484.639974
 31
0.0
  0
LINE
  5
96
330
17
100
AcDbEntity
  8
A-WALL
100
AcDbLine
 10
803.999919
 20
544.0
 30
0.0
 11
803.999919
 21
566.559977
 31
0.0
  0
LINE
  5
97
330
17
100
AcDbEntity
  8
A-WALL
100
AcDbLine
 10
803.999919
 20
570.720011
 30
0.0
 11
803.999919
 21
646.720011
 31
0.0
  0
LINE
  5
98
330
17
100
AcDbEntity
  8
A-WALL
100
AcDbLine
 10
799.199951
 20
544.0
 30
0.0
 11
799.199951
 21
606.399984
 31
0.0
  0
LINE
  5
99
330
17
100
AcDbEntity
  8
A-WALL
100
AcDbLine
 10
799.199951
 20
611.039998
 30
0.0
 11
799.199951
 21
646.720011
 31
0.0
  0
LINE
  5
9A
330
17
100
AcDbEntity
  8
A-WALL
100
AcDbLine
 10
887.999919
 20
544.0
 30
0.0
 11
848.47998
 21
544.0
 31
0.0
  0
LINE
  5
9B
330
17
100
AcDbEntity
  8
A-WALL
100
AcDbLine
 10
866.399984
 20
673.759969
 30
0.0
 11
866.399984
 21
651.359985
 31
0.0
  0
LINE
  5
9C
330
17
100
AcDbEntity
  8
A-WALL
100
AcDbLine
 10
763.039958
 20
651.359985
 30
0.0
 11
866.399984
 21
651.359985
 31
0.0
  0
LINE
  5
9D
330
17
100
AcDbEntity
  8
A-WALL
100
AcDbLine
 10
725.599935
 20
539.199992
 30
0.0
 11
695.999919
 21
539.199992
 31
0.0
  0
LINE
  5
9E
330
17
100
AcDbEntity
  8
A-WALL
100
AcDbLine
 10
799.199951
 20
544.0
 30
0.0
 11
760.959961
 21
544.0
 31
0.0
  0
LINE
  5
9F
330
17
100
AcDbEntity
  8
A-WALL
100
AcDbLine
 10
725.599935
 20
544.0
 30
0.0
 11
695.999919
 21
544.0
 31
0.0
  0
LINE
  5
A0
330
17
100
AcDbEntity
  8
A-WALL
100
AcDbLine
 10
799.199951
 20
606.399984
 30
0.0
 11
763.679932
 21
606.399984
 31
0.0
  0
LINE
  5
A1
330
17
100
AcDbEntity
  8
A-WALL
100
AcDbLine
 10
799.199951
 20
611.039998
 30
0.0
 11
768.319987
 21
611.039998
 31
0.0
  0
LINE
  5
A2
330
17
100
AcDbEntity
  8
A-WALL
100
AcDbLine
 10
763.679932
 20
606.399984
 30
0.0
 11
763.679932
 21
611.039998
 31
0.0
  0
LINE
  5
A3
330
17
100
AcDbEntity
  8
A-WALL
100
AcDbLine
 10
831.039958
 20
484.639974
 30
0.0
 11
774.23999
 21
484.639974
 31
0.0
  0
LINE
  5
A4
330
17
100
AcDbEntity
  8
A-WALL
100
AcDbLine
 10
738.879964
 20
484.639974
 30
0.0
 11
695.999919
 21
484.639974
 31
0.0
  0
LINE
  5
A5
330
17
100
AcDbEntity
  8
A-WALL
100
AcDbLine
 10
835.839925
 20
489.279948
 30
0.0
 11
774.23999
 21
489.279948
 31
0.0
  0
LINE
  5
A6
330
17
100
AcDbEntity
  8
A-WALL
100
AcDbLine
 10
738.879964
 20
489.279948
 30
0.0
 11
695.999919
 21
489.279948
 31
0.0
  0
LINE
  5
A7
330
17
100
AcDbEntity
  8
A-WALL
100
AcDbLine
 10
582.079915
 20
578.079997
 30
0.0
 11
582.079915
 21
484.47998
 31
0.0
  0
LINE
  5
A8
330
17
100
AcDbEntity
  8
A-WALL
100
AcDbLine
 10
588.959961
 20
578.079997
 30
0.0
 11
588.959961
 21
491.360026
 31
0.0
  0
LINE
  5
A9
330
17
100
AcDbEntity
  8
A-WALL
100
AcDbLine
 10
582.079915
 20
484.47998
 30
0.0
 11
594.719971
 21
484.47998
 31
0.0
  0
LINE
  5
AA
330
17
100
AcDbEntity
  8
A-WALL
100
AcDbLine
 10
634.23999
 20
484.47998
 30
0.0
 11
689.279948
 21
484.47998
 31
0.0
  0
LINE
  5
AB
330
17
100
AcDbEntity
  8
A-WALL
100
AcDbLine
 10
588.959961
 20
491.360026
 30
0.0
 11
594.719971
 21
491.360026
 31
0.0
  0
LINE
  5
AC
330
17
100
AcDbEntity
  8
A-WALL
100
AcDbLine
 10
634.23999
 20
491.360026
 30
0.0
 11
689.279948
 21
491.360026
 31
0.0
  0
LINE
  5
AD
330
17
100
AcDbEntity
  8
A-WALL
100
AcDbLine
 10
950.23999
 20
489.279948
 30
0.0
 11
906.399984
 21
445.439941
 31
0.0
  0
LINE
  5
AE
330
17
100
AcDbEntity
  8
A-WALL
100
AcDbLine
 10
952.799967
 20
484.639974
 30
0.0
 11
911.039958
 21
442.880046
 31
0.0
  0
LINE
  5
AF
330
17
100
AcDbEntity
  8
A-WALL
100
AcDbLine
 10
871.039958
 20
673.759969
 30
0.0
 11
871.039958
 21
666.400024
 31
0.0
  0
LINE
  5
B0
330
17
100
AcDbEntity
  8
A-WALL
100
AcDbLine
 10
888.159993
 20
646.720011
 30
0.0
 11
888.159993
 21
579.519979
 31
0.0
  0
LINE
  5
B1
330
17
100
AcDbEntity
  8
A-WALL
100
AcDbLine
 10
887.999919
 20
546.23999
 30
0.0
 11
887.999919
 21
544.0
 31
0.0
  0
LINE
  5
B2
330
17
100
AcDbEntity
  8
A-WALL
100
AcDbLine
 10
892.639974
 20
659.680013
 30
0.0
 11
892.639974
 21
579.519979
 31
0.0
  0
LINE
  5
B3
330
17
100
AcDbEntity
  8
A-WALL
100
AcDbLine
 10
892.639974
 20
546.23999
 30
0.0
 11
892.639974
 21
539.199992
 31
0.0
  0
LINE
  5
B4
330
17
100
AcDbEntity
  8
A-WALL
100
AcDbLine
 10
763.679932
 20
611.039998
 30
0.0
 11
763.679932
 21
613.279989
 31
0.0
  0
LINE
  5
B5
330
17
100
AcDbEntity
  8
A-WALL
100
AcDbLine
 10
763.679932
 20
644.47998
 30
0.0
 11
763.679932
 21
646.720011
 31
0.0
  0
LINE
  5
B6
330
17
100
AcDbEntity
  8
A-WALL
100
AcDbLine
 10
768.319987
 20
611.039998
 30
0.0
 11
768.319987
 21
613.279989
 31
0.0
  0
LINE
  5
B7
330
17
100
AcDbEntity
  8
A-WALL
100
AcDbLine
 10
768.319987
 20
644.47998
 30
0.0
 11
768.319987
 21
646.720011
 31
0.0
  0
LINE
  5
B8
330
17
100
AcDbEntity
  8
A-WALL
100
AcDbLine
 10
848.47998
 20
544.0
 30
0.0
 11
848.47998
 21
570.720011
 31
0.0
  0
LINE
  5
B9
330
17
100
AcDbEntity
  8
A-WALL
100
AcDbLine
 10
843.839925
 20
544.0
 30
0.0
 11
843.839925
 21
566.079997
 31
0.0
  0
LINE
  5
BA
330
17
100
AcDbEntity
  8
A-WALL
100
AcDbLine
 10
803.999919
 20
570.720011
 30
0.0
 11
848.47998
 21
570.720011
 31
0.0
  0
LINE
  5
BB
330
17
100
AcDbEntity
  8
A-WALL
100
AcDbLine
 10
803.999919
 20
566.559977
 30
0.0
 11
843.839925
 21
566.079997
 31
0.0
  0
LINE
  5
BC
330
17
100
AcDbEntity
  8
A-WALL
100
AcDbLine
 10
843.839925
 20
544.0
 30
0.0
 11
840.47998
 21
544.0
 31
0.0
  0
LINE
  5
BD
330
17
100
AcDbEntity
  8
A-WALL
100
AcDbLine
 10
807.199951
 20
544.0
 30
0.0
 11
803.999919
 21
544.0
 31
0.0
  0
LINE
  5
BE
330
17
100
AcDbEntity
  8
A-WALL
100
AcDbLine
 10
892.639974
 20
539.199992
 30
0.0
 11
840.47998
 21
539.199992
 31
0.0
  0
LINE
  5
BF
330
17
100
AcDbEntity
  8
A-WALL
100
AcDbLine
 10
807.199951
 20
539.199992
 30
0.0
 11
760.959961
 21
539.199992
 31
0.0
  0
LINE
  5
C0
330
17
100
AcDbEntity
  8
A-WALL
100
AcDbLine
 10
695.999919
 20
474.559977
 30
0.0
 11
695.999919
 21
484.639974
 31
0.0
  0
LINE
  5
C1
330
17
100
AcDbEntity
  8
A-WALL
100
AcDbLine
 10
695.999919
 20
489.279948
 30
0.0
 11
695.999919
 21
494.720052
 31
0.0
  0
LINE
  5
C2
330
17
100
AcDbEntity
  8
A-WALL
100
AcDbLine
 10
689.279948
 20
291.040039
 30
0.0
 11
689.279948
 21
316.0
 31
0.0
  0
LINE
  5
C3
330
17
100
AcDbEntity
  8
A-WALL
100
AcDbLine
 10
115.200033
 20
316.0
 30
0.0
 11
115.200033
 21
641.439982
 31
0.0
  0
LINE
  5
C4
330
17
100
AcDbEntity
  8
A-WALL
100
AcDbLine
 10
1114.559977
 20
828.640055
 30
0.0
 11
1114.559977
 21
803.200033
 31
0.0
  0
LINE
  5
C5
330
17
100
AcDbEntity
  8
A-WALL
100
AcDbLine
 10
1102.719971
 20
828.640055
 30
0.0
 11
1114.559977
 21
828.640055
 31
0.0
  0
LINE
  5
C6
330
17
100
AcDbEntity
  8
A-WALL
100
AcDbLine
 10
689.279948
 20
828.640055
 30
0.0
 11
705.439941
 21
828.640055
 31
0.0
  0
LINE
  5
C7
330
17
100
AcDbEntity
  8
A-WALL
100
AcDbLine
 10
743.839925
 20
828.640055
 30
0.0
 11
875.679932
 21
828.640055
 31
0.0
  0
LINE
  5
C8
330
17
100
AcDbEntity
  8
A-WALL
100
AcDbLine
 10
571.679932
 20
641.439982
 30
0.0
 11
689.279948
 21
641.439982
 31
0.0
  0
LINE
  5
C9
330
17
100
AcDbEntity
  8
A-WALL
100
AcDbLine
 10
571.679932
 20
641.439982
 30
0.0
 11
689.279948
 21
641.439982
 31
0.0
  0
LINE
  5
CA
330
17
100
AcDbEntity
  8
A-WALL
100
AcDbLine
 10
421.439941
 20
641.439982
 30
0.0
 11
532.159993
 21
641.439982
 31
0.0
  0
LINE
  5
CB
330
17
100
AcDbEntity
  8
A-WALL
100
AcDbLine
 10
115.200033
 20
641.439982
 30
0.0
 11
233.279948
 21
641.439982
 31
0.0
  0
LINE
  5
CC
330
17
100
AcDbEntity
  8
A-WALL
100
AcDbLine
 10
271.680013
 20
641.439982
 30
0.0
 11
383.039876
 21
641.439982
 31
0.0
  0
LINE
  5
CD
330
17
100
AcDbEntity
  8
A-WALL
100
AcDbLine
 10
149.439941
 20
316.0
 30
0.0
 11
115.200033
 21
316.0
 31
0.0
  0
LINE
  5
CE
330
17
100
AcDbEntity
  8
A-WALL
100
AcDbLine
 10
689.279948
 20
316.0
 30
0.0
 11
671.519938
 21
316.0
 31
0.0
  0
LINE
  5
CF
330
17
100
AcDbEntity
  8
A-WALL
100
AcDbLine
 10
631.999919
 20
316.0
 30
0.0
 11
596.639974
 21
316.0
 31
0.0
  0
LINE
  5
D0
330
17
100
AcDbEntity
  8
A-WALL
100
AcDbLine
 10
915.199951
 20
828.640055
 30
0.0
 11
939.359945
 21
828.640055
 31
0.0
  0
LINE
  5
D1
330
17
100
AcDbEntity
  8
A-WALL
100
AcDbLine
 10
977.919922
 20
828.640055
 30
0.0
 11
1064.159993
 21
828.640055
 31
0.0
  0
LINE
  5
D2
330
17
100
AcDbEntity
  8
A-WALL
100
AcDbLine
 10
689.279948
 20
641.439982
 30
0.0
 11
689.279948
 21
740.320068
 31
0.0
  0
LINE
  5
D3
330
17
100
AcDbEntity
  8
A-WALL
100
AcDbLine
 10
689.279948
 20
814.880046
 30
0.0
 11
689.279948
 21
828.640055
 31
0.0
  0
LINE
  5
D4
330
17
100
AcDbEntity
  8
A-WALL
100
AcDbLine
 10
689.279948
 20
814.880046
 30
0.0
 11
689.279948
 21
828.640055
 31
0.0
  0
LINE
  5
D5
330
17
100
AcDbEntity
  8
A-WALL
100
AcDbLine
 10
840.47998
 20
539.840007
 30
0.0
 11
807.199951
 21
539.840007
 31
0.0
  0
LINE
  5
D6
330
17
100
AcDbEntity
  8
A-WALL
100
AcDbLine
 10
870.559977
 20
650.880005
 30
0.0
 11
888.799967
 21
650.880005
 31
0.0
  0
LINE
  5
D7
330
17
100
AcDbEntity
  8
A-WALL
100
AcDbLine
 10
888.799967
 20
660.159993
 30
0.0
 11
870.559977
 21
660.159993
 31
0.0
  0
LINE
  5
D8
330
17
100
AcDbEntity
  8
A-WALL
100
AcDbLine
 10
926.079915
 20
657.599976
 30
0.0
 11
926.079915
 21
604.800008
 31
0.0
  0
LINE
  5
D9
330
17
100
AcDbEntity
  8
A-WALL
100
AcDbLine
 10
922.719971
 20
657.599976
 30
0.0
 11
922.719971
 21
604.800008
 31
0.0
  0
LINE
  5
DA
330
17
100
AcDbEntity
  8
A-WALL
100
AcDbLine
 10
688.159993
 20
737.600016
 30
0.0
 11
688.159993
 21
817.76001
 31
0.0
  0
LINE
  5
DB
330
17
100
AcDbEntity
  8
A-WALL
100
AcDbLine
 10
696.639974
 20
737.600016
 30
0.0
 11
696.639974
 21
817.76001
 31
0.0
  0
LINE
  5
DC
330
17
100
AcDbEntity
  8
A-WALL
100
AcDbLine
 10
926.079915
 20
657.599976
 30
0.0
 11
926.079915
 21
604.800008
 31
0.0
  0
LINE
  5
DD
330
17
100
AcDbEntity
  8
A-WALL
100
AcDbLine
 10
923.999919
 20
657.599976
 30
0.0
 11
923.999919
 21
604.800008
 31
0.0
  0
LINE
  5
DE
330
17
100
AcDbEntity
  8
A-WALL
100
AcDbLine
 10
1157.759928
 20
497.439941
 30
0.0
 11
1157.759928
 21
489.279948
 31
0.0
  0
LINE
  5
DF
330
17
100
AcDbEntity
  8
A-WALL
100
AcDbLine
 10
1297.599935
 20
497.439941
 30
0.0
 11
1307.519938
 21
497.439941
 31
0.0
  0
LINE
  5
E0
330
17
100
AcDbEntity
  8
A-WALL
100
AcDbLine
 10
1307.519938
 20
497.439941
 30
0.0
 11
1307.519938
 21
489.599935
 31
0.0
  0
LINE
  5
E1
330
17
100
AcDbEntity
  8
A-WALL
100
AcDbLine
 10
1307.519938
 20
305.600016
 30
0.0
 11
1307.519938
 21
297.76001
 31
0.0
  0
LINE
  5
E2
330
17
100
AcDbEntity
  8
A-WALL
100
AcDbLine
 10
1307.519938
 20
297.76001
 30
0.0
 11
1292.959961
 21
297.76001
 31
0.0
  0
LINE
  5
E3
330
17
100
AcDbEntity
  8
A-WALL
100
AcDbLine
 10
1181.759928
 20
297.76001
 30
0.0
 11
1164.47998
 21
297.76001
 31
0.0
  0
LINE
  5
E4
330
17
100
AcDbEntity
  8
A-WALL
100
AcDbLine
 10
1157.759928
 20
545.279989
 30
0.0
 11
1157.759928
 21
497.439941
 31
0.0
  0
LINE
  5
E5
330
17
100
AcDbEntity
  8
A-WALL
100
AcDbLine
 10
1157.759928
 20
297.76001
 30
0.0
 11
1145.759928
 21
297.76001
 31
0.0
  0
LINE
  5
E6
330
17
100
AcDbEntity
  8
A-WALL
100
AcDbLine
 10
1181.759928
 20
291.040039
 30
0.0
 11
1145.759928
 21
291.040039
 31
0.0
  0
LINE
  5
E7
330
17
100
AcDbEntity
  8
A-WALL
100
AcDbLine
 10
1157.759928
 20
489.279948
 30
0.0
 11
1128.639974
 21
489.279948
 31
0.0
  0
LINE
  5
E8
330
17
100
AcDbEntity
  8
A-WALL
100
AcDbLine
 10
1157.759928
 20
484.639974
 30
0.0
 11
1128.639974
 21
484.639974
 31
0.0
  0
LINE
  5
E9
330
17
100
AcDbEntity
  8
A-WALL
100
AcDbLine
 10
1128.639974
 20
484.639974
 30
0.0
 11
1128.639974
 21
489.279948
 31
0.0
  0
LINE
  5
EA
330
17
100
AcDbEntity
  8
A-WALL
100
AcDbLine
 10
1157.759928
 20
484.639974
 30
0.0
 11
1157.759928
 21
477.439941
 31
0.0
  0
LINE
  5
EB
330
17
100
AcDbEntity
  8
A-WALL
100
AcDbLine
 10
1157.759928
 20
437.920003
 30
0.0
 11
1157.759928
 21
297.76001
 31
0.0
  0
LINE
  5
EC
330
17
100
AcDbEntity
  8
A-WALL
100
AcDbLine
 10
1164.47998
 20
497.439941
 30
0.0
 11
1164.47998
 21
477.439941
 31
0.0
  0
LINE
  5
ED
330
17
100
AcDbEntity
  8
A-WALL
100
AcDbLine
 10
1164.47998
 20
437.920003
 30
0.0
 11
1164.47998
 21
297.76001
 31
0.0
  0
LINE
  5
EE
330
17
100
AcDbEntity
  8
A-WALL
100
AcDbLine
 10
1164.47998
 20
497.439941
 30
0.0
 11
1172.799967
 21
497.439941
 31
0.0
  0
LINE
  5
EF
330
17
100
AcDbEntity
  8
A-WALL
100
AcDbLine
 10
1212.319987
 20
497.439941
 30
0.0
 11
1222.719971
 21
497.439941
 31
0.0
  0
LINE
  5
F0
330
17
100
AcDbEntity
  8
A-WALL
100
AcDbLine
 10
1162.239909
 20
235.040039
 30
0.0
 11
1161.759928
 21
236.959961
 31
0.0
  0
LINE
  5
F1
330
17
100
AcDbEntity
  8
A-WALL
100
AcDbLine
 10
1161.759928
 20
236.959961
 30
0.0
 11
1160.47998
 21
238.399984
 31
0.0
  0
LINE
  5
F2
330
17
100
AcDbEntity
  8
A-WALL
100
AcDbLine
 10
1160.47998
 20
238.399984
 30
0.0
 11
1158.719971
 21
239.200033
 31
0.0
  0
LINE
  5
F3
330
17
100
AcDbEntity
  8
A-WALL
100
AcDbLine
 10
1158.719971
 20
239.200033
 30
0.0
 11
1156.639974
 21
239.040039
 31
0.0
  0
LINE
  5
F4
330
17
100
AcDbEntity
  8
A-WALL
100
AcDbLine
 10
1156.639974
 20
239.040039
 30
0.0
 11
1155.039958
 21
237.920003
 31
0.0
  0
LINE
  5
F5
330
17
100
AcDbEntity
  8
A-WALL
100
AcDbLine
 10
1155.039958
 20
237.920003
 30
0.0
 11
1154.079915
 21
236.319987
 31
0.0
  0
LINE
  5
F6
330
17
100
AcDbEntity
  8
A-WALL
100
AcDbLine
 10
1154.079915
 20
236.319987
 30
0.0
 11
1153.919922
 21
234.23999
 31
0.0
  0
LINE
  5
F7
330
17
100
AcDbEntity
  8
A-WALL
100
AcDbLine
 10
1153.919922
 20
234.23999
 30
0.0
 11
1154.719971
 21
232.47998
 31
0.0
  0
LINE
  5
F8
330
17
100
AcDbEntity
  8
A-WALL
100
AcDbLine
 10
1154.719971
 20
232.47998
 30
0.0
 11
1156.319987
 21
231.360026
 31
0.0
  0
LINE
  5
F9
330
17
100
AcDbEntity
  8
A-WALL
100
AcDbLine
 10
1156.319987
 20
231.360026
 30
0.0
 11
1158.239909
 21
230.880046
 31
0.0
  0
LINE
  5
FA
330
17
100
AcDbEntity
  8
A-WALL
100
AcDbLine
 10
1158.239909
 20
230.880046
 30
0.0
 11
1160.159993
 21
231.52002
 31
0.0
  0
LINE
  5
FB
330
17
100
AcDbEntity
  8
A-WALL
100
AcDbLine
 10
1160.159993
 20
231.52002
 30
0.0
 11
1161.599935
 21
232.799967
 31
0.0
  0
LINE
  5
FC
330
17
100
AcDbEntity
  8
A-WALL
100
AcDbLine
 10
1161.599935
 20
232.799967
 30
0.0
 11
1162.239909
 21
234.559977
 31
0.0
  0
LINE
  5
FD
330
17
100
AcDbEntity
  8
A-WALL
100
AcDbLine
 10
1162.239909
 20
234.559977
 30
0.0
 11
1162.239909
 21
235.040039
 31
0.0
  0
LINE
  5
FE
330
17
100
AcDbEntity
  8
A-WALL
100
AcDbLine
 10
1193.919922
 20
376.639974
 30
0.0
 11
1177.279948
 21
381.439941
 31
0.0
  0
LINE
  5
FF
330
17
100
AcDbEntity
  8
A-WALL
100
AcDbLine
 10
1177.279948
 20
413.439941
 30
0.0
 11
1177.279948
 21
381.439941
 31
0.0
  0
LINE
  5
100
330
17
100
AcDbEntity
  8
A-WALL
100
AcDbLine
 10
1193.919922
 20
418.399984
 30
0.0
 11
1177.279948
 21
413.439941
 31
0.0
  0
LINE
  5
101
330
17
100
AcDbEntity
  8
A-WALL
100
AcDbLine
 10
1164.47998
 20
365.279948
 30
0.0
 11
1193.919922
 21
365.279948
 31
0.0
  0
LINE
  5
102
330
17
100
AcDbEntity
  8
A-WALL
100
AcDbLine
 10
1164.47998
 20
429.76001
 30
0.0
 11
1193.919922
 21
429.76001
 31
0.0
  0
LINE
  5
103
330
17
100
AcDbEntity
  8
A-WALL
100
AcDbLine
 10
1193.919922
 20
429.76001
 30
0.0
 11
1193.919922
 21
418.399984
 31
0.0
  0
LINE
  5
104
330
17
100
AcDbEntity
  8
A-WALL
100
AcDbLine
 10
1193.919922
 20
376.639974
 30
0.0
 11
1193.919922
 21
365.279948
 31
0.0
  0
LINE
  5
105
330
17
100
AcDbEntity
  8
A-WALL
100
AcDbLine
 10
1164.47998
 20
365.279948
 30
0.0
 11
1164.47998
 21
429.76001
 31
0.0
  0
LINE
  5
106
330
17
100
AcDbEntity
  8
A-WALL
100
AcDbLine
 10
1128.47998
 20
376.639974
 30
0.0
 11
1145.119954
 21
381.439941
 31
0.0
  0
LINE
  5
107
330
17
100
AcDbEntity
  8
A-WALL
100
AcDbLine
 10
1145.119954
 20
413.439941
 30
0.0
 11
1145.119954
 21
381.439941
 31
0.0
  0
LINE
  5
108
330
17
100
AcDbEntity
  8
A-WALL
100
AcDbLine
 10
1128.47998
 20
418.399984
 30
0.0
 11
1145.119954
 21
413.439941
 31
0.0
  0
LINE
  5
109
330
17
100
AcDbEntity
  8
A-WALL
100
AcDbLine
 10
1157.759928
 20
365.279948
 30
0.0
 11
1128.47998
 21
365.279948
 31
0.0
  0
LINE
  5
10A
330
17
100
AcDbEntity
  8
A-WALL
100
AcDbLine
 10
1157.759928
 20
429.76001
 30
0.0
 11
1128.47998
 21
429.76001
 31
0.0
  0
LINE
  5
10B
330
17
100
AcDbEntity
  8
A-WALL
100
AcDbLine
 10
1128.47998
 20
429.76001
 30
0.0
 11
1128.47998
 21
418.399984
 31
0.0
  0
LINE
  5
10C
330
17
100
AcDbEntity
  8
A-WALL
100
AcDbLine
 10
1128.47998
 20
376.639974
 30
0.0
 11
1128.47998
 21
365.279948
 31
0.0
  0
LINE
  5
10D
330
17
100
AcDbEntity
  8
A-WALL
100
AcDbLine
 10
1157.759928
 20
365.279948
 30
0.0
 11
1157.759928
 21
429.76001
 31
0.0
  0
LINE
  5
10E
330
17
100
AcDbEntity
  8
A-WALL
100
AcDbLine
 10
1297.599935
 20
504.159993
 30
0.0
 11
1314.239909
 21
504.159993
 31
0.0
  0
LINE
  5
10F
330
17
100
AcDbEntity
  8
A-WALL
100
AcDbLine
 10
1314.239909
 20
504.159993
 30
0.0
 11
1314.239909
 21
489.599935
 31
0.0
  0
LINE
  5
110
330
17
100
AcDbEntity
  8
A-WALL
100
AcDbLine
 10
1314.239909
 20
305.600016
 30
0.0
 11
1314.239909
 21
291.040039
 31
0.0
  0
LINE
  5
111
330
17
100
AcDbEntity
  8
A-WALL
100
AcDbLine
 10
1314.239909
 20
291.040039
 30
0.0
 11
1292.959961
 21
291.040039
 31
0.0
  0
LINE
  5
112
330
17
100
AcDbEntity
  8
A-WALL
100
AcDbLine
 10
1164.47998
 20
545.279989
 30
0.0
 11
1164.47998
 21
504.159993
 31
0.0
  0
LINE
  5
113
330
17
100
AcDbEntity
  8
A-WALL
100
AcDbLine
 10
1164.47998
 20
504.159993
 30
0.0
 11
1172.799967
 21
504.159993
 31
0.0
  0
LINE
  5
114
330
17
100
AcDbEntity
  8
A-WALL
100
AcDbLine
 10
1212.319987
 20
504.159993
 30
0.0
 11
1222.719971
 21
504.159993
 31
0.0
  0
LINE
  5
115
330
17
100
AcDbEntity
  8
A-WALL
100
AcDbLine
 10
1306.879964
 20
302.880046
 30
0.0
 11
1306.879964
 21
492.159993
 31
0.0
  0
LINE
  5
116
330
17
100
AcDbEntity
  8
A-WALL
100
AcDbLine
 10
1315.359945
 20
302.880046
 30
0.0
 11
1315.359945
 21
492.159993
 31
0.0
  0
LINE
  5
117
330
17
100
AcDbEntity
  8
A-WALL
100
AcDbLine
 10
1211.359945
 20
505.279948
 30
0.0
 11
1300.319987
 21
505.279948
 31
0.0
  0
LINE
  5
118
330
17
100
AcDbEntity
  8
A-WALL
100
AcDbLine
 10
1211.359945
 20
496.799967
 30
0.0
 11
1300.319987
 21
496.799967
 31
0.0
  0
LINE
  5
119
330
17
100
AcDbEntity
  8
A-WALL
100
AcDbLine
 10
1096.319987
 20
659.680013
 30
0.0
 11
1157.759928
 21
659.680013
 31
0.0
  0
LINE
  5
11A
330
17
100
AcDbEntity
  8
A-WALL
100
AcDbLine
 10
1107.839925
 20
691.840007
 30
0.0
 11
1107.839925
 21
666.400024
 31
0.0
  0
LINE
  5
11B
330
17
100
AcDbEntity
  8
A-WALL
100
AcDbLine
 10
1157.759928
 20
659.680013
 30
0.0
 11
1157.759928
 21
625.279989
 31
0.0
  0
LINE
  5
11C
330
17
100
AcDbEntity
  8
A-WALL
100
AcDbLine
 10
1096.319987
 20
659.680013
 30
0.0
 11
1039.519938
 21
659.680013
 31
0.0
  0
LINE
  5
11D
330
17
100
AcDbEntity
  8
A-WALL
100
AcDbLine
 10
1107.839925
 20
666.400024
 30
0.0
 11
1039.359945
 21
666.400024
 31
0.0
  0
LINE
  5
11E
330
17
100
AcDbEntity
  8
A-WALL
100
AcDbLine
 10
1114.559977
 20
666.400024
 30
0.0
 11
1164.47998
 21
666.400024
 31
0.0
  0
LINE
  5
11F
330
17
100
AcDbEntity
  8
A-WALL
100
AcDbLine
 10
1114.559977
 20
691.840007
 30
0.0
 11
1114.559977
 21
666.400024
 31
0.0
  0
LINE
  5
120
330
17
100
AcDbEntity
  8
A-WALL
100
AcDbLine
 10
1164.47998
 20
666.400024
 30
0.0
 11
1164.47998
 21
625.279989
 31
0.0
  0
LINE
  5
121
330
17
100
AcDbEntity
  8
A-WALL
100
AcDbLine
 10
394.879883
 20
322.720052
 30
0.0
 11
351.200033
 21
322.720052
 31
0.0
  0
LINE
  5
122
330
17
100
AcDbEntity
  8
A-WALL
100
AcDbLine
 10
394.879883
 20
316.0
 30
0.0
 11
351.200033
 21
316.0
 31
0.0
  0
LINE
  5
123
330
17
100
AcDbEntity
  8
A-WALL
100
AcDbLine
 10
906.399984
 20
297.76001
 30
0.0
 11
903.519938
 21
297.76001
 31
0.0
  0
LINE
  5
124
330
17
100
AcDbEntity
  8
A-WALL
100
AcDbLine
 10
926.399984
 20
297.76001
 30
0.0
 11
911.039958
 21
297.76001
 31
0.0
  0
LINE
  5
125
330
17
100
AcDbEntity
  8
A-WALL
100
AcDbLine
 10
926.399984
 20
291.040039
 30
0.0
 11
903.519938
 21
291.040039
 31
0.0
  0
LINE
  5
126
330
17
100
AcDbEntity
  8
A-WALL
100
AcDbLine
 10
906.399984
 20
319.360026
 30
0.0
 11
906.399984
 21
297.76001
 31
0.0
  0
LINE
  5
127
330
17
100
AcDbEntity
  8
A-WALL
100
AcDbLine
 10
911.039958
 20
319.360026
 30
0.0
 11
911.039958
 21
297.76001
 31
0.0
  0
LINE
  5
128
330
17
100
AcDbEntity
  8
A-WALL
100
AcDbLine
 10
918.879964
 20
235.040039
 30
0.0
 11
918.399984
 21
236.959961
 31
0.0
  0
LINE
  5
129
330
17
100
AcDbEntity
  8
A-WALL
100
AcDbLine
 10
918.399984
 20
236.959961
 30
0.0
 11
917.119954
 21
238.399984
 31
0.0
  0
LINE
  5
12A
330
17
100
AcDbEntity
  8
A-WALL
100
AcDbLine
 10
917.119954
 20
238.399984
 30
0.0
 11
915.359945
 21
239.200033
 31
0.0
  0
LINE
  5
12B
330
17
100
AcDbEntity
  8
A-WALL
100
AcDbLine
 10
915.359945
 20
239.200033
 30
0.0
 11
913.279948
 21
239.040039
 31
0.0
  0
LINE
  5
12C
330
17
100
AcDbEntity
  8
A-WALL
100
AcDbLine
 10
913.279948
 20
239.040039
 30
0.0
 11
911.679932
 21
237.920003
 31
0.0
  0
LINE
  5
12D
330
17
100
AcDbEntity
  8
A-WALL
100
AcDbLine
 10
911.679932
 20
237.920003
 30
0.0
 11
910.719971
 21
236.319987
 31
0.0
  0
LINE
  5
12E
330
17
100
AcDbEntity
  8
A-WALL
100
AcDbLine
 10
910.719971
 20
236.319987
 30
0.0
 11
910.559977
 21
234.23999
 31
0.0
  0
LINE
  5
12F
330
17
100
AcDbEntity
  8
A-WALL
100
AcDbLine
 10
910.559977
 20
234.23999
 30
0.0
 11
911.359945
 21
232.47998
 31
0.0
  0
LINE
  5
130
330
17
100
AcDbEntity
  8
A-WALL
100
AcDbLine
 10
911.359945
 20
232.47998
 30
0.0
 11
912.959961
 21
231.360026
 31
0.0
  0
LINE
  5
131
330
17
100
AcDbEntity
  8
A-WALL
100
AcDbLine
 10
912.959961
 20
231.360026
 30
0.0
 11
914.879964
 21
230.880046
 31
0.0
  0
LINE
  5
132
330
17
100
AcDbEntity
  8
A-WALL
100
AcDbLine
 10
914.879964
 20
230.880046
 30
0.0
 11
916.799967
 21
231.52002
 31
0.0
  0
LINE
  5
133
330
17
100
AcDbEntity
  8
A-WALL
100
AcDbLine
 10
916.799967
 20
231.52002
 30
0.0
 11
918.23999
 21
232.799967
 31
0.0
  0
LINE
  5
134
330
17
100
AcDbEntity
  8
A-WALL
100
AcDbLine
 10
918.23999
 20
232.799967
 30
0.0
 11
918.879964
 21
234.559977
 31
0.0
  0
LINE
  5
135
330
17
100
AcDbEntity
  8
A-WALL
100
AcDbLine
 10
918.879964
 20
234.559977
 30
0.0
 11
918.879964
 21
235.040039
 31
0.0
  0
LINE
  5
136
330
17
100
AcDbEntity
  8
A-WALL
100
AcDbLine
 10
1083.359945
 20
297.76001
 30
0.0
 11
988.799967
 21
297.76001
 31
0.0
  0
LINE
  5
137
330
17
100
AcDbEntity
  8
A-WALL
100
AcDbLine
 10
1083.359945
 20
291.040039
 30
0.0
 11
988.799967
 21
291.040039
 31
0.0
  0
LINE
  5
138
330
17
100
AcDbEntity
  8
A-WALL
100
AcDbLine
 10
1040.47998
 20
235.040039
 30
0.0
 11
1040.159993
 21
236.959961
 31
0.0
  0
LINE
  5
139
330
17
100
AcDbEntity
  8
A-WALL
100
AcDbLine
 10
1040.159993
 20
236.959961
 30
0.0
 11
1038.879964
 21
238.399984
 31
0.0
  0
LINE
  5
13A
330
17
100
AcDbEntity
  8
A-WALL
100
AcDbLine
 10
1038.879964
 20
238.399984
 30
0.0
 11
1036.959961
 21
239.200033
 31
0.0
  0
LINE
  5
13B
330
17
100
AcDbEntity
  8
A-WALL
100
AcDbLine
 10
1036.959961
 20
239.200033
 30
0.0
 11
1035.039958
 21
239.040039
 31
0.0
  0
LINE
  5
13C
330
17
100
AcDbEntity
  8
A-WALL
100
AcDbLine
 10
1035.039958
 20
239.040039
 30
0.0
 11
1033.439941
 21
237.920003
 31
0.0
  0
LINE
  5
13D
330
17
100
AcDbEntity
  8
A-WALL
100
AcDbLine
 10
1033.439941
 20
237.920003
 30
0.0
 11
1032.319987
 21
236.319987
 31
0.0
  0
LINE
  5
13E
330
17
100
AcDbEntity
  8
A-WALL
100
AcDbLine
 10
1032.319987
 20
236.319987
 30
0.0
 11
1032.319987
 21
234.23999
 31
0.0
  0
LINE
  5
13F
330
17
100
AcDbEntity
  8
A-WALL
100
AcDbLine
 10
1032.319987
 20
234.23999
 30
0.0
 11
1033.119954
 21
232.47998
 31
0.0
  0
LINE
  5
140
330
17
100
AcDbEntity
  8
A-WALL
100
AcDbLine
 10
1033.119954
 20
232.47998
 30
0.0
 11
1034.559977
 21
231.360026
 31
0.0
  0
LINE
  5
141
330
17
100
AcDbEntity
  8
A-WALL
100
AcDbLine
 10
1034.559977
 20
231.360026
 30
0.0
 11
1036.47998
 21
230.880046
 31
0.0
  0
LINE
  5
142
330
17
100
AcDbEntity
  8
A-WALL
100
AcDbLine
 10
1036.47998
 20
230.880046
 30
0.0
 11
1038.399984
 21
231.52002
 31
0.0
  0
LINE
  5
143
330
17
100
AcDbEntity
  8
A-WALL
100
AcDbLine
 10
1038.399984
 20
231.52002
 30
0.0
 11
1039.839925
 21
232.799967
 31
0.0
  0
LINE
  5
144
330
17
100
AcDbEntity
  8
A-WALL
100
AcDbLine
 10
1039.839925
 20
232.799967
 30
0.0
 11
1040.47998
 21
234.559977
 31
0.0
  0
LINE
  5
145
330
17
100
AcDbEntity
  8
A-WALL
100
AcDbLine
 10
1040.47998
 20
234.559977
 30
0.0
 11
1040.47998
 21
235.040039
 31
0.0
  0
ARC
  5
146
330
17
100
AcDbEntity
  8
A-DOOR
100
AcDbCircle
 10
874.1801208487354
 20
670.4332719659981
 30
0.0
 40
42.26280298404497
100
AcDbArc
 50
100.5617584006164
 51
174.130658339559
  0
ARC
  5
147
330
17
100
AcDbEntity
  8
A-DOOR
100
AcDbCircle
 10
889.0121271856874
 20
298.3703738640504
 30
0.0
 40
37.501232353152176
100
AcDbArc
 50
90.07976809538684
 51
179.95474962825574
  0
ARC
  5
148
330
17
100
AcDbEntity
  8
A-DOOR
100
AcDbCircle
 10
674.8265028545591
 20
315.07796485407755
 30
0.0
 40
46.253264813822696
100
AcDbArc
 50
95.33108870396288
 51
170.5405175792647
  0
ARC
  5
149
330
17
100
AcDbEntity
  8
A-DOOR
100
AcDbCircle
 10
708.6153648568766
 20
672.2316935763724
 30
0.0
 40
42.14790569510697
100
AcDbArc
 50
10.571308639214767
 51
84.2460095732571
  0
ARC
  5
14A
330
17
100
AcDbEntity
  8
A-DOOR
100
AcDbCircle
 10
1215.6746219620024
 20
505.18253617589573
 30
0.0
 40
46.34524511725927
100
AcDbArc
 50
-170.42826233662532
 51
-95.37914851673364
  0
ARC
  5
14B
330
17
100
AcDbEntity
  8
A-DOOR
100
AcDbCircle
 10
872.6603192325289
 20
829.3062916451805
 30
0.0
 40
45.96577462120794
100
AcDbArc
 50
-84.79763446369314
 51
-9.204891109421187
  0
ARC
  5
14C
330
17
100
AcDbEntity
  8
A-DOOR
100
AcDbCircle
 10
735.7068984667324
 20
492.34552414303704
 30
0.0
 40
42.07431249170348
100
AcDbArc
 50
-84.30790541960987
 51
-10.500588283894972
  0
ARC
  5
14D
330
17
100
AcDbEntity
  8
A-DOOR
100
AcDbCircle
 10
764.2336068672384
 20
536.1760132756692
 30
0.0
 40
42.182422090037164
100
AcDbArc
 50
95.8132826092503
 51
169.366822921803
  0
ARC
  5
14E
330
17
100
AcDbEntity
  8
A-DOOR
100
AcDbCircle
 10
591.5957480629364
 20
483.84077386613336
 30
0.0
 40
46.047226552380764
100
AcDbArc
 50
9.346625226162265
 51
84.88184662123989
  0
ARC
  5
14F
330
17
100
AcDbEntity
  8
A-DOOR
100
AcDbCircle
 10
895.791376065518
 20
542.9866056413964
 30
0.0
 40
40.17085281420876
100
AcDbArc
 50
101.13829366981666
 51
173.93142937520156
  0
ARC
  5
150
330
17
100
AcDbEntity
  8
A-DOOR
100
AcDbCircle
 10
769.4327776937034
 20
646.7558654426138
 30
0.0
 40
35.9562177281845
100
AcDbArc
 50
-174.53775882811198
 51
-99.15018547736425
  0
ARC
  5
151
330
17
100
AcDbEntity
  8
A-DOOR
100
AcDbCircle
 10
713.2704783739491
 20
616.3846335160665
 30
0.0
 40
21.218021675194038
100
AcDbArc
 50
54.743648564457395
 51
112.96110121037715
  0
LINE
  5
152
330
17
100
AcDbEntity
  8
A-GLAZ
100
AcDbLine
 10
728.959961
 20
661.76001
 30
0.0
 11
771.679932
 21
661.76001
 31
0.0
  0
LINE
  5
153
330
17
100
AcDbEntity
  8
A-GLAZ
100
AcDbLine
 10
786.879964
 20
661.76001
 30
0.0
 11
829.599935
 21
661.76001
 31
0.0
  0
LINE
  5
154
330
17
100
AcDbEntity
  8
A-GLAZ
100
AcDbLine
 10
829.599935
 20
661.76001
 30
0.0
 11
872.47998
 21
661.76001
 31
0.0
  0
LINE
  5
155
330
17
100
AcDbEntity
  8
A-GLAZ
100
AcDbLine
 10
887.519938
 20
661.76001
 30
0.0
 11
930.399984
 21
661.76001
 31
0.0
  0
LINE
  5
156
330
17
100
AcDbEntity
  8
A-GLAZ
100
AcDbLine
 10
930.399984
 20
661.76001
 30
0.0
 11
973.119954
 21
661.76001
 31
0.0
  0
LINE
  5
157
330
17
100
AcDbEntity
  8
A-GLAZ
100
AcDbLine
 10
988.319987
 20
661.76001
 30
0.0
 11
1031.039958
 21
661.76001
 31
0.0
  0
LINE
  5
158
330
17
100
AcDbEntity
  8
A-GLAZ
100
AcDbLine
 10
1031.039958
 20
661.76001
 30
0.0
 11
1073.919922
 21
661.76001
 31
0.0
  0
LINE
  5
159
330
17
100
AcDbEntity
  8
A-GLAZ
100
AcDbLine
 10
1088.959961
 20
661.76001
 30
0.0
 11
1131.840007
 21
661.76001
 31
0.0
  0
LINE
  5
15A
330
17
100
AcDbEntity
  8
A-GLAZ
100
AcDbLine
 10
1131.840007
 20
661.76001
 30
0.0
 11
1174.559896
 21
661.76001
 31
0.0
  0
LINE
  5
15B
330
17
100
AcDbEntity
  8
A-GLAZ
100
AcDbLine
 10
1189.599935
 20
661.76001
 30
0.0
 11
1232.47998
 21
661.76001
 31
0.0
  0
LINE
  5
15C
330
17
100
AcDbEntity
  8
A-GLAZ
100
AcDbLine
 10
628.319987
 20
487.040039
 30
0.0
 11
671.039958
 21
487.040039
 31
0.0
  0
LINE
  5
15D
330
17
100
AcDbEntity
  8
A-GLAZ
100
AcDbLine
 10
686.079915
 20
487.040039
 30
0.0
 11
728.959961
 21
487.040039
 31
0.0
  0
LINE
  5
15E
330
17
100
AcDbEntity
  8
A-GLAZ
100
AcDbLine
 10
728.959961
 20
487.040039
 30
0.0
 11
771.679932
 21
487.040039
 31
0.0
  0
LINE
  5
15F
330
17
100
AcDbEntity
  8
A-GLAZ
100
AcDbLine
 10
786.879964
 20
487.040039
 30
0.0
 11
829.599935
 21
487.040039
 31
0.0
  0
LINE
  5
160
330
17
100
AcDbEntity
  8
A-GLAZ
100
AcDbLine
 10
829.599935
 20
487.040039
 30
0.0
 11
872.47998
 21
487.040039
 31
0.0
  0
LINE
  5
161
330
17
100
AcDbEntity
  8
A-GLAZ
100
AcDbLine
 10
887.519938
 20
487.040039
 30
0.0
 11
930.399984
 21
487.040039
 31
0.0
  0
LINE
  5
162
330
17
100
AcDbEntity
  8
A-GLAZ
100
AcDbLine
 10
930.399984
 20
487.040039
 30
0.0
 11
973.119954
 21
487.040039
 31
0.0
  0
LINE
  5
163
330
17
100
AcDbEntity
  8
A-GLAZ
100
AcDbLine
 10
988.319987
 20
487.040039
 30
0.0
 11
1031.039958
 21
487.040039
 31
0.0
  0
LINE
  5
164
330
17
100
AcDbEntity
  8
A-GLAZ
100
AcDbLine
 10
1031.039958
 20
487.040039
 30
0.0
 11
1073.919922
 21
487.040039
 31
0.0
  0
LINE
  5
165
330
17
100
AcDbEntity
  8
A-GLAZ
100
AcDbLine
 10
1088.959961
 20
487.040039
 30
0.0
 11
1131.840007
 21
487.040039
 31
0.0
  0
LINE
  5
166
330
17
100
AcDbEntity
  8
A-GLAZ
100
AcDbLine
 10
1131.840007
 20
487.040039
 30
0.0
 11
1174.559896
 21
487.040039
 31
0.0
  0
LINE
  5
167
330
17
100
AcDbEntity
  8
A-GLAZ
100
AcDbLine
 10
1189.599935
 20
487.040039
 30
0.0
 11
1232.47998
 21
487.040039
 31
0.0
  0
LINE
  5
168
330
17
100
AcDbEntity
  8
A-GLAZ
100
AcDbLine
 10
760.47998
 20
791.52002
 30
0.0
 11
760.47998
 21
741.120036
 31
0.0
  0
LINE
  5
169
330
17
100
AcDbEntity
  8
A-GLAZ
100
AcDbLine
 10
760.47998
 20
741.120036
 30
0.0
 11
760.47998
 21
690.560059
 31
0.0
  0
LINE
  5
16A
330
17
100
AcDbEntity
  8
A-GLAZ
100
AcDbLine
 10
760.47998
 20
672.800008
 30
0.0
 11
760.47998
 21
622.23999
 31
0.0
  0
LINE
  5
16B
330
17
100
AcDbEntity
  8
A-GLAZ
100
AcDbLine
 10
841.599935
 20
741.120036
 30
0.0
 11
841.599935
 21
690.560059
 31
0.0
  0
LINE
  5
16C
330
17
100
AcDbEntity
  8
A-GLAZ
100
AcDbLine
 10
841.599935
 20
672.800008
 30
0.0
 11
841.599935
 21
622.23999
 31
0.0
  0
LINE
  5
16D
330
17
100
AcDbEntity
  8
A-GLAZ
100
AcDbLine
 10
922.719971
 20
791.52002
 30
0.0
 11
922.719971
 21
741.120036
 31
0.0
  0
LINE
  5
16E
330
17
100
AcDbEntity
  8
A-GLAZ
100
AcDbLine
 10
922.719971
 20
741.120036
 30
0.0
 11
922.719971
 21
690.560059
 31
0.0
  0
LINE
  5
16F
330
17
100
AcDbEntity
  8
A-GLAZ
100
AcDbLine
 10
922.719971
 20
672.800008
 30
0.0
 11
922.719971
 21
622.23999
 31
0.0
  0
LINE
  5
170
330
17
100
AcDbEntity
  8
A-GLAZ
100
AcDbLine
 10
833.439941
 20
260.799967
 30
0.0
 11
833.439941
 21
302.559977
 31
0.0
  0
LINE
  5
171
330
17
100
AcDbEntity
  8
A-GLAZ
100
AcDbLine
 10
833.439941
 20
317.279948
 30
0.0
 11
833.439941
 21
359.200033
 31
0.0
  0
LINE
  5
172
330
17
100
AcDbEntity
  8
A-GLAZ
100
AcDbLine
 10
833.439941
 20
359.200033
 30
0.0
 11
833.439941
 21
400.959961
 31
0.0
  0
LINE
  5
173
330
17
100
AcDbEntity
  8
A-GLAZ
100
AcDbLine
 10
833.439941
 20
415.680013
 30
0.0
 11
833.439941
 21
457.439941
 31
0.0
  0
LINE
  5
174
330
17
100
AcDbEntity
  8
A-GLAZ
100
AcDbLine
 10
833.439941
 20
457.439941
 30
0.0
 11
833.439941
 21
499.360026
 31
0.0
  0
LINE
  5
175
330
17
100
AcDbEntity
  8
A-GLAZ
100
AcDbLine
 10
833.439941
 20
514.079997
 30
0.0
 11
833.439941
 21
555.840007
 31
0.0
  0
LINE
  5
176
330
17
100
AcDbEntity
  8
A-GLAZ
100
AcDbLine
 10
695.519938
 20
650.880005
 30
0.0
 11
695.519938
 21
675.839966
 31
0.0
  0
LINE
  5
177
330
17
100
AcDbEntity
  8
A-GLAZ
100
AcDbLine
 10
1114.079915
 20
665.919963
 30
0.0
 11
1164.0
 21
665.919963
 31
0.0
  0
LINE
  5
178
330
17
100
AcDbEntity
  8
A-GLAZ
100
AcDbLine
 10
1096.799967
 20
660.159993
 30
0.0
 11
1158.239909
 21
660.159993
 31
0.0
  0
LINE
  5
179
330
17
100
AcDbEntity
  8
A-GLAZ
100
AcDbLine
 10
689.759928
 20
291.52002
 30
0.0
 11
689.759928
 21
316.47998
 31
0.0
  0
LINE
  5
17A
330
17
100
AcDbEntity
  8
A-GLAZ
100
AcDbLine
 10
695.519938
 20
297.279948
 30
0.0
 11
695.519938
 21
322.23999
 31
0.0
  0
LINE
  5
17B
330
17
100
AcDbEntity
  8
A-GLAZ
100
AcDbLine
 10
695.519938
 20
322.23999
 30
0.0
 11
695.519938
 21
398.079997
 31
0.0
  0
LINE
  5
17C
330
17
100
AcDbEntity
  8
A-GLAZ
100
AcDbLine
 10
695.519938
 20
401.76001
 30
0.0
 11
695.519938
 21
485.119954
 31
0.0
  0
LINE
  5
17D
330
17
100
AcDbEntity
  8
A-GLAZ
100
AcDbLine
 10
695.519938
 20
650.880005
 30
0.0
 11
758.879964
 21
650.880005
 31
0.0
  0
LINE
  5
17E
330
17
100
AcDbEntity
  8
A-GLAZ
100
AcDbLine
 10
695.519938
 20
647.199992
 30
0.0
 11
764.159993
 21
647.199992
 31
0.0
  0
LINE
  5
17F
330
17
100
AcDbEntity
  8
A-GLAZ
100
AcDbLine
 10
767.839925
 20
647.199992
 30
0.0
 11
799.839925
 21
647.199992
 31
0.0
  0
LINE
  5
180
330
17
100
AcDbEntity
  8
A-GLAZ
100
AcDbLine
 10
762.559977
 20
650.880005
 30
0.0
 11
762.559977
 21
679.359985
 31
0.0
  0
LINE
  5
181
330
17
100
AcDbEntity
  8
A-GLAZ
100
AcDbLine
 10
758.879964
 20
650.880005
 30
0.0
 11
758.879964
 21
675.839966
 31
0.0
  0
LINE
  5
182
330
17
100
AcDbEntity
  8
A-GLAZ
100
AcDbLine
 10
695.519938
 20
398.079997
 30
0.0
 11
803.999919
 21
398.079997
 31
0.0
  0
LINE
  5
183
330
17
100
AcDbEntity
  8
A-GLAZ
100
AcDbLine
 10
831.679932
 20
401.76001
 30
0.0
 11
831.679932
 21
485.119954
 31
0.0
  0
LINE
  5
184
330
17
100
AcDbEntity
  8
A-GLAZ
100
AcDbLine
 10
835.199951
 20
453.279948
 30
0.0
 11
835.199951
 21
488.799967
 31
0.0
  0
LINE
  5
185
330
17
100
AcDbEntity
  8
A-GLAZ
100
AcDbLine
 10
803.999919
 20
398.079997
 30
0.0
 11
835.199951
 21
398.079997
 31
0.0
  0
LINE
  5
186
330
17
100
AcDbEntity
  8
A-GLAZ
100
AcDbLine
 10
1114.079915
 20
828.160075
 30
0.0
 11
1114.079915
 21
803.200033
 31
0.0
  0
LINE
  5
187
330
17
100
AcDbEntity
  8
A-GLAZ
100
AcDbLine
 10
1114.079915
 20
691.840007
 30
0.0
 11
1114.079915
 21
665.919963
 31
0.0
  0
LINE
  5
188
330
17
100
AcDbEntity
  8
A-GLAZ
100
AcDbLine
 10
1108.319987
 20
822.400065
 30
0.0
 11
1108.319987
 21
803.200033
 31
0.0
  0
LINE
  5
189
330
17
100
AcDbEntity
  8
A-GLAZ
100
AcDbLine
 10
1108.319987
 20
691.840007
 30
0.0
 11
1108.319987
 21
665.919963
 31
0.0
  0
LINE
  5
18A
330
17
100
AcDbEntity
  8
A-GLAZ
100
AcDbLine
 10
915.199951
 20
822.400065
 30
0.0
 11
939.359945
 21
822.400065
 31
0.0
  0
LINE
  5
18B
330
17
100
AcDbEntity
  8
A-GLAZ
100
AcDbLine
 10
743.839925
 20
822.400065
 30
0.0
 11
866.879964
 21
822.400065
 31
0.0
  0
LINE
  5
18C
330
17
100
AcDbEntity
  8
A-GLAZ
100
AcDbLine
 10
1297.599935
 20
503.680013
 30
0.0
 11
1313.759928
 21
503.680013
 31
0.0
  0
LINE
  5
18D
330
17
100
AcDbEntity
  8
A-GLAZ
100
AcDbLine
 10
1313.759928
 20
291.52002
 30
0.0
 11
1292.959961
 21
291.52002
 31
0.0
  0
LINE
  5
18E
330
17
100
AcDbEntity
  8
A-GLAZ
100
AcDbLine
 10
1181.759928
 20
297.279948
 30
0.0
 11
1164.0
 21
297.279948
 31
0.0
  0
LINE
  5
18F
330
17
100
AcDbEntity
  8
A-GLAZ
100
AcDbLine
 10
1164.0
 20
665.919963
 30
0.0
 11
1164.0
 21
625.279989
 31
0.0
  0
LINE
  5
190
330
17
100
AcDbEntity
  8
A-GLAZ
100
AcDbLine
 10
1164.0
 20
545.279989
 30
0.0
 11
1164.0
 21
503.680013
 31
0.0
  0
LINE
  5
191
330
17
100
AcDbEntity
  8
A-GLAZ
100
AcDbLine
 10
1158.239909
 20
660.159993
 30
0.0
 11
1158.239909
 21
625.279989
 31
0.0
  0
LINE
  5
192
330
17
100
AcDbEntity
  8
A-GLAZ
100
AcDbLine
 10
1158.239909
 20
545.279989
 30
0.0
 11
1158.239909
 21
497.920003
 31
0.0
  0
LINE
  5
193
330
17
100
AcDbEntity
  8
A-GLAZ
100
AcDbLine
 10
571.679932
 20
640.960002
 30
0.0
 11
689.759928
 21
640.960002
 31
0.0
  0
LINE
  5
194
330
17
100
AcDbEntity
  8
A-GLAZ
100
AcDbLine
 10
588.319987
 20
635.199992
 30
0.0
 11
689.759928
 21
635.199992
 31
0.0
  0
LINE
  5
195
330
17
100
AcDbEntity
  8
A-GLAZ
100
AcDbLine
 10
421.439941
 20
640.960002
 30
0.0
 11
532.159993
 21
640.960002
 31
0.0
  0
LINE
  5
196
330
17
100
AcDbEntity
  8
A-GLAZ
100
AcDbLine
 10
421.439941
 20
635.199992
 30
0.0
 11
532.159993
 21
635.199992
 31
0.0
  0
LINE
  5
197
330
17
100
AcDbEntity
  8
A-GLAZ
100
AcDbLine
 10
115.680013
 20
640.960002
 30
0.0
 11
233.279948
 21
640.960002
 31
0.0
  0
LINE
  5
198
330
17
100
AcDbEntity
  8
A-GLAZ
100
AcDbLine
 10
271.680013
 20
640.960002
 30
0.0
 11
383.039876
 21
640.960002
 31
0.0
  0
LINE
  5
199
330
17
100
AcDbEntity
  8
A-GLAZ
100
AcDbLine
 10
121.439941
 20
635.199992
 30
0.0
 11
233.279948
 21
635.199992
 31
0.0
  0
LINE
  5
19A
330
17
100
AcDbEntity
  8
A-GLAZ
100
AcDbLine
 10
271.680013
 20
635.199992
 30
0.0
 11
383.039876
 21
635.199992
 31
0.0
  0
LINE
  5
19B
330
17
100
AcDbEntity
  8
A-GLAZ
100
AcDbLine
 10
149.439941
 20
316.47998
 30
0.0
 11
115.680013
 21
316.47998
 31
0.0
  0
LINE
  5
19C
330
17
100
AcDbEntity
  8
A-GLAZ
100
AcDbLine
 10
149.439941
 20
322.23999
 30
0.0
 11
121.439941
 21
322.23999
 31
0.0
  0
LINE
  5
19D
330
17
100
AcDbEntity
  8
A-GLAZ
100
AcDbLine
 10
394.879883
 20
316.47998
 30
0.0
 11
351.200033
 21
316.47998
 31
0.0
  0
LINE
  5
19E
330
17
100
AcDbEntity
  8
A-GLAZ
100
AcDbLine
 10
394.879883
 20
322.23999
 30
0.0
 11
351.200033
 21
322.23999
 31
0.0
  0
LINE
  5
19F
330
17
100
AcDbEntity
  8
A-GLAZ
100
AcDbLine
 10
689.759928
 20
316.47998
 30
0.0
 11
671.519938
 21
316.47998
 31
0.0
  0
LINE
  5
1A0
330
17
100
AcDbEntity
  8
A-GLAZ
100
AcDbLine
 10
631.999919
 20
316.47998
 30
0.0
 11
596.639974
 21
316.47998
 31
0.0
  0
LINE
  5
1A1
330
17
100
AcDbEntity
  8
A-GLAZ
100
AcDbLine
 10
689.759928
 20
322.23999
 30
0.0
 11
671.519938
 21
322.23999
 31
0.0
  0
LINE
  5
1A2
330
17
100
AcDbEntity
  8
A-GLAZ
100
AcDbLine
 10
631.999919
 20
322.23999
 30
0.0
 11
596.639974
 21
322.23999
 31
0.0
  0
LINE
  5
1A3
330
17
100
AcDbEntity
  8
A-GLAZ
100
AcDbLine
 10
836.959961
 20
297.279948
 30
0.0
 11
808.47998
 21
297.279948
 31
0.0
  0
LINE
  5
1A4
330
17
100
AcDbEntity
  8
A-GLAZ
100
AcDbLine
 10
804.799967
 20
297.279948
 30
0.0
 11
695.519938
 21
297.279948
 31
0.0
  0
LINE
  5
1A5
330
17
100
AcDbEntity
  8
A-GLAZ
100
AcDbLine
 10
926.399984
 20
291.52002
 30
0.0
 11
903.519938
 21
291.52002
 31
0.0
  0
LINE
  5
1A6
330
17
100
AcDbEntity
  8
A-GLAZ
100
AcDbLine
 10
1083.359945
 20
297.279948
 30
0.0
 11
988.799967
 21
297.279948
 31
0.0
  0
LINE
  5
1A7
330
17
100
AcDbEntity
  8
A-GLAZ
100
AcDbLine
 10
1181.759928
 20
291.52002
 30
0.0
 11
1145.759928
 21
291.52002
 31
0.0
  0
LINE
  5
1A8
330
17
100
AcDbEntity
  8
A-GLAZ
100
AcDbLine
 10
1083.359945
 20
291.52002
 30
0.0
 11
988.799967
 21
291.52002
 31
0.0
  0
LINE
  5
1A9
330
17
100
AcDbEntity
  8
A-GLAZ
100
AcDbLine
 10
906.879964
 20
445.279948
 30
0.0
 11
906.879964
 21
421.279948
 31
0.0
  0
LINE
  5
1AA
330
17
100
AcDbEntity
  8
A-GLAZ
100
AcDbLine
 10
906.879964
 20
319.360026
 30
0.0
 11
906.879964
 21
297.279948
 31
0.0
  0
LINE
  5
1AB
330
17
100
AcDbEntity
  8
A-GLAZ
100
AcDbLine
 10
910.559977
 20
443.040039
 30
0.0
 11
910.559977
 21
421.279948
 31
0.0
  0
LINE
  5
1AC
330
17
100
AcDbEntity
  8
A-GLAZ
100
AcDbLine
 10
910.559977
 20
319.360026
 30
0.0
 11
910.559977
 21
297.279948
 31
0.0
  0
LINE
  5
1AD
330
17
100
AcDbEntity
  8
A-GLAZ
100
AcDbLine
 10
835.199951
 20
398.079997
 30
0.0
 11
835.199951
 21
453.279948
 31
0.0
  0
LINE
  5
1AE
330
17
100
AcDbEntity
  8
A-GLAZ
100
AcDbLine
 10
711.839925
 20
679.359985
 30
0.0
 11
695.519938
 21
679.359985
 31
0.0
  0
LINE
  5
1AF
330
17
100
AcDbEntity
  8
A-GLAZ
100
AcDbLine
 10
711.839925
 20
675.839966
 30
0.0
 11
695.519938
 21
675.839966
 31
0.0
  0
LINE
  5
1B0
330
17
100
AcDbEntity
  8
A-GLAZ
100
AcDbLine
 10
695.519938
 20
543.359985
 30
0.0
 11
695.519938
 21
636.319987
 31
0.0
  0
LINE
  5
1B1
330
17
100
AcDbEntity
  8
A-GLAZ
100
AcDbLine
 10
689.759928
 20
534.23999
 30
0.0
 11
689.759928
 21
578.559977
 31
0.0
  0
LINE
  5
1B2
330
17
100
AcDbEntity
  8
A-GLAZ
100
AcDbLine
 10
689.759928
 20
584.319987
 30
0.0
 11
689.759928
 21
635.199992
 31
0.0
  0
LINE
  5
1B3
330
17
100
AcDbEntity
  8
A-GLAZ
100
AcDbLine
 10
1096.799967
 20
660.159993
 30
0.0
 11
1039.519938
 21
660.159993
 31
0.0
  0
LINE
  5
1B4
330
17
100
AcDbEntity
  8
A-GLAZ
100
AcDbLine
 10
930.079915
 20
660.159993
 30
0.0
 11
892.159993
 21
660.159993
 31
0.0
  0
LINE
  5
1B5
330
17
100
AcDbEntity
  8
A-GLAZ
100
AcDbLine
 10
888.799967
 20
660.159993
 30
0.0
 11
870.559977
 21
660.159993
 31
0.0
  0
LINE
  5
1B6
330
17
100
AcDbEntity
  8
A-GLAZ
100
AcDbLine
 10
1108.319987
 20
665.919963
 30
0.0
 11
1039.359945
 21
665.919963
 31
0.0
  0
LINE
  5
1B7
330
17
100
AcDbEntity
  8
A-GLAZ
100
AcDbLine
 10
930.079915
 20
665.919963
 30
0.0
 11
870.559977
 21
665.919963
 31
0.0
  0
LINE
  5
1B8
330
17
100
AcDbEntity
  8
A-GLAZ
100
AcDbLine
 10
866.879964
 20
822.400065
 30
0.0
 11
866.879964
 21
709.120036
 31
0.0
  0
LINE
  5
1B9
330
17
100
AcDbEntity
  8
A-GLAZ
100
AcDbLine
 10
866.879964
 20
673.759969
 30
0.0
 11
866.879964
 21
650.880005
 31
0.0
  0
LINE
  5
1BA
330
17
100
AcDbEntity
  8
A-GLAZ
100
AcDbLine
 10
870.559977
 20
822.400065
 30
0.0
 11
870.559977
 21
709.120036
 31
0.0
  0
LINE
  5
1BB
330
17
100
AcDbEntity
  8
A-GLAZ
100
AcDbLine
 10
977.919922
 20
822.400065
 30
0.0
 11
1064.159993
 21
822.400065
 31
0.0
  0
LINE
  5
1BC
330
17
100
AcDbEntity
  8
A-GLAZ
100
AcDbLine
 10
915.199951
 20
828.160075
 30
0.0
 11
939.359945
 21
828.160075
 31
0.0
  0
LINE
  5
1BD
330
17
100
AcDbEntity
  8
A-GLAZ
100
AcDbLine
 10
977.919922
 20
828.160075
 30
0.0
 11
1064.159993
 21
828.160075
 31
0.0
  0
LINE
  5
1BE
330
17
100
AcDbEntity
  8
A-GLAZ
100
AcDbLine
 10
689.759928
 20
640.960002
 30
0.0
 11
689.759928
 21
740.320068
 31
0.0
  0
LINE
  5
1BF
330
17
100
AcDbEntity
  8
A-GLAZ
100
AcDbLine
 10
695.519938
 20
679.359985
 30
0.0
 11
695.519938
 21
740.320068
 31
0.0
  0
LINE
  5
1C0
330
17
100
AcDbEntity
  8
A-GLAZ
100
AcDbLine
 10
1158.239909
 20
488.799967
 30
0.0
 11
1129.119954
 21
488.799967
 31
0.0
  0
LINE
  5
1C1
330
17
100
AcDbEntity
  8
A-GLAZ
100
AcDbLine
 10
1158.239909
 20
485.119954
 30
0.0
 11
1129.119954
 21
485.119954
 31
0.0
  0
LINE
  5
1C2
330
17
100
AcDbEntity
  8
A-GLAZ
100
AcDbLine
 10
1164.0
 20
497.920003
 30
0.0
 11
1164.0
 21
477.439941
 31
0.0
  0
LINE
  5
1C3
330
17
100
AcDbEntity
  8
A-GLAZ
100
AcDbLine
 10
689.759928
 20
584.319987
 30
0.0
 11
588.319987
 21
584.319987
 31
0.0
  0
LINE
  5
1C4
330
17
100
AcDbEntity
  8
A-GLAZ
100
AcDbLine
 10
689.759928
 20
578.559977
 30
0.0
 11
588.319987
 21
578.559977
 31
0.0
  0
LINE
  5
1C5
330
17
100
AcDbEntity
  8
A-GLAZ
100
AcDbLine
 10
744.159993
 20
345.76001
 30
0.0
 11
804.799967
 21
345.76001
 31
0.0
  0
LINE
  5
1C6
330
17
100
AcDbEntity
  8
A-GLAZ
100
AcDbLine
 10
744.159993
 20
349.439941
 30
0.0
 11
808.47998
 21
349.439941
 31
0.0
  0
LINE
  5
1C7
330
17
100
AcDbEntity
  8
A-GLAZ
100
AcDbLine
 10
803.359945
 20
543.359985
 30
0.0
 11
803.359945
 21
566.559977
 31
0.0
  0
LINE
  5
1C8
330
17
100
AcDbEntity
  8
A-GLAZ
100
AcDbLine
 10
803.359945
 20
570.23999
 30
0.0
 11
803.359945
 21
647.199992
 31
0.0
  0
LINE
  5
1C9
330
17
100
AcDbEntity
  8
A-GLAZ
100
AcDbLine
 10
799.839925
 20
543.359985
 30
0.0
 11
799.839925
 21
606.880005
 31
0.0
  0
LINE
  5
1CA
330
17
100
AcDbEntity
  8
A-GLAZ
100
AcDbLine
 10
799.839925
 20
610.559977
 30
0.0
 11
799.839925
 21
647.199992
 31
0.0
  0
LINE
  5
1CB
330
17
100
AcDbEntity
  8
A-GLAZ
100
AcDbLine
 10
888.47998
 20
543.359985
 30
0.0
 11
847.999919
 21
543.359985
 31
0.0
  0
LINE
  5
1CC
330
17
100
AcDbEntity
  8
A-GLAZ
100
AcDbLine
 10
762.559977
 20
650.880005
 30
0.0
 11
866.879964
 21
650.880005
 31
0.0
  0
LINE
  5
1CD
330
17
100
AcDbEntity
  8
A-GLAZ
100
AcDbLine
 10
725.599935
 20
539.840007
 30
0.0
 11
695.519938
 21
539.840007
 31
0.0
  0
LINE
  5
1CE
330
17
100
AcDbEntity
  8
A-GLAZ
100
AcDbLine
 10
799.839925
 20
543.359985
 30
0.0
 11
760.959961
 21
543.359985
 31
0.0
  0
LINE
  5
1CF
330
17
100
AcDbEntity
  8
A-GLAZ
100
AcDbLine
 10
725.599935
 20
543.359985
 30
0.0
 11
695.519938
 21
543.359985
 31
0.0
  0
LINE
  5
1D0
330
17
100
AcDbEntity
  8
A-GLAZ
100
AcDbLine
 10
799.839925
 20
606.880005
 30
0.0
 11
764.159993
 21
606.880005
 31
0.0
  0
LINE
  5
1D1
330
17
100
AcDbEntity
  8
A-GLAZ
100
AcDbLine
 10
799.839925
 20
610.559977
 30
0.0
 11
767.839925
 21
610.559977
 31
0.0
  0
LINE
  5
1D2
330
17
100
AcDbEntity
  8
A-GLAZ
100
AcDbLine
 10
831.679932
 20
485.119954
 30
0.0
 11
774.23999
 21
485.119954
 31
0.0
  0
LINE
  5
1D3
330
17
100
AcDbEntity
  8
A-GLAZ
100
AcDbLine
 10
738.879964
 20
485.119954
 30
0.0
 11
695.519938
 21
485.119954
 31
0.0
  0
LINE
  5
1D4
330
17
100
AcDbEntity
  8
A-GLAZ
100
AcDbLine
 10
835.199951
 20
488.799967
 30
0.0
 11
774.23999
 21
488.799967
 31
0.0
  0
LINE
  5
1D5
330
17
100
AcDbEntity
  8
A-GLAZ
100
AcDbLine
 10
738.879964
 20
488.799967
 30
0.0
 11
695.519938
 21
488.799967
 31
0.0
  0
LINE
  5
1D6
330
17
100
AcDbEntity
  8
A-GLAZ
100
AcDbLine
 10
582.719971
 20
578.559977
 30
0.0
 11
582.719971
 21
485.119954
 31
0.0
  0
LINE
  5
1D7
330
17
100
AcDbEntity
  8
A-GLAZ
100
AcDbLine
 10
588.319987
 20
578.559977
 30
0.0
 11
588.319987
 21
490.720052
 31
0.0
  0
LINE
  5
1D8
330
17
100
AcDbEntity
  8
A-GLAZ
100
AcDbLine
 10
634.23999
 20
485.119954
 30
0.0
 11
689.759928
 21
485.119954
 31
0.0
  0
LINE
  5
1D9
330
17
100
AcDbEntity
  8
A-GLAZ
100
AcDbLine
 10
634.23999
 20
490.720052
 30
0.0
 11
689.759928
 21
490.720052
 31
0.0
  0
LINE
  5
1DA
330
17
100
AcDbEntity
  8
A-GLAZ
100
AcDbLine
 10
950.399984
 20
488.799967
 30
0.0
 11
906.879964
 21
445.279948
 31
0.0
  0
LINE
  5
1DB
330
17
100
AcDbEntity
  8
A-GLAZ
100
AcDbLine
 10
952.639974
 20
485.119954
 30
0.0
 11
910.559977
 21
443.040039
 31
0.0
  0
LINE
  5
1DC
330
17
100
AcDbEntity
  8
A-GLAZ
100
AcDbLine
 10
803.359945
 20
647.199992
 30
0.0
 11
888.799967
 21
647.199992
 31
0.0
  0
LINE
  5
1DD
330
17
100
AcDbEntity
  8
A-GLAZ
100
AcDbLine
 10
870.559977
 20
650.880005
 30
0.0
 11
888.799967
 21
650.880005
 31
0.0
  0
LINE
  5
1DE
330
17
100
AcDbEntity
  8
A-GLAZ
100
AcDbLine
 10
888.799967
 20
647.199992
 30
0.0
 11
888.639974
 21
579.519979
 31
0.0
  0
LINE
  5
1DF
330
17
100
AcDbEntity
  8
A-GLAZ
100
AcDbLine
 10
892.159993
 20
660.159993
 30
0.0
 11
892.159993
 21
579.519979
 31
0.0
  0
LINE
  5
1E0
330
17
100
AcDbEntity
  8
A-GLAZ
100
AcDbLine
 10
847.999919
 20
543.359985
 30
0.0
 11
847.999919
 21
570.23999
 31
0.0
  0
LINE
  5
1E1
330
17
100
AcDbEntity
  8
A-GLAZ
100
AcDbLine
 10
844.319987
 20
543.359985
 30
0.0
 11
844.319987
 21
566.559977
 31
0.0
  0
LINE
  5
1E2
330
17
100
AcDbEntity
  8
A-GLAZ
100
AcDbLine
 10
803.359945
 20
570.23999
 30
0.0
 11
847.999919
 21
570.23999
 31
0.0
  0
LINE
  5
1E3
330
17
100
AcDbEntity
  8
A-GLAZ
100
AcDbLine
 10
803.359945
 20
566.559977
 30
0.0
 11
844.319987
 21
566.559977
 31
0.0
  0
LINE
  5
1E4
330
17
100
AcDbEntity
  8
A-GLAZ
100
AcDbLine
 10
892.159993
 20
539.840007
 30
0.0
 11
840.47998
 21
539.840007
 31
0.0
  0
LINE
  5
1E5
330
17
100
AcDbEntity
  8
A-GLAZ
100
AcDbLine
 10
807.199951
 20
539.840007
 30
0.0
 11
760.959961
 21
539.840007
 31
0.0
  0
LINE
  5
1E6
330
17
100
AcDbEntity
  8
A-GLAZ
100
AcDbLine
 10
270.879883
 20
634.079997
 30
0.0
 11
234.239909
 21
634.079997
 31
0.0
  0
LINE
  5
1E7
330
17
100
AcDbEntity
  8
A-GLAZ
100
AcDbLine
 10
275.360026
 20
642.559977
 30
0.0
 11
229.919922
 21
642.559977
 31
0.0
  0
LINE
  5
1E8
330
17
100
AcDbEntity
  8
A-GLAZ
100
AcDbLine
 10
383.680013
 20
634.079997
 30
0.0
 11
420.47998
 21
634.079997
 31
0.0
  0
LINE
  5
1E9
330
17
100
AcDbEntity
  8
A-GLAZ
100
AcDbLine
 10
379.360026
 20
642.559977
 30
0.0
 11
424.799967
 21
642.559977
 31
0.0
  0
LINE
  5
1EA
330
17
100
AcDbEntity
  8
A-GLAZ
100
AcDbLine
 10
955.999919
 20
298.399984
 30
0.0
 11
927.359945
 21
298.399984
 31
0.0
  0
LINE
  5
1EB
330
17
100
AcDbEntity
  8
A-GLAZ
100
AcDbLine
 10
958.559977
 20
298.399984
 30
0.0
 11
987.679932
 21
298.399984
 31
0.0
  0
LINE
  5
1EC
330
17
100
AcDbEntity
  8
A-GLAZ
100
AcDbLine
 10
923.359945
 20
289.920003
 30
0.0
 11
991.679932
 21
289.920003
 31
0.0
  0
LINE
  5
1ED
330
17
100
AcDbEntity
  8
A-GLAZ
100
AcDbLine
 10
1116.319987
 20
298.399984
 30
0.0
 11
1144.799967
 21
298.399984
 31
0.0
  0
LINE
  5
1EE
330
17
100
AcDbEntity
  8
A-GLAZ
100
AcDbLine
 10
1113.599935
 20
298.399984
 30
0.0
 11
1084.47998
 21
298.399984
 31
0.0
  0
LINE
  5
1EF
330
17
100
AcDbEntity
  8
A-GLAZ
100
AcDbLine
 10
1148.959961
 20
289.920003
 30
0.0
 11
1080.47998
 21
289.920003
 31
0.0
  0
LINE
  5
1F0
330
17
100
AcDbEntity
  8
A-GLAZ
100
AcDbLine
 10
1217.599935
 20
298.399984
 30
0.0
 11
1182.719971
 21
298.399984
 31
0.0
  0
LINE
  5
1F1
330
17
100
AcDbEntity
  8
A-GLAZ
100
AcDbLine
 10
1220.159993
 20
298.399984
 30
0.0
 11
1292.0
 21
298.399984
 31
0.0
  0
LINE
  5
1F2
330
17
100
AcDbEntity
  8
A-GLAZ
100
AcDbLine
 10
1178.559896
 20
289.920003
 30
0.0
 11
1296.0
 21
289.920003
 31
0.0
  0
LINE
  5
1F3
330
17
100
AcDbEntity
  8
A-GLAZ
100
AcDbLine
 10
1306.879964
 20
380.319987
 30
0.0
 11
1306.879964
 21
488.47998
 31
0.0
  0
LINE
  5
1F4
330
17
100
AcDbEntity
  8
A-GLAZ
100
AcDbLine
 10
1306.879964
 20
377.599935
 30
0.0
 11
1306.879964
 21
306.559977
 31
0.0
  0
LINE
  5
1F5
330
17
100
AcDbEntity
  8
A-GLAZ
100
AcDbLine
 10
1261.759928
 20
496.799967
 30
0.0
 11
1296.639974
 21
496.799967
 31
0.0
  0
LINE
  5
1F6
330
17
100
AcDbEntity
  8
A-GLAZ
100
AcDbLine
 10
1259.199951
 20
496.799967
 30
0.0
 11
1223.840007
 21
496.799967
 31
0.0
  0
LINE
  5
1F7
330
17
100
AcDbEntity
  8
A-GLAZ
100
AcDbLine
 10
1300.639974
 20
505.279948
 30
0.0
 11
1219.840007
 21
505.279948
 31
0.0
  0
LINE
  5
1F8
330
17
100
AcDbEntity
  8
A-GLAZ
100
AcDbLine
 10
1157.119954
 20
597.599976
 30
0.0
 11
1157.119954
 21
546.23999
 31
0.0
  0
LINE
  5
1F9
330
17
100
AcDbEntity
  8
A-GLAZ
100
AcDbLine
 10
1157.119954
 20
600.159993
 30
0.0
 11
1157.119954
 21
624.319987
 31
0.0
  0
LINE
  5
1FA
330
17
100
AcDbEntity
  8
A-GLAZ
100
AcDbLine
 10
1165.599935
 20
542.23999
 30
0.0
 11
1165.599935
 21
628.319987
 31
0.0
  0
LINE
  5
1FB
330
17
100
AcDbEntity
  8
A-GLAZ
100
AcDbLine
 10
1107.199951
 20
727.840007
 30
0.0
 11
1107.199951
 21
692.960042
 31
0.0
  0
LINE
  5
1FC
330
17
100
AcDbEntity
  8
A-GLAZ
100
AcDbLine
 10
1107.199951
 20
730.400065
 30
0.0
 11
1107.199951
 21
802.079997
 31
0.0
  0
LINE
  5
1FD
330
17
100
AcDbEntity
  8
A-GLAZ
100
AcDbLine
 10
1115.679932
 20
688.800049
 30
0.0
 11
1115.679932
 21
806.079997
 31
0.0
  0
LINE
  5
1FE
330
17
100
AcDbEntity
  8
A-GLAZ
100
AcDbLine
 10
1101.919922
 20
821.280029
 30
0.0
 11
1065.279948
 21
821.280029
 31
0.0
  0
LINE
  5
1FF
330
17
100
AcDbEntity
  8
A-GLAZ
100
AcDbLine
 10
1106.23999
 20
829.76001
 30
0.0
 11
1060.799967
 21
829.76001
 31
0.0
  0
LINE
  5
200
330
17
100
AcDbEntity
  8
A-GLAZ
100
AcDbLine
 10
940.159993
 20
821.280029
 30
0.0
 11
976.799967
 21
821.280029
 31
0.0
  0
LINE
  5
201
330
17
100
AcDbEntity
  8
A-GLAZ
100
AcDbLine
 10
935.839925
 20
829.76001
 30
0.0
 11
981.279948
 21
829.76001
 31
0.0
  0
LINE
  5
202
330
17
100
AcDbEntity
  8
A-GLAZ
100
AcDbLine
 10
743.039958
 20
821.280029
 30
0.0
 11
706.399984
 21
821.280029
 31
0.0
  0
LINE
  5
203
330
17
100
AcDbEntity
  8
A-GLAZ
100
AcDbLine
 10
747.359945
 20
829.76001
 30
0.0
 11
702.079915
 21
829.76001
 31
0.0
  0
LINE
  5
204
330
17
100
AcDbEntity
  8
A-GLAZ
100
AcDbLine
 10
696.639974
 20
779.200033
 30
0.0
 11
696.639974
 21
814.079997
 31
0.0
  0
LINE
  5
205
330
17
100
AcDbEntity
  8
A-GLAZ
100
AcDbLine
 10
696.639974
 20
776.640055
 30
0.0
 11
696.639974
 21
741.280029
 31
0.0
  0
LINE
  5
206
330
17
100
AcDbEntity
  8
A-GLAZ
100
AcDbLine
 10
688.159993
 20
818.240072
 30
0.0
 11
688.159993
 21
737.280029
 31
0.0
  0
LINE
  5
207
330
17
100
AcDbEntity
  8
A-GLAZ
100
AcDbLine
 10
1193.919922
 20
365.279948
 30
0.0
 11
1210.559896
 21
365.279948
 31
0.0
  0
LINE
  5
208
330
17
100
AcDbEntity
  8
A-GLAZ
100
AcDbLine
 10
1193.919922
 20
429.76001
 30
0.0
 11
1210.559896
 21
429.76001
 31
0.0
  0
LINE
  5
209
330
17
100
AcDbEntity
  8
A-GLAZ
100
AcDbLine
 10
1189.759928
 20
373.599935
 30
0.0
 11
1173.119954
 21
378.399984
 31
0.0
  0
LINE
  5
20A
330
17
100
AcDbEntity
  8
A-GLAZ
100
AcDbLine
 10
1173.119954
 20
416.47998
 30
0.0
 11
1173.119954
 21
378.399984
 31
0.0
  0
LINE
  5
20B
330
17
100
AcDbEntity
  8
A-GLAZ
100
AcDbLine
 10
1189.759928
 20
421.599935
 30
0.0
 11
1173.119954
 21
416.47998
 31
0.0
  0
LINE
  5
20C
330
17
100
AcDbEntity
  8
A-GLAZ
100
AcDbLine
 10
1168.959961
 20
369.439941
 30
0.0
 11
1168.959961
 21
425.599935
 31
0.0
  0
LINE
  5
20D
330
17
100
AcDbEntity
  8
A-GLAZ
100
AcDbLine
 10
1189.759928
 20
369.439941
 30
0.0
 11
1168.959961
 21
369.439941
 31
0.0
  0
LINE
  5
20E
330
17
100
AcDbEntity
  8
A-GLAZ
100
AcDbLine
 10
1173.119954
 20
373.599935
 30
0.0
 11
1173.119954
 21
421.439941
 31
0.0
  0
LINE
  5
20F
330
17
100
AcDbEntity
  8
A-GLAZ
100
AcDbLine
 10
1189.759928
 20
373.599935
 30
0.0
 11
1173.119954
 21
373.599935
 31
0.0
  0
LINE
  5
210
330
17
100
AcDbEntity
  8
A-GLAZ
100
AcDbLine
 10
1168.959961
 20
425.599935
 30
0.0
 11
1189.759928
 21
425.599935
 31
0.0
  0
LINE
  5
211
330
17
100
AcDbEntity
  8
A-GLAZ
100
AcDbLine
 10
1173.119954
 20
421.439941
 30
0.0
 11
1189.759928
 21
421.439941
 31
0.0
  0
LINE
  5
212
330
17
100
AcDbEntity
  8
A-GLAZ
100
AcDbLine
 10
1128.47998
 20
365.279948
 30
0.0
 11
1111.839925
 21
365.279948
 31
0.0
  0
LINE
  5
213
330
17
100
AcDbEntity
  8
A-GLAZ
100
AcDbLine
 10
1128.47998
 20
429.76001
 30
0.0
 11
1111.839925
 21
429.76001
 31
0.0
  0
LINE
  5
214
330
17
100
AcDbEntity
  8
A-GLAZ
100
AcDbLine
 10
1132.639974
 20
373.599935
 30
0.0
 11
1149.279948
 21
378.399984
 31
0.0
  0
LINE
  5
215
330
17
100
AcDbEntity
  8
A-GLAZ
100
AcDbLine
 10
1149.279948
 20
416.47998
 30
0.0
 11
1149.279948
 21
378.399984
 31
0.0
  0
LINE
  5
216
330
17
100
AcDbEntity
  8
A-GLAZ
100
AcDbLine
 10
1132.639974
 20
421.599935
 30
0.0
 11
1149.279948
 21
416.47998
 31
0.0
  0
LINE
  5
217
330
17
100
AcDbEntity
  8
A-GLAZ
100
AcDbLine
 10
1153.439941
 20
369.439941
 30
0.0
 11
1153.439941
 21
425.599935
 31
0.0
  0
LINE
  5
218
330
17
100
AcDbEntity
  8
A-GLAZ
100
AcDbLine
 10
1132.639974
 20
369.439941
 30
0.0
 11
1153.439941
 21
369.439941
 31
0.0
  0
LINE
  5
219
330
17
100
AcDbEntity
  8
A-GLAZ
100
AcDbLine
 10
1149.279948
 20
373.599935
 30
0.0
 11
1149.279948
 21
421.439941
 31
0.0
  0
LINE
  5
21A
330
17
100
AcDbEntity
  8
A-GLAZ
100
AcDbLine
 10
1132.639974
 20
373.599935
 30
0.0
 11
1149.279948
 21
373.599935
 31
0.0
  0
LINE
  5
21B
330
17
100
AcDbEntity
  8
A-GLAZ
100
AcDbLine
 10
1153.439941
 20
425.599935
 30
0.0
 11
1132.639974
 21
425.599935
 31
0.0
  0
LINE
  5
21C
330
17
100
AcDbEntity
  8
A-GLAZ
100
AcDbLine
 10
1149.279948
 20
421.439941
 30
0.0
 11
1132.639974
 21
421.439941
 31
0.0
  0
LINE
  5
21D
330
17
100
AcDbEntity
  8
A-GLAZ
100
AcDbLine
 10
588.959961
 20
626.079997
 30
0.0
 11
588.959961
 21
586.559977
 31
0.0
  0
LINE
  5
21E
330
17
100
AcDbEntity
  8
A-GLAZ
100
AcDbLine
 10
682.559977
 20
634.720011
 30
0.0
 11
682.559977
 21
584.800008
 31
0.0
  0
LINE
  5
21F
330
17
100
AcDbEntity
  8
A-GLAZ
100
AcDbLine
 10
1129.599935
 20
539.039998
 30
0.0
 11
1129.599935
 21
564.0
 31
0.0
  0
LINE
  5
220
330
17
100
AcDbEntity
  8
A-GLAZ
100
AcDbLine
 10
827.999919
 20
394.399984
 30
0.0
 11
740.319987
 21
394.399984
 31
0.0
  0
LINE
  5
221
330
17
100
AcDbEntity
  8
A-GLAZ
100
AcDbLine
 10
826.399984
 20
396.0
 30
0.0
 11
741.919922
 21
396.0
 31
0.0
  0
LINE
  5
222
330
17
100
AcDbEntity
  8
A-GLAZ
100
AcDbLine
 10
804.319987
 20
300.799967
 30
0.0
 11
754.719971
 21
300.799967
 31
0.0
  0
LINE
  5
223
330
17
100
AcDbEntity
  8
A-GLAZ
100
AcDbLine
 10
804.319987
 20
299.360026
 30
0.0
 11
754.559977
 21
299.360026
 31
0.0
  0
LINE
  5
224
330
17
100
AcDbEntity
  8
A-GLAZ
100
AcDbLine
 10
809.119954
 20
349.119954
 30
0.0
 11
830.399984
 21
349.119954
 31
0.0
  0
LINE
  5
225
330
17
100
AcDbEntity
  8
A-GLAZ
100
AcDbLine
 10
809.119954
 20
346.720052
 30
0.0
 11
826.879964
 21
346.720052
 31
0.0
  0
LINE
  5
226
330
17
100
AcDbEntity
  8
A-GLAZ
100
AcDbLine
 10
718.879964
 20
544.960002
 30
0.0
 11
697.119954
 21
544.960002
 31
0.0
  0
LINE
  5
227
330
17
100
AcDbEntity
  8
A-GLAZ
100
AcDbLine
 10
697.119954
 20
544.960002
 30
0.0
 11
697.119954
 21
605.920003
 31
0.0
  0
LINE
  5
228
330
17
100
AcDbEntity
  8
A-GLAZ
100
AcDbLine
 10
765.279948
 20
605.279989
 30
0.0
 11
798.23999
 21
605.279989
 31
0.0
  0
LINE
  5
229
330
17
100
AcDbEntity
  8
A-GLAZ
100
AcDbLine
 10
798.23999
 20
605.279989
 30
0.0
 11
798.23999
 21
544.960002
 31
0.0
  0
LINE
  5
22A
330
17
100
AcDbEntity
  8
A-GLAZ
100
AcDbLine
 10
798.23999
 20
544.960002
 30
0.0
 11
765.279948
 21
544.960002
 31
0.0
  0
LINE
  5
22B
330
17
100
AcDbEntity
  8
A-GLAZ
100
AcDbLine
 10
1069.759928
 20
654.23999
 30
0.0
 11
1106.719971
 21
654.23999
 31
0.0
  0
LINE
  5
22C
330
17
100
AcDbEntity
  8
A-GLAZ
100
AcDbLine
 10
483.839925
 20
633.279989
 30
0.0
 11
517.119954
 21
633.279989
 31
0.0
  0
LINE
  5
22D
330
17
100
AcDbEntity
  8
A-GLAZ
100
AcDbLine
 10
582.079915
 20
485.119954
 30
0.0
 11
582.079915
 21
418.559977
 31
0.0
  0
LINE
  5
22E
330
17
100
AcDbEntity
  8
A-GLAZ
100
AcDbLine
 10
893.919922
 20
657.599976
 30
0.0
 11
923.039958
 21
657.599976
 31
0.0
  0
LINE
  5
22F
330
17
100
AcDbEntity
  8
A-GLAZ
100
AcDbLine
 10
926.079915
 20
657.599976
 30
0.0
 11
926.079915
 21
631.680013
 31
0.0
  0
LINE
  5
230
330
17
100
AcDbEntity
  8
A-GLAZ
100
AcDbLine
 10
923.999919
 20
631.680013
 30
0.0
 11
923.999919
 21
657.599976
 31
0.0
  0
LINE
  5
231
330
17
100
AcDbEntity
  8
A-GLAZ
100
AcDbLine
 10
893.919922
 20
657.599976
 30
0.0
 11
893.919922
 21
604.800008
 31
0.0
  0
LINE
  5
232
330
17
100
AcDbEntity
  8
A-GLAZ
100
AcDbLine
 10
893.919922
 20
604.800008
 30
0.0
 11
923.039958
 21
604.800008
 31
0.0
  0
LINE
  5
233
330
17
100
AcDbEntity
  8
A-GLAZ
100
AcDbLine
 10
926.079915
 20
604.800008
 30
0.0
 11
926.079915
 21
630.880005
 31
0.0
  0
LINE
  5
234
330
17
100
AcDbEntity
  8
A-GLAZ
100
AcDbLine
 10
923.039958
 20
657.599976
 30
0.0
 11
923.039958
 21
604.800008
 31
0.0
  0
LINE
  5
235
330
17
100
AcDbEntity
  8
A-GLAZ
100
AcDbLine
 10
923.999919
 20
630.880005
 30
0.0
 11
923.999919
 21
604.800008
 31
0.0
  0
LINE
  5
236
330
17
100
AcDbEntity
  8
A-GLAZ
100
AcDbLine
 10
689.279948
 20
548.960002
 30
0.0
 11
588.959961
 21
548.960002
 31
0.0
  0
LINE
  5
237
330
17
100
AcDbEntity
  8
A-GLAZ
100
AcDbLine
 10
974.23999
 20
531.359985
 30
0.0
 11
995.039958
 21
531.359985
 31
0.0
  0
LINE
  5
238
330
17
100
AcDbEntity
  8
A-GLAZ
100
AcDbLine
 10
995.039958
 20
534.399984
 30
0.0
 11
974.23999
 21
534.399984
 31
0.0
  0
LINE
  5
239
330
17
100
AcDbEntity
  8
A-GLAZ
100
AcDbLine
 10
995.039958
 20
537.599976
 30
0.0
 11
974.23999
 21
537.599976
 31
0.0
  0
LINE
  5
23A
330
17
100
AcDbEntity
  8
A-GLAZ
100
AcDbLine
 10
1002.079915
 20
531.359985
 30
0.0
 11
1022.879964
 21
531.359985
 31
0.0
  0
LINE
  5
23B
330
17
100
AcDbEntity
  8
A-GLAZ
100
AcDbLine
 10
1022.879964
 20
534.399984
 30
0.0
 11
1002.079915
 21
534.399984
 31
0.0
  0
LINE
  5
23C
330
17
100
AcDbEntity
  8
A-GLAZ
100
AcDbLine
 10
1022.879964
 20
537.599976
 30
0.0
 11
1002.079915
 21
537.599976
 31
0.0
  0
LINE
  5
23D
330
17
100
AcDbEntity
  8
A-GLAZ
100
AcDbLine
 10
1050.079915
 20
534.399984
 30
0.0
 11
1029.279948
 21
534.399984
 31
0.0
  0
LINE
  5
23E
330
17
100
AcDbEntity
  8
A-GLAZ
100
AcDbLine
 10
1050.079915
 20
537.599976
 30
0.0
 11
1029.279948
 21
537.599976
 31
0.0
  0
LINE
  5
23F
330
17
100
AcDbEntity
  8
A-GLAZ
100
AcDbLine
 10
1149.919922
 20
573.279989
 30
0.0
 11
1149.919922
 21
600.319987
 31
0.0
  0
LINE
  5
240
330
17
100
AcDbEntity
  8
A-GLAZ
100
AcDbLine
 10
828.47998
 20
432.47998
 30
0.0
 11
828.47998
 21
403.360026
 31
0.0
  0
LINE
  5
241
330
17
100
AcDbEntity
  8
A-GLAZ
100
AcDbLine
 10
828.47998
 20
403.360026
 30
0.0
 11
796.159993
 21
403.360026
 31
0.0
  0
LINE
  5
242
330
17
100
AcDbEntity
  8
A-GLAZ
100
AcDbLine
 10
796.159993
 20
403.360026
 30
0.0
 11
796.159993
 21
432.47998
 31
0.0
  0
LINE
  5
243
330
17
100
AcDbEntity
  8
A-GLAZ
100
AcDbLine
 10
798.23999
 20
403.360026
 30
0.0
 11
798.23999
 21
432.47998
 31
0.0
  0
LINE
  5
244
330
17
100
AcDbEntity
  8
A-GLAZ
100
AcDbLine
 10
796.159993
 20
432.47998
 30
0.0
 11
796.159993
 21
403.360026
 31
0.0
  0
LINE
  5
245
330
17
100
AcDbEntity
  8
A-GLAZ
100
AcDbLine
 10
828.47998
 20
462.559977
 30
0.0
 11
828.47998
 21
433.439941
 31
0.0
  0
LINE
  5
246
330
17
100
AcDbEntity
  8
A-GLAZ
100
AcDbLine
 10
796.159993
 20
433.439941
 30
0.0
 11
796.159993
 21
462.559977
 31
0.0
  0
LINE
  5
247
330
17
100
AcDbEntity
  8
A-GLAZ
100
AcDbLine
 10
798.23999
 20
433.439941
 30
0.0
 11
798.23999
 21
462.559977
 31
0.0
  0
LINE
  5
248
330
17
100
AcDbEntity
  8
A-GLAZ
100
AcDbLine
 10
796.159993
 20
462.559977
 30
0.0
 11
796.159993
 21
433.439941
 31
0.0
  0
LINE
  5
249
330
17
100
AcDbEntity
  8
A-GLAZ
100
AcDbLine
 10
804.639974
 20
323.040039
 30
0.0
 11
763.519938
 21
323.040039
 31
0.0
  0
LINE
  5
24A
330
17
100
AcDbEntity
  8
A-GLAZ
100
AcDbLine
 10
992.319987
 20
374.399984
 30
0.0
 11
1017.439941
 21
374.399984
 31
0.0
  0
LINE
  5
24B
330
17
100
AcDbEntity
  8
A-GLAZ
100
AcDbLine
 10
1004.959961
 20
374.399984
 30
0.0
 11
1055.679932
 21
374.399984
 31
0.0
  0
LINE
  5
24C
330
17
100
AcDbEntity
  8
A-GLAZ
100
AcDbLine
 10
865.759928
 20
674.720011
 30
0.0
 11
832.47998
 21
674.720011
 31
0.0
  0
LINE
  5
24D
330
17
100
AcDbEntity
  8
A-GLAZ
100
AcDbLine
 10
865.759928
 20
676.480021
 30
0.0
 11
832.47998
 21
676.480021
 31
0.0
  0
LINE
  5
24E
330
17
100
AcDbEntity
  8
A-GLAZ
100
AcDbLine
 10
1164.0
 20
291.52002
 30
0.0
 11
1164.0
 21
229.119954
 31
0.0
  0
LINE
  5
24F
330
17
100
AcDbEntity
  8
A-GLAZ
100
AcDbLine
 10
268.799967
 20
638.559977
 30
0.0
 11
236.319987
 21
638.559977
 31
0.0
  0
LINE
  5
250
330
17
100
AcDbEntity
  8
A-GLAZ
100
AcDbLine
 10
385.759928
 20
638.559977
 30
0.0
 11
418.399902
 21
638.559977
 31
0.0
  0
LINE
  5
251
330
17
100
AcDbEntity
  8
A-GLAZ
100
AcDbLine
 10
1310.559896
 20
382.399984
 30
0.0
 11
1310.559896
 21
412.639974
 31
0.0
  0
LINE
  5
252
330
17
100
AcDbEntity
  8
A-GLAZ
100
AcDbLine
 10
1310.559896
 20
419.52002
 30
0.0
 11
1310.559896
 21
449.76001
 31
0.0
  0
LINE
  5
253
330
17
100
AcDbEntity
  8
A-GLAZ
100
AcDbLine
 10
1310.559896
 20
456.639974
 30
0.0
 11
1310.559896
 21
486.399984
 31
0.0
  0
LINE
  5
254
330
17
100
AcDbEntity
  8
A-GLAZ
100
AcDbLine
 10
1310.559896
 20
375.52002
 30
0.0
 11
1310.559896
 21
345.279948
 31
0.0
  0
LINE
  5
255
330
17
100
AcDbEntity
  8
A-GLAZ
100
AcDbLine
 10
1310.559896
 20
338.399984
 30
0.0
 11
1310.559896
 21
308.639974
 31
0.0
  0
LINE
  5
256
330
17
100
AcDbEntity
  8
A-GLAZ
100
AcDbLine
 10
1263.840007
 20
500.47998
 30
0.0
 11
1294.559896
 21
500.47998
 31
0.0
  0
LINE
  5
257
330
17
100
AcDbEntity
  8
A-GLAZ
100
AcDbLine
 10
1257.119954
 20
500.47998
 30
0.0
 11
1225.919922
 21
500.47998
 31
0.0
  0
LINE
  5
258
330
17
100
AcDbEntity
  8
A-GLAZ
100
AcDbLine
 10
1162.719971
 20
595.519979
 30
0.0
 11
1162.719971
 21
575.039998
 31
0.0
  0
LINE
  5
259
330
17
100
AcDbEntity
  8
A-GLAZ
100
AcDbLine
 10
1162.719971
 20
568.319987
 30
0.0
 11
1162.719971
 21
548.319987
 31
0.0
  0
LINE
  5
25A
330
17
100
AcDbEntity
  8
A-GLAZ
100
AcDbLine
 10
1162.719971
 20
602.23999
 30
0.0
 11
1162.719971
 21
622.23999
 31
0.0
  0
LINE
  5
25B
330
17
100
AcDbEntity
  8
A-GLAZ
100
AcDbLine
 10
1099.839925
 20
825.76001
 30
0.0
 11
1067.359945
 21
825.76001
 31
0.0
  0
LINE
  5
25C
330
17
100
AcDbEntity
  8
A-GLAZ
100
AcDbLine
 10
942.23999
 20
825.76001
 30
0.0
 11
974.719971
 21
825.76001
 31
0.0
  0
LINE
  5
25D
330
17
100
AcDbEntity
  8
A-GLAZ
100
AcDbLine
 10
740.959961
 20
825.76001
 30
0.0
 11
708.47998
 21
825.76001
 31
0.0
  0
LINE
  5
25E
330
17
100
AcDbEntity
  8
A-GLAZ
100
AcDbLine
 10
692.959961
 20
781.280029
 30
0.0
 11
692.959961
 21
812.0
 31
0.0
  0
LINE
  5
25F
330
17
100
AcDbEntity
  8
A-GLAZ
100
AcDbLine
 10
692.959961
 20
774.560059
 30
0.0
 11
692.959961
 21
743.360026
 31
0.0
  0
LINE
  5
260
330
17
100
AcDbEntity
  8
A-GLAZ
100
AcDbLine
 10
1168.639974
 20
504.159993
 30
0.0
 11
1168.639974
 21
574.23999
 31
0.0
  0
LINE
  5
261
330
17
100
AcDbEntity
  8
A-GLAZ
100
AcDbLine
 10
871.519938
 20
828.640055
 30
0.0
 11
871.519938
 21
898.720052
 31
0.0
  0
LINE
  5
262
330
17
100
AcDbEntity
  8
A-GLAZ
100
AcDbLine
 10
907.679932
 20
208.319987
 30
0.0
 11
907.679932
 21
229.119954
 31
0.0
  0
LINE
  5
263
330
17
100
AcDbEntity
  8
A-GLAZ
100
AcDbLine
 10
1130.719971
 20
571.199992
 30
0.0
 11
1130.719971
 21
489.279948
 31
0.0
  0
LINE
  5
264
330
17
100
AcDbEntity
  8
A-GLAZ
100
AcDbLine
 10
829.119954
 20
397.599935
 30
0.0
 11
829.119954
 21
349.119954
 31
0.0
  0
LINE
  5
265
330
17
100
AcDbEntity
  8
A-GLAZ
100
AcDbLine
 10
818.719971
 20
394.720052
 30
0.0
 11
818.719971
 21
349.119954
 31
0.0
  0
LINE
  5
266
330
17
100
AcDbEntity
  8
A-GLAZ
100
AcDbLine
 10
808.319987
 20
394.720052
 30
0.0
 11
808.319987
 21
349.920003
 31
0.0
  0
LINE
  5
267
330
17
100
AcDbEntity
  8
A-GLAZ
100
AcDbLine
 10
797.919922
 20
394.720052
 30
0.0
 11
797.919922
 21
349.920003
 31
0.0
  0
LINE
  5
268
330
17
100
AcDbEntity
  8
A-GLAZ
100
AcDbLine
 10
797.919922
 20
300.799967
 30
0.0
 11
797.919922
 21
345.279948
 31
0.0
  0
LINE
  5
269
330
17
100
AcDbEntity
  8
A-GLAZ
100
AcDbLine
 10
876.799967
 20
821.280029
 30
0.0
 11
876.799967
 21
783.840007
 31
0.0
  0
LINE
  5
26A
330
17
100
AcDbEntity
  8
A-GLAZ
100
AcDbLine
 10
878.559977
 20
821.280029
 30
0.0
 11
878.559977
 21
783.840007
 31
0.0
  0
LINE
  5
26B
330
17
100
AcDbEntity
  8
A-GLAZ
100
AcDbLine
 10
831.039958
 20
484.639974
 30
0.0
 11
805.759928
 21
484.639974
 31
0.0
  0
LINE
  5
26C
330
17
100
AcDbEntity
  8
A-GLAZ
100
AcDbLine
 10
830.079915
 20
483.680013
 30
0.0
 11
806.719971
 21
483.680013
 31
0.0
  0
LINE
  5
26D
330
17
100
AcDbEntity
  8
A-GLAZ
100
AcDbLine
 10
805.759928
 20
484.639974
 30
0.0
 11
805.759928
 21
463.840007
 31
0.0
  0
LINE
  5
26E
330
17
100
AcDbEntity
  8
A-GLAZ
100
AcDbLine
 10
806.719971
 20
483.680013
 30
0.0
 11
806.719971
 21
464.959961
 31
0.0
  0
LINE
  5
26F
330
17
100
AcDbEntity
  8
A-GLAZ
100
AcDbLine
 10
831.039958
 20
463.840007
 30
0.0
 11
831.039958
 21
484.639974
 31
0.0
  0
LINE
  5
270
330
17
100
AcDbEntity
  8
A-GLAZ
100
AcDbLine
 10
830.079915
 20
464.959961
 30
0.0
 11
830.079915
 21
483.680013
 31
0.0
  0
LINE
  5
271
330
17
100
AcDbEntity
  8
A-GLAZ
100
AcDbLine
 10
718.879964
 20
605.920003
 30
0.0
 11
695.999919
 21
605.920003
 31
0.0
  0
LINE
  5
272
330
17
100
AcDbEntity
  8
A-GLAZ
100
AcDbLine
 10
695.999919
 20
605.920003
 30
0.0
 11
695.999919
 21
544.0
 31
0.0
  0
LINE
  5
273
330
17
100
AcDbEntity
  8
A-GLAZ
100
AcDbLine
 10
695.999919
 20
544.0
 30
0.0
 11
718.879964
 21
544.0
 31
0.0
  0
LINE
  5
274
330
17
100
AcDbEntity
  8
A-GLAZ
100
AcDbLine
 10
695.999919
 20
544.0
 30
0.0
 11
718.879964
 21
544.0
 31
0.0
  0
LINE
  5
275
330
17
100
AcDbEntity
  8
A-GLAZ
100
AcDbLine
 10
695.999919
 20
605.920003
 30
0.0
 11
695.999919
 21
544.0
 31
0.0
  0
LINE
  5
276
330
17
100
AcDbEntity
  8
A-GLAZ
100
AcDbLine
 10
799.199951
 20
606.399984
 30
0.0
 11
765.279948
 21
606.399984
 31
0.0
  0
LINE
  5
277
330
17
100
AcDbEntity
  8
A-GLAZ
100
AcDbLine
 10
799.199951
 20
606.399984
 30
0.0
 11
799.199951
 21
544.0
 31
0.0
  0
LINE
  5
278
330
17
100
AcDbEntity
  8
A-GLAZ
100
AcDbLine
 10
765.279948
 20
544.0
 30
0.0
 11
799.199951
 21
544.0
 31
0.0
  0
LINE
  5
279
330
17
100
AcDbEntity
  8
A-GLAZ
100
AcDbLine
 10
765.279948
 20
544.0
 30
0.0
 11
765.279948
 21
606.399984
 31
0.0
  0
LINE
  5
27A
330
17
100
AcDbEntity
  8
A-GLAZ
100
AcDbLine
 10
759.999919
 20
544.640015
 30
0.0
 11
759.999919
 21
577.920003
 31
0.0
  0
LINE
  5
27B
330
17
100
AcDbEntity
  8
A-GLAZ
100
AcDbLine
 10
758.23999
 20
544.640015
 30
0.0
 11
758.23999
 21
577.920003
 31
0.0
  0
LINE
  5
27C
330
17
100
AcDbEntity
  8
A-GLAZ
100
AcDbLine
 10
1157.759928
 20
489.279948
 30
0.0
 11
1157.759928
 21
527.680013
 31
0.0
  0
LINE
  5
27D
330
17
100
AcDbEntity
  8
A-GLAZ
100
AcDbLine
 10
1156.799967
 20
490.399984
 30
0.0
 11
1156.799967
 21
526.720052
 31
0.0
  0
LINE
  5
27E
330
17
100
AcDbEntity
  8
A-GLAZ
100
AcDbLine
 10
1069.759928
 20
658.559977
 30
0.0
 11
1106.719971
 21
658.559977
 31
0.0
  0
LINE
  5
27F
330
17
100
AcDbEntity
  8
A-GLAZ
100
AcDbLine
 10
1106.719971
 20
658.559977
 30
0.0
 11
1106.719971
 21
630.720011
 31
0.0
  0
LINE
  5
280
330
17
100
AcDbEntity
  8
A-GLAZ
100
AcDbLine
 10
1106.719971
 20
656.159993
 30
0.0
 11
1106.719971
 21
630.720011
 31
0.0
  0
LINE
  5
281
330
17
100
AcDbEntity
  8
A-GLAZ
100
AcDbLine
 10
1069.759928
 20
656.47998
 30
0.0
 11
1106.719971
 21
656.47998
 31
0.0
  0
LINE
  5
282
330
17
100
AcDbEntity
  8
A-GLAZ
100
AcDbLine
 10
969.759928
 20
542.079997
 30
0.0
 11
1082.879964
 21
542.079997
 31
0.0
  0
LINE
  5
283
330
17
100
AcDbEntity
  8
A-GLAZ
100
AcDbLine
 10
595.679932
 20
492.0
 30
0.0
 11
595.679932
 21
529.439982
 31
0.0
  0
LINE
  5
284
330
17
100
AcDbEntity
  8
A-GLAZ
100
AcDbLine
 10
597.439941
 20
492.0
 30
0.0
 11
597.439941
 21
529.439982
 31
0.0
  0
LINE
  5
285
330
17
100
AcDbEntity
  8
A-GLAZ
100
AcDbLine
 10
892.639974
 20
603.840007
 30
0.0
 11
923.199951
 21
603.840007
 31
0.0
  0
LINE
  5
286
330
17
100
AcDbEntity
  8
A-GLAZ
100
AcDbLine
 10
893.439941
 20
603.039998
 30
0.0
 11
922.399984
 21
603.039998
 31
0.0
  0
LINE
  5
287
330
17
100
AcDbEntity
  8
A-GLAZ
100
AcDbLine
 10
923.199951
 20
603.840007
 30
0.0
 11
923.199951
 21
586.23999
 31
0.0
  0
LINE
  5
288
330
17
100
AcDbEntity
  8
A-GLAZ
100
AcDbLine
 10
922.399984
 20
603.039998
 30
0.0
 11
922.399984
 21
587.039998
 31
0.0
  0
LINE
  5
289
330
17
100
AcDbEntity
  8
A-GLAZ
100
AcDbLine
 10
892.639974
 20
586.23999
 30
0.0
 11
892.639974
 21
603.840007
 31
0.0
  0
LINE
  5
28A
330
17
100
AcDbEntity
  8
A-GLAZ
100
AcDbLine
 10
893.439941
 20
587.039998
 30
0.0
 11
893.439941
 21
603.039998
 31
0.0
  0
LINE
  5
28B
330
17
100
AcDbEntity
  8
A-GLAZ
100
AcDbLine
 10
887.359945
 20
547.199992
 30
0.0
 11
856.159993
 21
547.199992
 31
0.0
  0
LINE
  5
28C
330
17
100
AcDbEntity
  8
A-GLAZ
100
AcDbLine
 10
887.359945
 20
548.960002
 30
0.0
 11
856.159993
 21
548.960002
 31
0.0
  0
LINE
  5
28D
330
17
100
AcDbEntity
  8
A-GLAZ
100
AcDbLine
 10
829.919922
 20
570.720011
 30
0.0
 11
829.919922
 21
620.640015
 31
0.0
  0
LINE
  5
28E
330
17
100
AcDbEntity
  8
A-GLAZ
100
AcDbLine
 10
829.919922
 20
620.640015
 30
0.0
 11
888.159993
 21
620.47998
 31
0.0
  0
LINE
  5
28F
330
17
100
AcDbEntity
  8
A-GLAZ
100
AcDbLine
 10
763.039958
 20
643.519979
 30
0.0
 11
733.919922
 21
643.519979
 31
0.0
  0
LINE
  5
290
330
17
100
AcDbEntity
  8
A-GLAZ
100
AcDbLine
 10
763.039958
 20
641.599976
 30
0.0
 11
733.919922
 21
641.599976
 31
0.0
  0
LINE
  5
291
330
17
100
AcDbEntity
  8
A-GLAZ
100
AcDbLine
 10
689.279948
 20
578.079997
 30
0.0
 11
588.959961
 21
578.079997
 31
0.0
  0
LINE
  5
292
330
17
100
AcDbEntity
  8
A-GLAZ
100
AcDbLine
 10
688.159993
 20
576.960002
 30
0.0
 11
589.919922
 21
576.960002
 31
0.0
  0
LINE
  5
293
330
17
100
AcDbEntity
  8
A-GLAZ
100
AcDbLine
 10
695.999919
 20
611.039998
 30
0.0
 11
720.799967
 21
611.039998
 31
0.0
  0
LINE
  5
294
330
17
100
AcDbEntity
  8
A-GLAZ
100
AcDbLine
 10
720.799967
 20
605.920003
 30
0.0
 11
695.999919
 21
605.920003
 31
0.0
  0
LWPOLYLINE
  5
295
330
17
100
AcDbEntity
  8
A-STRS
100
AcDbPolyline
 90
5
 70
0
 10
582.08
 20
418.56
 10
651.04
 20
418.56
 10
651.04
 20
452.96
 10
582.08
 20
452.96
 10
582.08
 20
418.56
  0
LINE
  5
296
330
17
100
AcDbEntity
  8
A-STRS
100
AcDbLine
 10
582.08
 20
418.56
 30
0.0
 11
651.04
 21
418.56
 31
0.0
  0
LINE
  5
297
330
17
100
AcDbEntity
  8
A-STRS
100
AcDbLine
 10
586.4
 20
430.08
 30
0.0
 11
651.04
 21
430.08
 31
0.0
  0
LINE
  5
298
330
17
100
AcDbEntity
  8
A-STRS
100
AcDbLine
 10
586.4
 20
441.44
 30
0.0
 11
651.04
 21
441.44
 31
0.0
  0
LINE
  5
299
330
17
100
AcDbEntity
  8
A-STRS
100
AcDbLine
 10
586.4
 20
452.96
 30
0.0
 11
651.04
 21
452.96
 31
0.0
  0
LWPOLYLINE
  5
29A
330
17
100
AcDbEntity
  8
A-STRS
100
AcDbPolyline
 90
5
 70
0
 10
588.96
 20
584.8
 10
588.96
 20
634.72
 10
682.56
 20
634.72
 10
682.56
 20
584.8
 10
588.96
 20
584.8
  0
LINE
  5
29B
330
17
100
AcDbEntity
  8
A-STRS
100
AcDbLine
 10
588.96
 20
586.56
 30
0.0
 11
588.96
 21
626.08
 31
0.0
  0
LINE
  5
29C
330
17
100
AcDbEntity
  8
A-STRS
100
AcDbLine
 10
599.36
 20
584.8
 30
0.0
 11
599.36
 21
634.72
 31
0.0
  0
LINE
  5
29D
330
17
100
AcDbEntity
  8
A-STRS
100
AcDbLine
 10
609.76
 20
584.8
 30
0.0
 11
609.76
 21
634.72
 31
0.0
  0
LINE
  5
29E
330
17
100
AcDbEntity
  8
A-STRS
100
AcDbLine
 10
620.16
 20
584.8
 30
0.0
 11
620.16
 21
634.72
 31
0.0
  0
LINE
  5
29F
330
17
100
AcDbEntity
  8
A-STRS
100
AcDbLine
 10
630.56
 20
584.8
 30
0.0
 11
630.56
 21
634.72
 31
0.0
  0
LINE
  5
2A0
330
17
100
AcDbEntity
  8
A-STRS
100
AcDbLine
 10
640.96
 20
584.8
 30
0.0
 11
640.96
 21
634.72
 31
0.0
  0
LINE
  5
2A1
330
17
100
AcDbEntity
  8
A-STRS
100
AcDbLine
 10
651.36
 20
584.8
 30
0.0
 11
651.36
 21
634.72
 31
0.0
  0
LINE
  5
2A2
330
17
100
AcDbEntity
  8
A-STRS
100
AcDbLine
 10
661.76
 20
584.8
 30
0.0
 11
661.76
 21
634.72
 31
0.0
  0
LINE
  5
2A3
330
17
100
AcDbEntity
  8
A-STRS
100
AcDbLine
 10
672.16
 20
584.8
 30
0.0
 11
672.16
 21
634.72
 31
0.0
  0
LINE
  5
2A4
330
17
100
AcDbEntity
  8
A-STRS
100
AcDbLine
 10
682.56
 20
584.8
 30
0.0
 11
682.56
 21
634.72
 31
0.0
  0
LWPOLYLINE
  5
2A5
330
17
100
AcDbEntity
  8
A-STRS
100
AcDbPolyline
 90
5
 70
0
 10
745.92
 20
349.12
 10
745.92
 20
397.6
 10
829.12
 20
397.6
 10
829.12
 20
349.12
 10
745.92
 20
349.12
  0
LINE
  5
2A6
330
17
100
AcDbEntity
  8
A-STRS
100
AcDbLine
 10
745.92
 20
349.92
 30
0.0
 11
745.92
 21
394.72
 31
0.0
  0
LINE
  5
2A7
330
17
100
AcDbEntity
  8
A-STRS
100
AcDbLine
 10
756.32
 20
349.92
 30
0.0
 11
756.32
 21
394.72
 31
0.0
  0
LINE
  5
2A8
330
17
100
AcDbEntity
  8
A-STRS
100
AcDbLine
 10
766.72
 20
349.92
 30
0.0
 11
766.72
 21
394.72
 31
0.0
  0
LINE
  5
2A9
330
17
100
AcDbEntity
  8
A-STRS
100
AcDbLine
 10
777.12
 20
349.92
 30
0.0
 11
777.12
 21
394.72
 31
0.0
  0
LINE
  5
2AA
330
17
100
AcDbEntity
  8
A-STRS
100
AcDbLine
 10
787.52
 20
349.92
 30
0.0
 11
787.52
 21
394.72
 31
0.0
  0
LINE
  5
2AB
330
17
100
AcDbEntity
  8
A-STRS
100
AcDbLine
 10
797.92
 20
349.92
 30
0.0
 11
797.92
 21
394.72
 31
0.0
  0
LINE
  5
2AC
330
17
100
AcDbEntity
  8
A-STRS
100
AcDbLine
 10
808.32
 20
349.92
 30
0.0
 11
808.32
 21
394.72
 31
0.0
  0
LINE
  5
2AD
330
17
100
AcDbEntity
  8
A-STRS
100
AcDbLine
 10
818.72
 20
349.12
 30
0.0
 11
818.72
 21
394.72
 31
0.0
  0
LINE
  5
2AE
330
17
100
AcDbEntity
  8
A-STRS
100
AcDbLine
 10
829.12
 20
349.12
 30
0.0
 11
829.12
 21
397.6
 31
0.0
  0
LWPOLYLINE
  5
2AF
330
17
100
AcDbEntity
  8
A-STRS
100
AcDbPolyline
 90
5
 70
0
 10
745.92
 20
300.8
 10
745.92
 20
345.28
 10
797.92
 20
345.28
 10
797.92
 20
300.8
 10
745.92
 20
300.8
  0
LINE
  5
2B0
330
17
100
AcDbEntity
  8
A-STRS
100
AcDbLine
 10
745.92
 20
300.8
 30
0.0
 11
745.92
 21
345.28
 31
0.0
  0
LINE
  5
2B1
330
17
100
AcDbEntity
  8
A-STRS
100
AcDbLine
 10
766.72
 20
300.8
 30
0.0
 11
766.72
 21
345.28
 31
0.0
  0
LINE
  5
2B2
330
17
100
AcDbEntity
  8
A-STRS
100
AcDbLine
 10
777.12
 20
300.8
 30
0.0
 11
777.12
 21
345.28
 31
0.0
  0
LINE
  5
2B3
330
17
100
AcDbEntity
  8
A-STRS
100
AcDbLine
 10
787.52
 20
300.8
 30
0.0
 11
787.52
 21
345.28
 31
0.0
  0
LINE
  5
2B4
330
17
100
AcDbEntity
  8
A-STRS
100
AcDbLine
 10
797.92
 20
300.8
 30
0.0
 11
797.92
 21
345.28
 31
0.0
  0
ENDSEC
  0
SECTION
  2
OBJECTS
  0
DICTIONARY
  5
A
330
0
100
AcDbDictionary
281
1
  3
ACAD_COLOR
350
B
  3
ACAD_GROUP
350
C
  3
ACAD_LAYOUT
350
D
  3
ACAD_MATERIAL
350
E
  3
ACAD_MLEADERSTYLE
350
F
  3
ACAD_MLINESTYLE
350
10
  3
ACAD_PLOTSETTINGS
350
11
  3
ACAD_PLOTSTYLENAME
350
12
  3
ACAD_SCALELIST
350
14
  3
ACAD_TABLESTYLE
350
15
  3
ACAD_VISUALSTYLE
350
16
  3
EZDXF_META
350
2D
  0
DICTIONARY
  5
B
330
A
100
AcDbDictionary
281
1
  0
DICTIONARY
  5
C
330
A
100
AcDbDictionary
281
1
  0
DICTIONARY
  5
D
330
A
100
AcDbDictionary
281
1
  3
Model
350
1A
  3
Layout1
350
1E
  0
DICTIONARY
  5
E
330
A
100
AcDbDictionary
281
1
  3
ByBlock
350
1F
  3
ByLayer
350
20
  3
Global
350
21
  0
DICTIONARY
  5
F
330
A
100
AcDbDictionary
281
1
  3
Standard
350
2C
  0
DICTIONARY
  5
10
330
A
100
AcDbDictionary
281
1
  3
Standard
350
22
  0
DICTIONARY
  5
11
330
A
100
AcDbDictionary
281
1
  0
ACDBDICTIONARYWDFLT
  5
12
330
A
100
AcDbDictionary
281
1
  3
Normal
350
13
100
AcDbDictionaryWithDefault
340
13
  0
ACDBPLACEHOLDER
  5
13
330
12
  0
DICTIONARY
  5
14
330
A
100
AcDbDictionary
281
1
  0
DICTIONARY
  5
15
330
A
100
AcDbDictionary
281
1
  0
DICTIONARY
  5
16
330
A
100
AcDbDictionary
281
1
  0
LAYOUT
  5
1A
330
D
100
AcDbPlotSettings
  1

  4
A3
  6

 40
7.5
 41
20.0
 42
7.5
 43
20.0
 44
420.0
 45
297.0
 46
0.0
 47
0.0
 48
0.0
 49
0.0
140
0.0
141
0.0
142
1.0
143
1.0
 70
1024
 72
1
 73
0
 74
5
  7

 75
16
 76
0
 77
2
 78
300
147
1.0
148
0.0
149
0.0
100
AcDbLayout
  1
Model
 70
1
 71
0
 10
0.0
 20
0.0
 11
420.0
 21
297.0
 12
0.0
 22
0.0
 32
0.0
 14
1e+20
 24
1e+20
 34
1e+20
 15
-1e+20
 25
-1e+20
 35
-1e+20
146
0.0
 13
0.0
 23
0.0
 33
0.0
 16
1.0
 26
0.0
 36
0.0
 17
0.0
 27
1.0
 37
0.0
 76
1
330
17
  0
LAYOUT
  5
1E
330
D
100
AcDbPlotSettings
  1

  4
A3
  6

 40
7.5
 41
20.0
 42
7.5
 43
20.0
 44
420.0
 45
297.0
 46
0.0
 47
0.0
 48
0.0
 49
0.0
140
0.0
141
0.0
142
1.0
143
1.0
 70
0
 72
1
 73
0
 74
5
  7

 75
16
 76
0
 77
2
 78
300
147
1.0
148
0.0
149
0.0
100
AcDbLayout
  1
Layout1
 70
1
 71
1
 10
0.0
 20
0.0
 11
420.0
 21
297.0
 12
0.0
 22
0.0
 32
0.0
 14
1e+20
 24
1e+20
 34
1e+20
 15
-1e+20
 25
-1e+20
 35
-1e+20
146
0.0
 13
0.0
 23
0.0
 33
0.0
 16
1.0
 26
0.0
 36
0.0
 17
0.0
 27
1.0
 37
0.0
 76
1
330
1B
  0
MATERIAL
  5
1F
102
{ACAD_REACTORS
330
E
102
}
330
E
100
AcDbMaterial
  1
ByBlock
  2

 70
0
 40
1.0
 71
1
 41
1.0
 91
-1023410177
 42
1.0
 72
1
  3

 73
1
 74
1
 75
1
 44
0.5
 73
0
 45
1.0
 46
1.0
 77
1
  4

 78
1
 79
1
170
1
 48
1.0
171
1
  6

172
1
173
1
174
1
140
1.0
141
1.0
175
1
  7

176
1
177
1
178
1
143
1.0
179
1
  8

270
1
271
1
272
1
145
1.0
146
1.0
273
1
  9

274
1
275
1
276
1
 42
1.0
 72
1
  3

 73
1
 74
1
 75
1
 94
63
  0
MATERIAL
  5
20
102
{ACAD_REACTORS
330
E
102
}
330
E
100
AcDbMaterial
  1
ByLayer
  2

 70
0
 40
1.0
 71
1
 41
1.0
 91
-1023410177
 42
1.0
 72
1
  3

 73
1
 74
1
 75
1
 44
0.5
 73
0
 45
1.0
 46
1.0
 77
1
  4

 78
1
 79
1
170
1
 48
1.0
171
1
  6

172
1
173
1
174
1
140
1.0
141
1.0
175
1
  7

176
1
177
1
178
1
143
1.0
179
1
  8

270
1
271
1
272
1
145
1.0
146
1.0
273
1
  9

274
1
275
1
276
1
 42
1.0
 72
1
  3

 73
1
 74
1
 75
1
 94
63
  0
MATERIAL
  5
21
102
{ACAD_REACTORS
330
E
102
}
330
E
100
AcDbMaterial
  1
Global
  2

 70
0
 40
1.0
 71
1
 41
1.0
 91
-1023410177
 42
1.0
 72
1
  3

 73
1
 74
1
 75
1
 44
0.5
 73
0
 45
1.0
 46
1.0
 77
1
  4

 78
1
 79
1
170
1
 48
1.0
171
1
  6

172
1
173
1
174
1
140
1.0
141
1.0
175
1
  7

176
1
177
1
178
1
143
1.0
179
1
  8

270
1
271
1
272
1
145
1.0
146
1.0
273
1
  9

274
1
275
1
276
1
 42
1.0
 72
1
  3

 73
1
 74
1
 75
1
 94
63
  0
MLINESTYLE
  5
22
102
{ACAD_REACTORS
330
10
102
}
330
10
100
AcDbMlineStyle
  2
Standard
 70
0
  3

 62
256
 51
90.0
 52
90.0
 71
2
 49
0.5
 62
256
  6
BYLAYER
 49
-0.5
 62
256
  6
BYLAYER
  0
MLEADERSTYLE
  5
2C
102
{ACAD_REACTORS
330
F
102
}
330
F
100
AcDbMLeaderStyle
179
2
170
2
171
1
172
0
 90
2
 40
0.0
 41
0.0
173
1
 91
-1056964608
 92
-2
290
1
 42
2.0
291
1
 43
8.0
  3
Standard
 44
4.0
300

342
29
174
1
175
1
176
0
178
1
 93
-1056964608
 45
4.0
292
0
297
0
 46
4.0
 94
-1056964608
 47
1.0
 49
1.0
140
1.0
294
1
141
0.0
177
0
142
1.0
295
0
296
0
143
3.75
271
0
272
9
273
9
  0
DICTIONARY
  5
2D
330
A
100
AcDbDictionary
280
1
281
1
  3
CREATED_BY_EZDXF
350
2E
  3
WRITTEN_BY_EZDXF
350
2B7
  0
DICTIONARYVAR
  5
2E
330
2D
100
DictionaryVariables
280
0
  1
1.4.4 @ 2026-07-12T17:04:11.528690+00:00
  0
DICTIONARYVAR
  5
2B7
330
2D
100
DictionaryVariables
280
0
  1
1.4.4 @ 2026-07-12T17:04:11.543144+00:00
  0
ENDSEC
  0
EOF
