0
SECTION
2
ENTITIES
0
LWPOLYLINE
8
TOPO
38
0.0000
10
-738.1470
20
45.8790
10
-735.2440
20
45.8790
10
-735.2440
20
48.9250
10
-191.4590
20
48.9250
10
-192.0070
20
224.4160
10
-187.4330
20
224.4300
10
-187.4080
20
227.1580
10
-20.8380
20
225.6560
10
-20.8120
20
229.1360
10
211.7060
20
227.4120
10
211.6840
20
224.4990
10
214.6270
20
224.5090
10
215.1480
20
72.6880
10
259.1720
20
72.7170
10
259.1760
20
69.7260
10
262.2020
20
69.7320
10
262.5240
20
-82.0150
10
402.0480
20
-80.6060
10
402.0930
20
-84.9920
10
406.1670
20
-85.0160
10
404.9740
20
-282.0130
10
402.0700
20
-281.9960
10
402.0750
20
-283.5620
10
-187.6780
20
-285.3700
10
-187.6880
20
-281.9690
10
-190.4250
20
-281.9770
10
-190.4950
20
-259.5680
10
-735.2350
20
-261.2640
10
-735.2440
20
-258.1320
10
-738.1470
20
-258.1320
0
LINE
8
WALL
10
-732.1990
20
45.8800
11
-190.6770
21
45.8800
0
LINE
8
WALL
10
-289.8160
20
42.8740
11
-289.8160
21
-94.3410
0
LINE
8
WALL
10
-187.4590
20
-278.9930
11
-189.0230
21
221.4500
0
LINE
8
WALL
10
-20.9950
20
221.4330
11
-19.8700
21
58.2920
0
LINE
8
WALL
10
259.1980
20
66.7160
11
259.9320
21
-278.9590
0
LINE
8
WALL
10
256.2160
20
-98.1910
11
-286.8620
21
-98.1910
0
LINE
8
WALL
10
18.8280
20
-139.4460
11
18.3090
21
-278.9540
0
LINE
8
WALL
10
-17.7800
20
226.0580
11
208.6280
21
224.3800
0
LINE
8
WALL
10
-190.6470
20
-256.5280
11
-732.2040
21
-258.2150
0
LINE
8
WALL
10
-184.6760
20
56.2950
11
-0.9020
21
56.2950
0
LINE
8
WALL
10
-83.7520
20
-32.1260
11
-83.7520
21
54.3110
0
LINE
8
WALL
10
-53.3550
20
-179.2950
11
-52.6610
21
-100.1810
0
LINE
8
WALL
10
-122.6840
20
58.2790
11
-122.6840
21
81.5880
0
LINE
8
WALL
10
-124.6580
20
83.8120
11
-184.6650
21
83.4890
0
LINE
8
WALL
10
-79.6570
20
-128.6920
11
-55.3560
21
-128.6920
0
LINE
8
WALL
10
-184.6930
20
224.3930
11
-13.1580
21
222.8470
0
LINE
8
WALL
10
262.1980
20
-85.0480
11
399.0490
21
-83.6660
0
LINE
8
WALL
10
58.8530
20
-98.5970
11
18.8280
21
-139.4460
0
LINE
8
WALL
10
-184.6760
20
-181.2620
11
-55.3560
21
-181.2620
0
LINE
8
WALL
10
-81.6650
20
-179.2300
11
-81.6080
21
-119.0660
0
LINE
8
WALL
10
399.0560
20
-280.5610
11
-184.6770
21
-282.3510
0
LINE
8
WALL
10
1.1340
20
66.7130
11
1.0270
21
2.0230
0
LINE
8
WALL
10
-85.7360
20
17.8590
11
-119.7080
21
17.8590
0
LINE
8
WALL
10
-138.8140
20
-231.1040
11
-80.8890
21
-231.1040
0
LINE
8
WALL
10
256.2160
20
69.7530
11
-17.7910
21
69.4220
0
LINE
8
WALL
10
403.1340
20
-88.0130
11
401.9770
21
-278.9800
0
LINE
8
WALL
10
-80.2240
20
-278.9260
11
-78.9190
21
-233.1440
0
LINE
8
WALL
10
211.5920
20
221.4540
11
212.1030
21
72.6780
0
LINE
8
WALL
10
-190.6280
20
-8.1780
11
-286.8070
21
-7.3270
0
LINE
8
WALL
10
-735.1720
20
-255.1570
11
-735.1720
21
42.9040
0
LINE
8
OPENING
62
5
10
-625.8365
20
45.8800
11
-589.1365
21
45.8800
0
LINE
8
OPENING
62
5
10
-482.9830
20
45.8800
11
-446.2830
21
45.8800
0
LINE
8
OPENING
62
1
10
-340.6245
20
45.8800
11
-302.9345
21
45.8800
0
LINE
8
OPENING
62
1
10
-289.8160
20
34.4681
11
-289.8160
21
-3.2219
0
LINE
8
OPENING
62
5
10
-188.0546
20
-88.4132
11
-188.2025
21
-41.0935
0
LINE
8
OPENING
62
5
10
-188.7789
20
143.3476
11
-189.0015
21
214.5772
0
LINE
8
OPENING
62
1
10
-20.2515
20
113.6089
11
-20.0189
21
79.8797
0
LINE
8
OPENING
62
5
10
259.2681
20
33.7214
11
259.4302
21
-42.6384
0
LINE
8
OPENING
62
2
10
259.5676
20
-107.3653
11
259.6476
21
-145.0452
0
LINE
8
OPENING
62
2
10
228.1905
20
-98.1910
11
63.8605
21
-98.1910
0
LINE
8
OPENING
62
1
10
57.9706
20
-98.1910
11
-190.3894
21
-98.1910
0
LINE
8
OPENING
62
1
10
-243.3613
20
-98.1910
11
-281.0513
21
-98.1910
0
LINE
8
OPENING
62
2
10
18.7481
20
-160.9262
11
18.3865
21
-258.1155
0
LINE
8
OPENING
62
1
10
-13.0531
20
226.0230
11
24.5859
21
225.7440
0
LINE
8
OPENING
62
5
10
47.7117
20
225.5726
11
84.3607
21
225.3010
0
LINE
8
OPENING
62
5
10
166.7344
20
224.6905
11
203.3834
21
224.4189
0
LINE
8
OPENING
62
1
10
-207.7715
20
-256.5813
11
-245.4413
21
-256.6987
0
LINE
8
OPENING
62
5
10
-279.1726
20
-256.8038
11
-471.5716
21
-257.4031
0
LINE
8
OPENING
62
5
10
-513.2335
20
-257.5329
11
-705.6326
21
-258.1322
0
LINE
8
OPENING
62
1
10
-53.3068
20
-173.7996
11
-52.9765
21
-136.1511
0
LINE
8
OPENING
62
1
10
-135.5915
20
83.7531
11
-169.2910
21
83.5718
0
LINE
8
OPENING
62
5
10
-175.4809
20
224.3100
11
-138.8424
21
223.9798
0
LINE
8
OPENING
62
1
10
270.3897
20
-84.9653
11
308.0077
21
-84.5854
0
LINE
8
OPENING
62
5
10
317.9823
20
-84.4847
11
389.3287
21
-83.7642
0
LINE
8
OPENING
62
5
10
384.9231
20
-280.6043
11
278.8136
21
-280.9297
0
LINE
8
OPENING
62
5
10
244.5747
20
-281.0347
11
185.0850
21
-281.2171
0
LINE
8
OPENING
62
5
10
94.7888
20
-281.4940
11
35.2991
21
-281.6764
0
LINE
8
OPENING
62
2
10
13.4168
20
-281.7436
11
-50.0429
21
-281.9381
0
LINE
8
OPENING
62
2
10
123.2235
20
69.5923
11
38.7536
21
69.4903
0
LINE
8
OPENING
62
5
10
403.0872
20
-95.7381
11
402.0238
21
-271.2549
0
LINE
8
OPENING
62
1
10
-79.9999
20
-271.0652
11
-79.0428
21
-237.4888
0
LINE
8
OPENING
62
5
10
211.6542
20
203.3342
11
212.0187
21
97.2249
0
LINE
8
OPENING
62
1
10
20.1911
20
-281.7228
11
-19.8087
21
-281.8454
0
LWPOLYLINE
8
STAIR
10
-288.3000
20
-4.3000
10
-198.3000
20
-4.3000
10
-198.3000
20
43.7000
10
-288.3000
20
43.7000
0
LWPOLYLINE
8
STAIR
10
-137.3117
20
-277.2751
10
-87.3117
20
-277.2751
10
-87.3117
20
-234.5251
10
-137.3117
20
-234.5251
0
LWPOLYLINE
8
STAIR
10
-137.3117
20
-230.9204
10
-57.3117
20
-230.9204
10
-57.3117
20
-184.2751
10
-137.3117
20
-184.2751
0
LWPOLYLINE
8
STAIR
10
-294.8000
20
-164.1000
10
-228.6000
20
-164.1000
10
-228.6000
20
-131.1000
10
-294.8000
20
-131.1000
0
LWPOLYLINE
8
FURN
10
87.0000
20
-50.0000
10
183.0000
20
-50.0000
10
183.0000
20
-8.0000
10
87.0000
20
-8.0000
0
TEXT
8
FURN
1

10
135.0000
20
-29.0000
0
LWPOLYLINE
8
FURN
10
154.0000
20
37.0000
10
184.0000
20
37.0000
10
184.0000
20
63.0000
10
154.0000
20
63.0000
0
TEXT
8
FURN
1
range
10
169.0000
20
50.0000
0
LWPOLYLINE
8
FURN
10
231.0000
20
-17.0000
10
253.0000
20
-17.0000
10
253.0000
20
13.0000
10
231.0000
20
13.0000
0
TEXT
8
FURN
1
vanity
10
242.0000
20
-2.0000
0
LWPOLYLINE
8
FURN
10
232.0000
20
-48.0000
10
256.0000
20
-48.0000
10
256.0000
20
-24.0000
10
232.0000
20
-24.0000
0
TEXT
8
FURN
1
dishwasher
10
244.0000
20
-36.0000
0
LWPOLYLINE
8
FURN
10
26.0000
20
-124.0000
10
42.0000
20
-124.0000
10
42.0000
20
-100.0000
10
26.0000
20
-100.0000
0
TEXT
8
FURN
1
table
10
34.0000
20
-112.0000
0
LWPOLYLINE
8
FURN
10
0.0000
20
-23.0000
10
16.0000
20
-23.0000
10
16.0000
20
1.0000
10
0.0000
20
1.0000
0
TEXT
8
FURN
1

10
8.0000
20
-11.0000
0
LWPOLYLINE
8
FURN
10
-230.0000
20
-179.0000
10
-200.0000
20
-179.0000
10
-200.0000
20
-157.0000
10
-230.0000
20
-157.0000
0
TEXT
8
FURN
1
vanity
10
-215.0000
20
-168.0000
0
LWPOLYLINE
8
FURN
10
-179.0000
20
-178.0000
10
-149.0000
20
-178.0000
10
-149.0000
20
-156.0000
10
-179.0000
20
-156.0000
0
TEXT
8
FURN
1
vanity
10
-164.0000
20
-167.0000
0
LWPOLYLINE
8
FURN
10
-148.5000
20
-175.5000
10
-121.5000
20
-175.5000
10
-121.5000
20
-148.5000
10
-148.5000
20
-148.5000
0
TEXT
8
FURN
1
dryer
10
-135.0000
20
-162.0000
0
LWPOLYLINE
8
FURN
10
234.5000
20
-215.0000
10
293.5000
20
-215.0000
10
293.5000
20
-153.0000
10
234.5000
20
-153.0000
0
TEXT
8
FURN
1

10
264.0000
20
-184.0000
0
LWPOLYLINE
8
FURN
10
-204.0000
20
-25.0000
10
-144.0000
20
-25.0000
10
-144.0000
20
-3.0000
10
-204.0000
20
-3.0000
0
TEXT
8
FURN
1

10
-174.0000
20
-14.0000
0
LWPOLYLINE
8
FURN
10
-218.5000
20
-146.5000
10
-139.5000
20
-146.5000
10
-139.5000
20
-133.5000
10
-218.5000
20
-133.5000
0
TEXT
8
FURN
1

10
-179.0000
20
-140.0000
0
LWPOLYLINE
8
FURN
10
131.0000
20
42.0000
10
233.0000
20
42.0000
10
233.0000
20
68.0000
10
131.0000
20
68.0000
0
TEXT
8
FURN
1

10
182.0000
20
55.0000
0
LWPOLYLINE
8
FURN
10
119.5000
20
54.5000
10
166.5000
20
54.5000
10
166.5000
20
67.5000
10
119.5000
20
67.5000
0
TEXT
8
FURN
1

10
143.0000
20
61.0000
0
LWPOLYLINE
8
FURN
10
205.5000
20
54.5000
10
246.5000
20
54.5000
10
246.5000
20
67.5000
10
205.5000
20
67.5000
0
TEXT
8
FURN
1

10
226.0000
20
61.0000
0
LWPOLYLINE
8
FURN
10
-54.0000
20
60.0000
10
-22.0000
20
60.0000
10
-22.0000
20
84.0000
10
-54.0000
20
84.0000
0
TEXT
8
FURN
1

10
-38.0000
20
72.0000
0
LWPOLYLINE
8
FURN
10
-57.0000
20
30.5000
10
-1.0000
20
30.5000
10
-1.0000
20
55.5000
10
-57.0000
20
55.5000
0
TEXT
8
FURN
1

10
-29.0000
20
43.0000
0
LWPOLYLINE
8
FURN
10
-85.5000
20
60.0000
10
-10.5000
20
60.0000
10
-10.5000
20
70.0000
10
-85.5000
20
70.0000
0
TEXT
8
FURN
1

10
-48.0000
20
65.0000
0
LWPOLYLINE
8
FURN
10
-69.0000
20
42.5000
10
-1.0000
20
42.5000
10
-1.0000
20
55.5000
10
-69.0000
20
55.5000
0
TEXT
8
FURN
1

10
-35.0000
20
49.0000
0
LWPOLYLINE
8
FURN
10
-185.0000
20
-179.5000
10
-143.0000
20
-179.5000
10
-143.0000
20
-154.5000
10
-185.0000
20
-154.5000
0
TEXT
8
FURN
1

10
-164.0000
20
-167.0000
0
LWPOLYLINE
8
FURN
10
231.5000
20
14.0000
10
260.5000
20
14.0000
10
260.5000
20
40.0000
10
231.5000
20
40.0000
0
TEXT
8
FURN
1

10
246.0000
20
27.0000
0
LWPOLYLINE
8
FURN
10
206.5000
20
-70.0000
10
285.5000
20
-70.0000
10
285.5000
20
-44.0000
10
206.5000
20
-44.0000
0
TEXT
8
FURN
1

10
246.0000
20
-57.0000
0
LWPOLYLINE
8
FURN
10
255.5000
20
-190.0000
10
286.5000
20
-190.0000
10
286.5000
20
-178.0000
10
255.5000
20
-178.0000
0
TEXT
8
FURN
1

10
271.0000
20
-184.0000
0
LWPOLYLINE
8
FURN
10
227.5000
20
-76.0000
10
278.5000
20
-76.0000
10
278.5000
20
-64.0000
10
227.5000
20
-64.0000
0
TEXT
8
FURN
1

10
253.0000
20
-70.0000
0
LWPOLYLINE
8
FURN
10
237.5000
20
-190.0000
10
268.5000
20
-190.0000
10
268.5000
20
-178.0000
10
237.5000
20
-178.0000
0
TEXT
8
FURN
1

10
253.0000
20
-184.0000
0
LWPOLYLINE
8
FURN
10
-288.5000
20
-22.5000
10
-193.5000
20
-22.5000
10
-193.5000
20
-9.5000
10
-288.5000
20
-9.5000
0
TEXT
8
FURN
1

10
-241.0000
20
-16.0000
0
LWPOLYLINE
8
FURN
10
-106.0000
20
-19.5000
10
-32.0000
20
-19.5000
10
-32.0000
20
5.5000
10
-106.0000
20
5.5000
0
TEXT
8
FURN
1

10
-69.0000
20
-7.0000
0
LWPOLYLINE
8
FURN
10
-118.0000
20
-7.5000
10
-32.0000
20
-7.5000
10
-32.0000
20
5.5000
10
-118.0000
20
5.5000
0
TEXT
8
FURN
1

10
-75.0000
20
-1.0000
0
LWPOLYLINE
8
FURN
10
27.0000
20
118.0000
10
155.0000
20
118.0000
10
155.0000
20
186.0000
10
27.0000
20
186.0000
0
TEXT
8
FURN
1

10
91.0000
20
152.0000
0
LWPOLYLINE
8
FURN
10
-184.0000
20
29.5000
10
-156.0000
20
29.5000
10
-156.0000
20
48.5000
10
-184.0000
20
48.5000
0
TEXT
8
FURN
1
toilet
10
-170.0000
20
39.0000
0
LWPOLYLINE
8
FURN
10
194.5000
20
99.5000
10
217.5000
20
99.5000
10
217.5000
20
204.5000
10
194.5000
20
204.5000
0
TEXT
8
FURN
1

10
206.0000
20
152.0000
0
LWPOLYLINE
8
FURN
10
192.0000
20
-269.0000
10
220.0000
20
-269.0000
10
220.0000
20
-241.0000
10
192.0000
20
-241.0000
0
TEXT
8
FURN
1

10
206.0000
20
-255.0000
0
LWPOLYLINE
8
FURN
10
158.5000
20
-168.5000
10
209.5000
20
-168.5000
10
209.5000
20
-117.5000
10
158.5000
20
-117.5000
0
TEXT
8
FURN
1

10
184.0000
20
-143.0000
0
LWPOLYLINE
8
FURN
10
-418.5000
20
15.0000
10
-357.5000
20
15.0000
10
-357.5000
20
43.0000
10
-418.5000
20
43.0000
0
TEXT
8
FURN
1

10
-388.0000
20
29.0000
0
LWPOLYLINE
8
FURN
10
56.0000
20
-233.0000
10
92.0000
20
-233.0000
10
92.0000
20
-169.0000
10
56.0000
20
-169.0000
0
TEXT
8
FURN
1

10
74.0000
20
-201.0000
0
LWPOLYLINE
8
FURN
10
4.0000
20
14.0000
10
38.0000
20
14.0000
10
38.0000
20
66.0000
10
4.0000
20
66.0000
0
TEXT
8
FURN
1
fridge
10
21.0000
20
40.0000
0
LWPOLYLINE
8
FURN
10
92.0000
20
-271.0000
10
192.0000
20
-271.0000
10
192.0000
20
-241.0000
10
92.0000
20
-241.0000
0
TEXT
8
FURN
1

10
142.0000
20
-256.0000
0
LWPOLYLINE
8
FURN
10
-185.0000
20
-44.0000
10
-163.0000
20
-44.0000
10
-163.0000
20
16.0000
10
-185.0000
20
16.0000
0
TEXT
8
FURN
1
vanity
10
-174.0000
20
-14.0000
0
LWPOLYLINE
8
FURN
10
-107.0000
20
-180.0000
10
-57.0000
20
-180.0000
10
-57.0000
20
-102.0000
10
-107.0000
20
-102.0000
0
TEXT
8
FURN
1

10
-82.0000
20
-141.0000
0
LWPOLYLINE
8
FURN
10
-118.5000
20
-44.0000
10
-87.5000
20
-44.0000
10
-87.5000
20
16.0000
10
-118.5000
20
16.0000
0
TEXT
8
FURN
1
shower
10
-103.0000
20
-14.0000
0
LWPOLYLINE
8
FURN
10
64.0000
20
-269.0000
10
92.0000
20
-269.0000
10
92.0000
20
-241.0000
10
64.0000
20
-241.0000
0
TEXT
8
FURN
1

10
78.0000
20
-255.0000
0
LWPOLYLINE
8
FURN
10
33.0000
20
-143.0000
10
65.0000
20
-143.0000
10
65.0000
20
-111.0000
10
33.0000
20
-111.0000
0
TEXT
8
FURN
1

10
49.0000
20
-127.0000
0
LWPOLYLINE
8
FURN
10
121.0000
20
-230.0000
10
171.0000
20
-230.0000
10
171.0000
20
-184.0000
10
121.0000
20
-184.0000
0
TEXT
8
FURN
1

10
146.0000
20
-207.0000
0
ENDSEC
0
EOF
