0
SECTION
2
ENTITIES
0
LWPOLYLINE
8
TOPO
38
0.0000
10
-740.6260
20
-262.5120
10
-740.6180
20
-259.5250
10
-743.5480
20
-259.5250
10
-743.5480
20
46.9750
10
-740.6150
20
46.9750
10
-740.6130
20
50.3710
10
-191.6030
20
50.0080
10
-191.6030
20
220.6770
10
-194.9800
20
220.6520
10
-195.0290
20
227.4590
10
-188.6710
20
227.5050
10
-188.6480
20
230.0020
10
-21.3390
20
228.5080
10
-21.1480
20
339.7970
10
-24.4840
20
339.8230
10
-24.4380
20
345.8480
10
-21.1370
20
345.8220
10
-21.1340
20
347.8670
10
-17.1640
20
347.8600
10
-17.1670
20
345.7920
10
211.0150
20
344.0500
10
211.0140
20
348.9110
10
217.0870
20
348.9120
10
217.0880
20
344.0040
10
220.1160
20
343.9810
10
220.0710
20
337.9560
10
217.0880
20
337.9790
10
217.0970
20
73.9910
10
261.9450
20
73.9680
10
261.9450
20
71.0240
10
264.9950
20
71.0240
10
264.9950
20
-81.2910
10
406.0390
20
-82.0380
10
406.0230
20
-84.9560
10
409.0020
20
-84.9380
10
410.1400
20
-272.7280
10
415.8740
20
-272.7280
10
415.8740
20
-286.5730
10
-79.9410
20
-288.5240
10
-79.9480
20
-286.6080
10
-188.5900
20
-286.6080
10
-188.5900
20
-283.5550
10
-191.6030
20
-283.5550
10
-191.6030
20
-263.9090
0
LINE
8
WALL
10
-188.5730
20
-280.5250
11
-188.5730
21
223.9660
0
LINE
8
WALL
10
-17.2980
20
70.9750
11
258.9520
21
70.9750
0
LINE
8
WALL
10
-740.5480
20
-256.5250
11
-740.5480
21
43.9750
0
LINE
8
WALL
10
-185.5480
20
57.4750
11
-0.2710
21
57.4750
0
LINE
8
WALL
10
-123.0480
20
59.4750
11
-123.0480
21
82.9750
0
LINE
8
WALL
10
-185.5480
20
-182.0250
11
-55.1690
21
-181.9610
0
LINE
8
WALL
10
-53.2000
20
-179.9950
11
-54.4080
21
-100.2940
0
LINE
8
WALL
10
261.9520
20
67.9810
11
261.9520
21
-280.5230
0
LINE
8
WALL
10
214.0510
20
345.8750
11
214.0610
21
73.9910
0
LINE
8
WALL
10
-191.6010
20
224.0800
11
211.0540
21
227.0120
0
LINE
8
WALL
10
-185.6470
20
226.9470
11
-52.6140
21
225.7590
0
LINE
8
WALL
10
408.9520
20
-279.6500
11
-80.9780
21
-279.6500
0
LINE
8
WALL
10
264.9860
20
-84.3470
11
402.9670
21
-85.0770
0
LINE
8
WALL
10
405.9700
20
-88.0070
11
407.1370
21
-280.5360
0
LINE
8
WALL
10
402.9640
20
-283.5370
11
-76.9540
21
-285.5120
0
LINE
8
WALL
10
-737.5500
20
47.3040
11
-191.6000
21
46.9430
0
LINE
8
WALL
10
-191.5660
20
-260.8460
11
-737.5560
21
-259.4570
0
LINE
8
WALL
10
-80.9710
20
-283.5670
11
-185.5480
21
-283.5670
0
LINE
8
WALL
10
19.3840
20
-139.8590
11
18.6750
21
-280.5150
0
LINE
8
WALL
10
-125.0370
20
84.9860
11
-185.5350
21
85.3220
0
LINE
8
WALL
10
-0.2710
20
61.7660
11
-17.5490
21
61.7660
0
LINE
8
WALL
10
-19.1520
20
345.8780
11
-19.6440
21
59.4880
0
LINE
8
WALL
10
258.9520
20
-98.2750
11
-288.5700
21
-98.2750
0
LINE
8
WALL
10
-191.5690
20
-7.5250
11
-288.5230
21
-6.8590
0
LINE
8
WALL
10
-291.0360
20
-94.3920
11
-291.5820
21
43.9130
0
LINE
8
WALL
10
-139.3110
20
-232.2750
11
-80.9120
21
-232.2750
0
LINE
8
WALL
10
-78.9710
20
-280.5240
11
-78.9880
21
-234.3320
0
LINE
8
WALL
10
-83.7980
20
-43.7750
11
-83.7980
21
55.4750
0
LINE
8
WALL
10
3.5570
20
-45.8390
11
-185.5420
21
-45.8390
0
LINE
8
WALL
10
-85.7980
20
18.7250
11
-116.0480
21
18.7250
0
LINE
8
WALL
10
59.9730
20
-98.6840
11
19.3840
21
-139.8590
0
LINE
8
WALL
10
1.7790
20
67.9770
11
1.6710
21
-47.9270
0
LINE
8
WALL
10
-79.6690
20
-129.0250
11
-55.1690
21
-129.0250
0
LINE
8
WALL
10
-81.6940
20
-179.9770
11
-81.6940
21
-100.2750
0
LINE
8
WALL
10
-21.4480
20
342.8120
11
217.0810
21
340.9910
0
LINE
8
OPENING
62
2
10
-188.5730
20
-90.8171
11
-188.5730
21
-52.8171
0
LINE
8
OPENING
62
5
10
-188.5730
20
145.2197
11
-188.5730
21
217.0497
0
LINE
8
OPENING
62
2
10
39.7101
20
70.9750
11
124.8701
21
70.9750
0
LINE
8
OPENING
62
1
10
-53.2833
20
-174.4976
11
-53.8581
21
-136.5719
0
LINE
8
OPENING
62
5
10
261.9520
20
34.7240
11
261.9520
21
-42.2760
0
LINE
8
OPENING
62
2
10
261.9520
20
-107.5191
11
261.9520
21
-145.5191
0
LINE
8
OPENING
62
5
10
214.0534
20
279.9882
11
214.0547
21
244.9882
0
LINE
8
OPENING
62
5
10
214.0562
20
205.7120
11
214.0601
21
98.7120
0
LINE
8
OPENING
62
5
10
-176.2525
20
224.1918
11
-139.3035
21
224.4608
0
LINE
8
OPENING
62
5
10
-52.5734
20
225.0924
11
-26.6241
21
225.2813
0
LINE
8
OPENING
62
1
10
-12.5095
20
225.3841
11
25.4395
21
225.6604
0
LINE
8
OPENING
62
5
10
48.7511
20
225.8302
11
85.7001
21
226.0992
0
LINE
8
OPENING
62
5
10
168.7423
20
226.7039
11
205.6913
21
226.9730
0
LINE
8
OPENING
62
5
10
-176.2725
20
226.8633
11
-139.3339
21
226.5334
0
LINE
8
OPENING
62
5
10
388.7175
20
-279.6500
11
281.7175
21
-279.6500
0
LINE
8
OPENING
62
5
10
247.1934
20
-279.6500
11
187.1934
21
-279.6500
0
LINE
8
OPENING
62
5
10
96.1970
20
-279.6500
11
36.1970
21
-279.6500
0
LINE
8
OPENING
62
2
10
14.2230
20
-279.6500
11
-49.7770
21
-279.6500
0
LINE
8
OPENING
62
1
10
273.2249
20
-84.3906
11
311.1944
21
-84.5915
0
LINE
8
OPENING
62
5
10
321.2192
20
-84.6445
11
393.1782
21
-85.0252
0
LINE
8
OPENING
62
5
10
406.0172
20
-95.7931
11
407.0898
21
-272.7499
0
LINE
8
OPENING
62
5
10
388.6841
20
-283.5958
11
281.7150
21
-284.0360
0
LINE
8
OPENING
62
5
10
247.1725
20
-284.1781
11
187.2030
21
-284.4249
0
LINE
8
OPENING
62
5
10
96.1903
20
-284.7995
11
36.2208
21
-285.0463
0
LINE
8
OPENING
62
1
10
14.2046
20
-285.1369
11
-49.7648
21
-285.4001
0
LINE
8
OPENING
62
5
10
-630.3177
20
47.2331
11
-593.3177
21
47.2086
0
LINE
8
OPENING
62
5
10
-486.2961
20
47.1379
11
-449.2961
21
47.1134
0
LINE
8
OPENING
62
1
10
-342.7745
20
47.0430
11
-304.7745
21
47.0178
0
LINE
8
OPENING
62
1
10
-208.8298
20
-260.8021
11
-246.8097
21
-260.7055
0
LINE
8
OPENING
62
2
10
-280.8135
20
-260.6190
11
-474.7929
21
-260.1255
0
LINE
8
OPENING
62
2
10
-516.7904
20
-260.0186
11
-710.7698
21
-259.5251
0
LINE
8
OPENING
62
2
10
19.2747
20
-161.5352
11
18.7809
21
-259.5140
0
LINE
8
OPENING
62
1
10
-136.0628
20
85.0472
11
-170.0323
21
85.2359
0
LINE
8
OPENING
62
5
10
-19.2652
20
280.0048
11
-19.3253
21
245.0149
0
LINE
8
OPENING
62
1
10
-19.5482
20
115.2802
11
-19.6066
21
81.2502
0
LINE
8
OPENING
62
2
10
230.6948
20
-98.2750
11
65.0248
21
-98.2750
0
LINE
8
OPENING
62
2
10
59.0905
20
-98.2750
11
-50.9295
21
-98.2750
0
LINE
8
OPENING
62
1
10
-121.6585
20
-98.2750
11
-155.6585
21
-98.2750
0
LINE
8
OPENING
62
1
10
-244.7125
20
-98.2750
11
-282.7125
21
-98.2750
0
LINE
8
OPENING
62
1
10
-291.3987
20
-2.5116
11
-291.5486
21
35.4581
0
LINE
8
OPENING
62
1
10
-78.9739
20
-272.6015
11
-78.9864
21
-238.6515
0
LINE
8
OPENING
62
1
10
-122.7990
20
-45.8390
11
-156.7990
21
-45.8390
0
LINE
8
OPENING
62
1
10
1.7069
20
-9.3489
11
1.6771
21
-41.3489
0
LINE
8
OPENING
62
2
10
-81.6940
20
-119.3198
11
-81.6940
21
-102.7498
0
LINE
8
OPENING
62
2
10
-5.0149
20
342.6865
11
36.8739
21
342.3668
0
LINE
8
OPENING
62
2
10
48.9165
20
342.2748
11
90.8053
21
341.9550
0
LINE
8
OPENING
62
2
10
102.8529
20
341.8631
11
144.7317
21
341.5433
0
LINE
8
OPENING
62
2
10
156.7793
20
341.4514
11
198.6681
21
341.1316
0
LWPOLYLINE
8
STAIR
10
-288.3000
20
-4.3000
10
-198.3000
20
-4.3000
10
-198.3000
20
43.7000
10
-288.3000
20
43.7000
0
LWPOLYLINE
8
STAIR
10
-137.3117
20
-277.2751
10
-87.3117
20
-277.2751
10
-87.3117
20
-234.5251
10
-137.3117
20
-234.5251
0
LWPOLYLINE
8
STAIR
10
-137.3117
20
-230.9204
10
-57.3117
20
-230.9204
10
-57.3117
20
-184.2751
10
-137.3117
20
-184.2751
0
LWPOLYLINE
8
STAIR
10
-294.8000
20
-164.1000
10
-228.6000
20
-164.1000
10
-228.6000
20
-131.1000
10
-294.8000
20
-131.1000
0
LWPOLYLINE
8
FURN
10
87.0000
20
-50.0000
10
183.0000
20
-50.0000
10
183.0000
20
-8.0000
10
87.0000
20
-8.0000
0
TEXT
8
FURN
1

10
135.0000
20
-29.0000
0
LWPOLYLINE
8
FURN
10
154.0000
20
37.0000
10
184.0000
20
37.0000
10
184.0000
20
63.0000
10
154.0000
20
63.0000
0
TEXT
8
FURN
1
range
10
169.0000
20
50.0000
0
LWPOLYLINE
8
FURN
10
231.0000
20
-17.0000
10
253.0000
20
-17.0000
10
253.0000
20
13.0000
10
231.0000
20
13.0000
0
TEXT
8
FURN
1
vanity
10
242.0000
20
-2.0000
0
LWPOLYLINE
8
FURN
10
232.0000
20
-48.0000
10
256.0000
20
-48.0000
10
256.0000
20
-24.0000
10
232.0000
20
-24.0000
0
TEXT
8
FURN
1
dishwasher
10
244.0000
20
-36.0000
0
LWPOLYLINE
8
FURN
10
26.0000
20
-124.0000
10
42.0000
20
-124.0000
10
42.0000
20
-100.0000
10
26.0000
20
-100.0000
0
TEXT
8
FURN
1
table
10
34.0000
20
-112.0000
0
LWPOLYLINE
8
FURN
10
0.0000
20
-23.0000
10
16.0000
20
-23.0000
10
16.0000
20
1.0000
10
0.0000
20
1.0000
0
TEXT
8
FURN
1

10
8.0000
20
-11.0000
0
LWPOLYLINE
8
FURN
10
-230.0000
20
-179.0000
10
-200.0000
20
-179.0000
10
-200.0000
20
-157.0000
10
-230.0000
20
-157.0000
0
TEXT
8
FURN
1
vanity
10
-215.0000
20
-168.0000
0
LWPOLYLINE
8
FURN
10
-179.0000
20
-178.0000
10
-149.0000
20
-178.0000
10
-149.0000
20
-156.0000
10
-179.0000
20
-156.0000
0
TEXT
8
FURN
1
vanity
10
-164.0000
20
-167.0000
0
LWPOLYLINE
8
FURN
10
-148.5000
20
-175.5000
10
-121.5000
20
-175.5000
10
-121.5000
20
-148.5000
10
-148.5000
20
-148.5000
0
TEXT
8
FURN
1
dryer
10
-135.0000
20
-162.0000
0
LWPOLYLINE
8
FURN
10
234.5000
20
-215.0000
10
293.5000
20
-215.0000
10
293.5000
20
-153.0000
10
234.5000
20
-153.0000
0
TEXT
8
FURN
1

10
264.0000
20
-184.0000
0
LWPOLYLINE
8
FURN
10
-204.0000
20
-25.0000
10
-144.0000
20
-25.0000
10
-144.0000
20
-3.0000
10
-204.0000
20
-3.0000
0
TEXT
8
FURN
1

10
-174.0000
20
-14.0000
0
LWPOLYLINE
8
FURN
10
-218.5000
20
-146.5000
10
-139.5000
20
-146.5000
10
-139.5000
20
-133.5000
10
-218.5000
20
-133.5000
0
TEXT
8
FURN
1

10
-179.0000
20
-140.0000
0
LWPOLYLINE
8
FURN
10
131.0000
20
42.0000
10
233.0000
20
42.0000
10
233.0000
20
68.0000
10
131.0000
20
68.0000
0
TEXT
8
FURN
1

10
182.0000
20
55.0000
0
LWPOLYLINE
8
FURN
10
119.5000
20
54.5000
10
166.5000
20
54.5000
10
166.5000
20
67.5000
10
119.5000
20
67.5000
0
TEXT
8
FURN
1

10
143.0000
20
61.0000
0
LWPOLYLINE
8
FURN
10
205.5000
20
54.5000
10
246.5000
20
54.5000
10
246.5000
20
67.5000
10
205.5000
20
67.5000
0
TEXT
8
FURN
1

10
226.0000
20
61.0000
0
LWPOLYLINE
8
FURN
10
-54.0000
20
60.0000
10
-22.0000
20
60.0000
10
-22.0000
20
84.0000
10
-54.0000
20
84.0000
0
TEXT
8
FURN
1

10
-38.0000
20
72.0000
0
LWPOLYLINE
8
FURN
10
-57.0000
20
30.5000
10
-1.0000
20
30.5000
10
-1.0000
20
55.5000
10
-57.0000
20
55.5000
0
TEXT
8
FURN
1

10
-29.0000
20
43.0000
0
LWPOLYLINE
8
FURN
10
-85.5000
20
60.0000
10
-10.5000
20
60.0000
10
-10.5000
20
70.0000
10
-85.5000
20
70.0000
0
TEXT
8
FURN
1

10
-48.0000
20
65.0000
0
LWPOLYLINE
8
FURN
10
-69.0000
20
42.5000
10
-1.0000
20
42.5000
10
-1.0000
20
55.5000
10
-69.0000
20
55.5000
0
TEXT
8
FURN
1

10
-35.0000
20
49.0000
0
LWPOLYLINE
8
FURN
10
-185.0000
20
-179.5000
10
-143.0000
20
-179.5000
10
-143.0000
20
-154.5000
10
-185.0000
20
-154.5000
0
TEXT
8
FURN
1

10
-164.0000
20
-167.0000
0
LWPOLYLINE
8
FURN
10
231.5000
20
14.0000
10
260.5000
20
14.0000
10
260.5000
20
40.0000
10
231.5000
20
40.0000
0
TEXT
8
FURN
1

10
246.0000
20
27.0000
0
LWPOLYLINE
8
FURN
10
206.5000
20
-70.0000
10
285.5000
20
-70.0000
10
285.5000
20
-44.0000
10
206.5000
20
-44.0000
0
TEXT
8
FURN
1

10
246.0000
20
-57.0000
0
LWPOLYLINE
8
FURN
10
255.5000
20
-190.0000
10
286.5000
20
-190.0000
10
286.5000
20
-178.0000
10
255.5000
20
-178.0000
0
TEXT
8
FURN
1

10
271.0000
20
-184.0000
0
LWPOLYLINE
8
FURN
10
227.5000
20
-76.0000
10
278.5000
20
-76.0000
10
278.5000
20
-64.0000
10
227.5000
20
-64.0000
0
TEXT
8
FURN
1

10
253.0000
20
-70.0000
0
LWPOLYLINE
8
FURN
10
237.5000
20
-190.0000
10
268.5000
20
-190.0000
10
268.5000
20
-178.0000
10
237.5000
20
-178.0000
0
TEXT
8
FURN
1

10
253.0000
20
-184.0000
0
LWPOLYLINE
8
FURN
10
-288.5000
20
-22.5000
10
-193.5000
20
-22.5000
10
-193.5000
20
-9.5000
10
-288.5000
20
-9.5000
0
TEXT
8
FURN
1

10
-241.0000
20
-16.0000
0
LWPOLYLINE
8
FURN
10
-106.0000
20
-19.5000
10
-32.0000
20
-19.5000
10
-32.0000
20
5.5000
10
-106.0000
20
5.5000
0
TEXT
8
FURN
1

10
-69.0000
20
-7.0000
0
LWPOLYLINE
8
FURN
10
-118.0000
20
-7.5000
10
-32.0000
20
-7.5000
10
-32.0000
20
5.5000
10
-118.0000
20
5.5000
0
TEXT
8
FURN
1

10
-75.0000
20
-1.0000
0
LWPOLYLINE
8
FURN
10
27.0000
20
118.0000
10
155.0000
20
118.0000
10
155.0000
20
186.0000
10
27.0000
20
186.0000
0
TEXT
8
FURN
1

10
91.0000
20
152.0000
0
LWPOLYLINE
8
FURN
10
-184.0000
20
29.5000
10
-156.0000
20
29.5000
10
-156.0000
20
48.5000
10
-184.0000
20
48.5000
0
TEXT
8
FURN
1
toilet
10
-170.0000
20
39.0000
0
LWPOLYLINE
8
FURN
10
194.5000
20
99.5000
10
217.5000
20
99.5000
10
217.5000
20
204.5000
10
194.5000
20
204.5000
0
TEXT
8
FURN
1

10
206.0000
20
152.0000
0
LWPOLYLINE
8
FURN
10
192.0000
20
-269.0000
10
220.0000
20
-269.0000
10
220.0000
20
-241.0000
10
192.0000
20
-241.0000
0
TEXT
8
FURN
1

10
206.0000
20
-255.0000
0
LWPOLYLINE
8
FURN
10
158.5000
20
-168.5000
10
209.5000
20
-168.5000
10
209.5000
20
-117.5000
10
158.5000
20
-117.5000
0
TEXT
8
FURN
1

10
184.0000
20
-143.0000
0
LWPOLYLINE
8
FURN
10
-418.5000
20
15.0000
10
-357.5000
20
15.0000
10
-357.5000
20
43.0000
10
-418.5000
20
43.0000
0
TEXT
8
FURN
1

10
-388.0000
20
29.0000
0
LWPOLYLINE
8
FURN
10
56.0000
20
-233.0000
10
92.0000
20
-233.0000
10
92.0000
20
-169.0000
10
56.0000
20
-169.0000
0
TEXT
8
FURN
1

10
74.0000
20
-201.0000
0
LWPOLYLINE
8
FURN
10
4.0000
20
14.0000
10
38.0000
20
14.0000
10
38.0000
20
66.0000
10
4.0000
20
66.0000
0
TEXT
8
FURN
1
fridge
10
21.0000
20
40.0000
0
LWPOLYLINE
8
FURN
10
92.0000
20
-271.0000
10
192.0000
20
-271.0000
10
192.0000
20
-241.0000
10
92.0000
20
-241.0000
0
TEXT
8
FURN
1

10
142.0000
20
-256.0000
0
LWPOLYLINE
8
FURN
10
-185.0000
20
-44.0000
10
-163.0000
20
-44.0000
10
-163.0000
20
16.0000
10
-185.0000
20
16.0000
0
TEXT
8
FURN
1
vanity
10
-174.0000
20
-14.0000
0
LWPOLYLINE
8
FURN
10
-107.0000
20
-180.0000
10
-57.0000
20
-180.0000
10
-57.0000
20
-102.0000
10
-107.0000
20
-102.0000
0
TEXT
8
FURN
1

10
-82.0000
20
-141.0000
0
LWPOLYLINE
8
FURN
10
-118.5000
20
-44.0000
10
-87.5000
20
-44.0000
10
-87.5000
20
16.0000
10
-118.5000
20
16.0000
0
TEXT
8
FURN
1
shower
10
-103.0000
20
-14.0000
0
LWPOLYLINE
8
FURN
10
64.0000
20
-269.0000
10
92.0000
20
-269.0000
10
92.0000
20
-241.0000
10
64.0000
20
-241.0000
0
TEXT
8
FURN
1

10
78.0000
20
-255.0000
0
LWPOLYLINE
8
FURN
10
33.0000
20
-143.0000
10
65.0000
20
-143.0000
10
65.0000
20
-111.0000
10
33.0000
20
-111.0000
0
TEXT
8
FURN
1

10
49.0000
20
-127.0000
0
LWPOLYLINE
8
FURN
10
121.0000
20
-230.0000
10
171.0000
20
-230.0000
10
171.0000
20
-184.0000
10
121.0000
20
-184.0000
0
TEXT
8
FURN
1

10
146.0000
20
-207.0000
0
ENDSEC
0
EOF
